<svg width="25" height="25" viewBox="0 0 25 25" fill="none" xmlns="http://www.w3.org/2000/svg">
<path d="M25 12.5C25 12.5439 25 12.5879 25 12.6318C24.9805 14.4141 23.3594 15.625 21.5771 15.625H16.7969C15.5029 15.625 14.4531 16.6748 14.4531 17.9688C14.4531 18.1348 14.4727 18.2959 14.502 18.4521C14.6045 18.9502 14.8193 19.4287 15.0293 19.9121C15.3271 20.5859 15.6201 21.2549 15.6201 21.9629C15.6201 23.5156 14.5654 24.9268 13.0127 24.9902C12.8418 24.9951 12.6709 25 12.4951 25C5.5957 25 0 19.4043 0 12.5C0 5.5957 5.5957 0 12.5 0C19.4043 0 25 5.5957 25 12.5ZM6.25 14.0625C6.25 13.6481 6.08538 13.2507 5.79235 12.9576C5.49933 12.6646 5.1019 12.5 4.6875 12.5C4.2731 12.5 3.87567 12.6646 3.58265 12.9576C3.28962 13.2507 3.125 13.6481 3.125 14.0625C3.125 14.4769 3.28962 14.8743 3.58265 15.1674C3.87567 15.4604 4.2731 15.625 4.6875 15.625C5.1019 15.625 5.49933 15.4604 5.79235 15.1674C6.08538 14.8743 6.25 14.4769 6.25 14.0625ZM6.25 9.375C6.6644 9.375 7.06183 9.21038 7.35485 8.91735C7.64788 8.62433 7.8125 8.2269 7.8125 7.8125C7.8125 7.3981 7.64788 7.00067 7.35485 6.70765C7.06183 6.41462 6.6644 6.25 6.25 6.25C5.8356 6.25 5.43817 6.41462 5.14515 6.70765C4.85212 7.00067 4.6875 7.3981 4.6875 7.8125C4.6875 8.2269 4.85212 8.62433 5.14515 8.91735C5.43817 9.21038 5.8356 9.375 6.25 9.375ZM14.0625 4.6875C14.0625 4.2731 13.8979 3.87567 13.6049 3.58265C13.3118 3.28962 12.9144 3.125 12.5 3.125C12.0856 3.125 11.6882 3.28962 11.3951 3.58265C11.1021 3.87567 10.9375 4.2731 10.9375 4.6875C10.9375 5.1019 11.1021 5.49933 11.3951 5.79235C11.6882 6.08538 12.0856 6.25 12.5 6.25C12.9144 6.25 13.3118 6.08538 13.6049 5.79235C13.8979 5.49933 14.0625 5.1019 14.0625 4.6875ZM18.75 9.375C19.1644 9.375 19.5618 9.21038 19.8549 8.91735C20.1479 8.62433 20.3125 8.2269 20.3125 7.8125C20.3125 7.3981 20.1479 7.00067 19.8549 6.70765C19.5618 6.41462 19.1644 6.25 18.75 6.25C18.3356 6.25 17.9382 6.41462 17.6451 6.70765C17.3521 7.00067 17.1875 7.3981 17.1875 7.8125C17.1875 8.2269 17.3521 8.62433 17.6451 8.91735C17.9382 9.21038 18.3356 9.375 18.75 9.375Z" fill="#4F9BFD"/>
</svg>
