<svg width="1440" height="3374" viewBox="0 0 1440 3374" fill="none" xmlns="http://www.w3.org/2000/svg">
<g clip-path="url(#clip0_436_4028)">
<rect width="1444" height="3374" transform="translate(-4)" fill="white"/>
<mask id="mask0_436_4028" style="mask-type:alpha" maskUnits="userSpaceOnUse" x="-4" y="0" width="1444" height="3374">
<rect x="-4" width="1444" height="3374" fill="white"/>
</mask>
<g mask="url(#mask0_436_4028)">
<circle cx="238.5" cy="381.5" r="581.5" fill="url(#paint0_radial_436_4028)" fill-opacity="0.5"/>
<circle cx="670.5" cy="938.5" r="581.5" fill="url(#paint1_radial_436_4028)" fill-opacity="0.5"/>
<circle cx="1143.5" cy="203.5" r="581.5" fill="url(#paint2_radial_436_4028)" fill-opacity="0.5"/>
<circle cx="819.5" cy="275.5" r="663.5" fill="url(#paint3_radial_436_4028)" fill-opacity="0.7"/>
<circle cx="581.5" cy="581.5" r="581.5" transform="matrix(1 0 0 -1 89 2286)" fill="url(#paint4_radial_436_4028)" fill-opacity="0.5"/>
<circle cx="581.5" cy="581.5" r="581.5" transform="matrix(1 0 0 -1 521 1729)" fill="url(#paint5_radial_436_4028)" fill-opacity="0.5"/>
<circle cx="581.5" cy="581.5" r="581.5" transform="matrix(1 0 0 -1 994 2464)" fill="url(#paint6_radial_436_4028)" fill-opacity="0.5"/>
<circle cx="663.5" cy="663.5" r="663.5" transform="matrix(1 0 0 -1 588 2474)" fill="url(#paint7_radial_436_4028)" fill-opacity="0.7"/>
<circle cx="581.5" cy="581.5" r="581.5" transform="matrix(1 0 0 -1 -945 2426)" fill="url(#paint8_radial_436_4028)" fill-opacity="0.5"/>
<circle cx="581.5" cy="581.5" r="581.5" transform="matrix(1 0 0 -1 -513 1869)" fill="url(#paint9_radial_436_4028)" fill-opacity="0.5"/>
<circle cx="581.5" cy="581.5" r="581.5" transform="matrix(1 0 0 -1 -40 2604)" fill="url(#paint10_radial_436_4028)" fill-opacity="0.5"/>
<circle cx="663.5" cy="663.5" r="663.5" transform="matrix(1 0 0 -1 -446 2614)" fill="url(#paint11_radial_436_4028)" fill-opacity="0.7"/>
<circle cx="581.5" cy="581.5" r="581.5" transform="matrix(1 0 0 -1 -179 3230)" fill="url(#paint12_radial_436_4028)" fill-opacity="0.5"/>
<circle cx="581.5" cy="581.5" r="581.5" transform="matrix(1 0 0 -1 253 2673)" fill="url(#paint13_radial_436_4028)" fill-opacity="0.5"/>
<circle cx="581.5" cy="581.5" r="581.5" transform="matrix(1 0 0 -1 726 3408)" fill="url(#paint14_radial_436_4028)" fill-opacity="0.5"/>
<circle cx="663.5" cy="663.5" r="663.5" transform="matrix(1 0 0 -1 320 3418)" fill="url(#paint15_radial_436_4028)" fill-opacity="0.7"/>
<circle cx="581.5" cy="581.5" r="581.5" transform="matrix(1 0 0 -1 -781 3743)" fill="url(#paint16_radial_436_4028)" fill-opacity="0.5"/>
<circle cx="581.5" cy="581.5" r="581.5" transform="matrix(1 0 0 -1 -349 3186)" fill="url(#paint17_radial_436_4028)" fill-opacity="0.5"/>
<circle cx="581.5" cy="581.5" r="581.5" transform="matrix(1 0 0 -1 124 3921)" fill="url(#paint18_radial_436_4028)" fill-opacity="0.5"/>
<circle cx="663.5" cy="663.5" r="663.5" transform="matrix(1 0 0 -1 -282 3931)" fill="url(#paint19_radial_436_4028)" fill-opacity="0.7"/>
<circle cx="581.5" cy="581.5" r="581.5" transform="matrix(1 0 0 -1 -50 4174)" fill="url(#paint20_radial_436_4028)" fill-opacity="0.5"/>
<circle cx="581.5" cy="581.5" r="581.5" transform="matrix(1 0 0 -1 382 3617)" fill="url(#paint21_radial_436_4028)" fill-opacity="0.5"/>
<circle cx="581.5" cy="581.5" r="581.5" transform="matrix(1 0 0 -1 855 4352)" fill="url(#paint22_radial_436_4028)" fill-opacity="0.5"/>
<circle cx="663.5" cy="663.5" r="663.5" transform="matrix(1 0 0 -1 449 4362)" fill="url(#paint23_radial_436_4028)" fill-opacity="0.7"/>
</g>
<path d="M1448.5 1094.5C1448.5 1114.38 1432.38 1130.5 1412.5 1130.5C1392.62 1130.5 1376.5 1114.38 1376.5 1094.5C1376.5 1074.62 1392.62 1058.5 1412.5 1058.5C1432.38 1058.5 1448.5 1074.62 1448.5 1094.5Z" stroke="#A7CD3A" stroke-width="15"/>
<path d="M1377.5 1051C1377.5 1057.9 1371.9 1063.5 1365 1063.5C1358.1 1063.5 1352.5 1057.9 1352.5 1051C1352.5 1044.1 1358.1 1038.5 1365 1038.5C1371.9 1038.5 1377.5 1044.1 1377.5 1051Z" stroke="#A7CD3A" stroke-width="7"/>
<path d="M-18.5 295.5C-18.5 315.382 -2.38225 331.5 17.5 331.5C37.3823 331.5 53.5 315.382 53.5 295.5C53.5 275.618 37.3823 259.5 17.5 259.5C-2.38225 259.5 -18.5 275.618 -18.5 295.5Z" stroke="#A7CD3A" stroke-width="15"/>
<path d="M52.5 252C52.5 258.904 58.0964 264.5 65 264.5C71.9036 264.5 77.5 258.904 77.5 252C77.5 245.096 71.9036 239.5 65 239.5C58.0964 239.5 52.5 245.096 52.5 252Z" stroke="#A7CD3A" stroke-width="7"/>
<g filter="url(#filter0_df_436_4028)">
<circle cx="1223" cy="2923" r="265" fill="url(#paint24_linear_436_4028)" shape-rendering="crispEdges"/>
<circle cx="1223" cy="2923" r="264.5" stroke="url(#paint25_linear_436_4028)" shape-rendering="crispEdges"/>
</g>
<g filter="url(#filter1_df_436_4028)">
<circle cx="70" cy="711" r="265" fill="url(#paint26_linear_436_4028)" shape-rendering="crispEdges"/>
<circle cx="70" cy="711" r="264.5" stroke="url(#paint27_linear_436_4028)" shape-rendering="crispEdges"/>
</g>
<g filter="url(#filter2_df_436_4028)">
<circle cx="119" cy="2543" r="265" fill="url(#paint28_linear_436_4028)" shape-rendering="crispEdges"/>
<circle cx="119" cy="2543" r="264.5" stroke="url(#paint29_linear_436_4028)" shape-rendering="crispEdges"/>
</g>
<path d="M1020.5 -0.5C1020.5 20.4868 1003.49 37.5 982.5 37.5C961.513 37.5 944.5 20.4868 944.5 -0.5C944.5 -21.4868 961.513 -38.5 982.5 -38.5C1003.49 -38.5 1020.5 -21.4868 1020.5 -0.5Z" stroke="#005CBA" stroke-width="21"/>
</g>
<defs>
<filter id="filter0_df_436_4028" x="918" y="2618" width="610" height="610" filterUnits="userSpaceOnUse" color-interpolation-filters="sRGB">
<feFlood flood-opacity="0" result="BackgroundImageFix"/>
<feColorMatrix in="SourceAlpha" type="matrix" values="0 0 0 0 0 0 0 0 0 0 0 0 0 0 0 0 0 0 127 0" result="hardAlpha"/>
<feMorphology radius="1" operator="erode" in="SourceAlpha" result="effect1_dropShadow_436_4028"/>
<feOffset dy="4"/>
<feGaussianBlur stdDeviation="3"/>
<feComposite in2="hardAlpha" operator="out"/>
<feColorMatrix type="matrix" values="0 0 0 0 0 0 0 0 0 0 0 0 0 0 0 0 0 0 0.25 0"/>
<feBlend mode="normal" in2="BackgroundImageFix" result="effect1_dropShadow_436_4028"/>
<feBlend mode="normal" in="SourceGraphic" in2="effect1_dropShadow_436_4028" result="shape"/>
<feGaussianBlur stdDeviation="20" result="effect2_foregroundBlur_436_4028"/>
</filter>
<filter id="filter1_df_436_4028" x="-235" y="406" width="610" height="610" filterUnits="userSpaceOnUse" color-interpolation-filters="sRGB">
<feFlood flood-opacity="0" result="BackgroundImageFix"/>
<feColorMatrix in="SourceAlpha" type="matrix" values="0 0 0 0 0 0 0 0 0 0 0 0 0 0 0 0 0 0 127 0" result="hardAlpha"/>
<feMorphology radius="1" operator="erode" in="SourceAlpha" result="effect1_dropShadow_436_4028"/>
<feOffset dy="4"/>
<feGaussianBlur stdDeviation="3"/>
<feComposite in2="hardAlpha" operator="out"/>
<feColorMatrix type="matrix" values="0 0 0 0 0 0 0 0 0 0 0 0 0 0 0 0 0 0 0.25 0"/>
<feBlend mode="normal" in2="BackgroundImageFix" result="effect1_dropShadow_436_4028"/>
<feBlend mode="normal" in="SourceGraphic" in2="effect1_dropShadow_436_4028" result="shape"/>
<feGaussianBlur stdDeviation="20" result="effect2_foregroundBlur_436_4028"/>
</filter>
<filter id="filter2_df_436_4028" x="-186" y="2238" width="610" height="610" filterUnits="userSpaceOnUse" color-interpolation-filters="sRGB">
<feFlood flood-opacity="0" result="BackgroundImageFix"/>
<feColorMatrix in="SourceAlpha" type="matrix" values="0 0 0 0 0 0 0 0 0 0 0 0 0 0 0 0 0 0 127 0" result="hardAlpha"/>
<feMorphology radius="1" operator="erode" in="SourceAlpha" result="effect1_dropShadow_436_4028"/>
<feOffset dy="4"/>
<feGaussianBlur stdDeviation="3"/>
<feComposite in2="hardAlpha" operator="out"/>
<feColorMatrix type="matrix" values="0 0 0 0 0 0 0 0 0 0 0 0 0 0 0 0 0 0 0.25 0"/>
<feBlend mode="normal" in2="BackgroundImageFix" result="effect1_dropShadow_436_4028"/>
<feBlend mode="normal" in="SourceGraphic" in2="effect1_dropShadow_436_4028" result="shape"/>
<feGaussianBlur stdDeviation="20" result="effect2_foregroundBlur_436_4028"/>
</filter>
<radialGradient id="paint0_radial_436_4028" cx="0" cy="0" r="1" gradientUnits="userSpaceOnUse" gradientTransform="translate(238.5 381.5) rotate(90) scale(581.5)">
<stop stop-color="#A7CD3A"/>
<stop offset="0.71875" stop-color="#A7CD3A" stop-opacity="0.3"/>
<stop offset="1" stop-color="white" stop-opacity="0"/>
</radialGradient>
<radialGradient id="paint1_radial_436_4028" cx="0" cy="0" r="1" gradientUnits="userSpaceOnUse" gradientTransform="translate(670.5 938.5) rotate(90) scale(581.5)">
<stop stop-color="#A7CD3A"/>
<stop offset="0.71875" stop-color="#A7CD3A" stop-opacity="0.3"/>
<stop offset="1" stop-color="white" stop-opacity="0"/>
</radialGradient>
<radialGradient id="paint2_radial_436_4028" cx="0" cy="0" r="1" gradientUnits="userSpaceOnUse" gradientTransform="translate(1143.5 203.5) rotate(90) scale(581.5)">
<stop stop-color="#060B81" stop-opacity="0.5"/>
<stop offset="1" stop-color="white" stop-opacity="0"/>
</radialGradient>
<radialGradient id="paint3_radial_436_4028" cx="0" cy="0" r="1" gradientUnits="userSpaceOnUse" gradientTransform="translate(819.5 275.5) rotate(90) scale(663.5)">
<stop stop-color="#A7CD3A"/>
<stop offset="0.0001" stop-color="#FFC500"/>
<stop offset="1" stop-color="white" stop-opacity="0"/>
</radialGradient>
<radialGradient id="paint4_radial_436_4028" cx="0" cy="0" r="1" gradientUnits="userSpaceOnUse" gradientTransform="translate(581.5 581.5) rotate(90) scale(581.5)">
<stop stop-color="#A7CD3A"/>
<stop offset="0.71875" stop-color="#A7CD3A" stop-opacity="0.3"/>
<stop offset="1" stop-color="white" stop-opacity="0"/>
</radialGradient>
<radialGradient id="paint5_radial_436_4028" cx="0" cy="0" r="1" gradientUnits="userSpaceOnUse" gradientTransform="translate(581.5 581.5) rotate(90) scale(581.5)">
<stop stop-color="#A7CD3A"/>
<stop offset="0.71875" stop-color="#A7CD3A" stop-opacity="0.3"/>
<stop offset="1" stop-color="white" stop-opacity="0"/>
</radialGradient>
<radialGradient id="paint6_radial_436_4028" cx="0" cy="0" r="1" gradientUnits="userSpaceOnUse" gradientTransform="translate(581.5 581.5) rotate(90) scale(581.5)">
<stop stop-color="#060B81" stop-opacity="0.5"/>
<stop offset="1" stop-color="white" stop-opacity="0"/>
</radialGradient>
<radialGradient id="paint7_radial_436_4028" cx="0" cy="0" r="1" gradientUnits="userSpaceOnUse" gradientTransform="translate(663.5 663.5) rotate(90) scale(663.5)">
<stop stop-color="#A7CD3A"/>
<stop offset="0.0001" stop-color="#FFC500"/>
<stop offset="1" stop-color="white" stop-opacity="0"/>
</radialGradient>
<radialGradient id="paint8_radial_436_4028" cx="0" cy="0" r="1" gradientUnits="userSpaceOnUse" gradientTransform="translate(581.5 581.5) rotate(90) scale(581.5)">
<stop stop-color="#A7CD3A"/>
<stop offset="0.71875" stop-color="#A7CD3A" stop-opacity="0.3"/>
<stop offset="1" stop-color="white" stop-opacity="0"/>
</radialGradient>
<radialGradient id="paint9_radial_436_4028" cx="0" cy="0" r="1" gradientUnits="userSpaceOnUse" gradientTransform="translate(581.5 581.5) rotate(90) scale(581.5)">
<stop stop-color="#A7CD3A"/>
<stop offset="0.71875" stop-color="#A7CD3A" stop-opacity="0.3"/>
<stop offset="1" stop-color="white" stop-opacity="0"/>
</radialGradient>
<radialGradient id="paint10_radial_436_4028" cx="0" cy="0" r="1" gradientUnits="userSpaceOnUse" gradientTransform="translate(581.5 581.5) rotate(90) scale(581.5)">
<stop stop-color="#060B81" stop-opacity="0.5"/>
<stop offset="1" stop-color="white" stop-opacity="0"/>
</radialGradient>
<radialGradient id="paint11_radial_436_4028" cx="0" cy="0" r="1" gradientUnits="userSpaceOnUse" gradientTransform="translate(663.5 663.5) rotate(90) scale(663.5)">
<stop stop-color="#A7CD3A"/>
<stop offset="0.0001" stop-color="#FFC500"/>
<stop offset="1" stop-color="white" stop-opacity="0"/>
</radialGradient>
<radialGradient id="paint12_radial_436_4028" cx="0" cy="0" r="1" gradientUnits="userSpaceOnUse" gradientTransform="translate(581.5 581.5) rotate(90) scale(581.5)">
<stop stop-color="#A7CD3A"/>
<stop offset="0.71875" stop-color="#A7CD3A" stop-opacity="0.3"/>
<stop offset="1" stop-color="white" stop-opacity="0"/>
</radialGradient>
<radialGradient id="paint13_radial_436_4028" cx="0" cy="0" r="1" gradientUnits="userSpaceOnUse" gradientTransform="translate(581.5 581.5) rotate(90) scale(581.5)">
<stop stop-color="#A7CD3A"/>
<stop offset="0.71875" stop-color="#A7CD3A" stop-opacity="0.3"/>
<stop offset="1" stop-color="white" stop-opacity="0"/>
</radialGradient>
<radialGradient id="paint14_radial_436_4028" cx="0" cy="0" r="1" gradientUnits="userSpaceOnUse" gradientTransform="translate(581.5 581.5) rotate(90) scale(581.5)">
<stop stop-color="#060B81" stop-opacity="0.5"/>
<stop offset="1" stop-color="white" stop-opacity="0"/>
</radialGradient>
<radialGradient id="paint15_radial_436_4028" cx="0" cy="0" r="1" gradientUnits="userSpaceOnUse" gradientTransform="translate(663.5 663.5) rotate(90) scale(663.5)">
<stop stop-color="#A7CD3A"/>
<stop offset="0.0001" stop-color="#FFC500"/>
<stop offset="1" stop-color="white" stop-opacity="0"/>
</radialGradient>
<radialGradient id="paint16_radial_436_4028" cx="0" cy="0" r="1" gradientUnits="userSpaceOnUse" gradientTransform="translate(581.5 581.5) rotate(90) scale(581.5)">
<stop stop-color="#A7CD3A"/>
<stop offset="0.71875" stop-color="#A7CD3A" stop-opacity="0.3"/>
<stop offset="1" stop-color="white" stop-opacity="0"/>
</radialGradient>
<radialGradient id="paint17_radial_436_4028" cx="0" cy="0" r="1" gradientUnits="userSpaceOnUse" gradientTransform="translate(581.5 581.5) rotate(90) scale(581.5)">
<stop stop-color="#A7CD3A"/>
<stop offset="0.71875" stop-color="#A7CD3A" stop-opacity="0.3"/>
<stop offset="1" stop-color="white" stop-opacity="0"/>
</radialGradient>
<radialGradient id="paint18_radial_436_4028" cx="0" cy="0" r="1" gradientUnits="userSpaceOnUse" gradientTransform="translate(581.5 581.5) rotate(90) scale(581.5)">
<stop stop-color="#060B81" stop-opacity="0.5"/>
<stop offset="1" stop-color="white" stop-opacity="0"/>
</radialGradient>
<radialGradient id="paint19_radial_436_4028" cx="0" cy="0" r="1" gradientUnits="userSpaceOnUse" gradientTransform="translate(663.5 663.5) rotate(90) scale(663.5)">
<stop stop-color="#A7CD3A"/>
<stop offset="0.0001" stop-color="#FFC500"/>
<stop offset="1" stop-color="white" stop-opacity="0"/>
</radialGradient>
<radialGradient id="paint20_radial_436_4028" cx="0" cy="0" r="1" gradientUnits="userSpaceOnUse" gradientTransform="translate(581.5 581.5) rotate(90) scale(581.5)">
<stop stop-color="#A7CD3A"/>
<stop offset="0.71875" stop-color="#A7CD3A" stop-opacity="0.3"/>
<stop offset="1" stop-color="white" stop-opacity="0"/>
</radialGradient>
<radialGradient id="paint21_radial_436_4028" cx="0" cy="0" r="1" gradientUnits="userSpaceOnUse" gradientTransform="translate(581.5 581.5) rotate(90) scale(581.5)">
<stop stop-color="#A7CD3A"/>
<stop offset="0.71875" stop-color="#A7CD3A" stop-opacity="0.3"/>
<stop offset="1" stop-color="white" stop-opacity="0"/>
</radialGradient>
<radialGradient id="paint22_radial_436_4028" cx="0" cy="0" r="1" gradientUnits="userSpaceOnUse" gradientTransform="translate(581.5 581.5) rotate(90) scale(581.5)">
<stop stop-color="#060B81" stop-opacity="0.5"/>
<stop offset="1" stop-color="white" stop-opacity="0"/>
</radialGradient>
<radialGradient id="paint23_radial_436_4028" cx="0" cy="0" r="1" gradientUnits="userSpaceOnUse" gradientTransform="translate(663.5 663.5) rotate(90) scale(663.5)">
<stop stop-color="#A7CD3A"/>
<stop offset="0.0001" stop-color="#FFC500"/>
<stop offset="1" stop-color="white" stop-opacity="0"/>
</radialGradient>
<linearGradient id="paint24_linear_436_4028" x1="1092" y1="2629.5" x2="1581" y2="3163" gradientUnits="userSpaceOnUse">
<stop stop-color="white" stop-opacity="0.6"/>
<stop offset="0.989583" stop-color="white" stop-opacity="0.1"/>
</linearGradient>
<linearGradient id="paint25_linear_436_4028" x1="1032.5" y1="2716" x2="1441" y2="3188" gradientUnits="userSpaceOnUse">
<stop stop-color="white"/>
<stop offset="1" stop-color="white" stop-opacity="0.1"/>
</linearGradient>
<linearGradient id="paint26_linear_436_4028" x1="-61" y1="417.5" x2="428" y2="951" gradientUnits="userSpaceOnUse">
<stop stop-color="white" stop-opacity="0.6"/>
<stop offset="0.989583" stop-color="white" stop-opacity="0.1"/>
</linearGradient>
<linearGradient id="paint27_linear_436_4028" x1="-120.5" y1="504" x2="288" y2="976" gradientUnits="userSpaceOnUse">
<stop stop-color="white"/>
<stop offset="1" stop-color="white" stop-opacity="0.1"/>
</linearGradient>
<linearGradient id="paint28_linear_436_4028" x1="-12" y1="2249.5" x2="477" y2="2783" gradientUnits="userSpaceOnUse">
<stop stop-color="white" stop-opacity="0.6"/>
<stop offset="0.989583" stop-color="white" stop-opacity="0.1"/>
</linearGradient>
<linearGradient id="paint29_linear_436_4028" x1="-71.5" y1="2336" x2="337" y2="2808" gradientUnits="userSpaceOnUse">
<stop stop-color="white"/>
<stop offset="1" stop-color="white" stop-opacity="0.1"/>
</linearGradient>
<clipPath id="clip0_436_4028">
<rect width="1444" height="3374" fill="white" transform="translate(-4)"/>
</clipPath>
</defs>
</svg>
