<svg width="114" height="113" viewBox="0 0 114 113" fill="none" xmlns="http://www.w3.org/2000/svg">
<g clip-path="url(#clip0_379_3421)">
<g filter="url(#filter0_d_379_3421)">
<rect x="0.5" y="0.5" width="112.5" height="112.5" rx="15" fill="url(#paint0_linear_379_3421)" shape-rendering="crispEdges"/>
<rect x="1.25" y="1.25" width="111" height="111" rx="14.25" stroke="url(#paint1_linear_379_3421)" stroke-width="1.5" shape-rendering="crispEdges"/>
</g>
<g filter="url(#filter1_f_379_3421)">
<circle cx="56.75" cy="61.25" r="51.75" fill="url(#paint2_radial_379_3421)" fill-opacity="0.5"/>
</g>
<g filter="url(#filter2_d_379_3421)">
<path d="M83.5 60.5C83.5 60.5967 83.5 60.6934 83.5 60.79C83.457 64.7109 79.8906 67.375 75.9697 67.375H65.4531C62.6064 67.375 60.2969 69.6846 60.2969 72.5312C60.2969 72.8965 60.3398 73.251 60.4043 73.5947C60.6299 74.6904 61.1025 75.7432 61.5645 76.8066C62.2197 78.2891 62.8643 79.7607 62.8643 81.3184C62.8643 84.7344 60.5439 87.8389 57.1279 87.9785C56.752 87.9893 56.376 88 55.9893 88C40.8105 88 28.5 75.6895 28.5 60.5C28.5 45.3105 40.8105 33 56 33C71.1895 33 83.5 45.3105 83.5 60.5ZM42.25 63.9375C42.25 63.0258 41.8878 62.1515 41.2432 61.5068C40.5985 60.8622 39.7242 60.5 38.8125 60.5C37.9008 60.5 37.0265 60.8622 36.3818 61.5068C35.7372 62.1515 35.375 63.0258 35.375 63.9375C35.375 64.8492 35.7372 65.7235 36.3818 66.3682C37.0265 67.0128 37.9008 67.375 38.8125 67.375C39.7242 67.375 40.5985 67.0128 41.2432 66.3682C41.8878 65.7235 42.25 64.8492 42.25 63.9375ZM42.25 53.625C43.1617 53.625 44.036 53.2628 44.6807 52.6182C45.3253 51.9735 45.6875 51.0992 45.6875 50.1875C45.6875 49.2758 45.3253 48.4015 44.6807 47.7568C44.036 47.1122 43.1617 46.75 42.25 46.75C41.3383 46.75 40.464 47.1122 39.8193 47.7568C39.1747 48.4015 38.8125 49.2758 38.8125 50.1875C38.8125 51.0992 39.1747 51.9735 39.8193 52.6182C40.464 53.2628 41.3383 53.625 42.25 53.625ZM59.4375 43.3125C59.4375 42.4008 59.0753 41.5265 58.4307 40.8818C57.786 40.2372 56.9117 39.875 56 39.875C55.0883 39.875 54.214 40.2372 53.5693 40.8818C52.9247 41.5265 52.5625 42.4008 52.5625 43.3125C52.5625 44.2242 52.9247 45.0985 53.5693 45.7432C54.214 46.3878 55.0883 46.75 56 46.75C56.9117 46.75 57.786 46.3878 58.4307 45.7432C59.0753 45.0985 59.4375 44.2242 59.4375 43.3125ZM69.75 53.625C70.6617 53.625 71.536 53.2628 72.1807 52.6182C72.8253 51.9735 73.1875 51.0992 73.1875 50.1875C73.1875 49.2758 72.8253 48.4015 72.1807 47.7568C71.536 47.1122 70.6617 46.75 69.75 46.75C68.8383 46.75 67.964 47.1122 67.3193 47.7568C66.6747 48.4015 66.3125 49.2758 66.3125 50.1875C66.3125 51.0992 66.6747 51.9735 67.3193 52.6182C67.964 53.2628 68.8383 53.625 69.75 53.625Z" fill="#A7CD3A"/>
</g>
</g>
<defs>
<filter id="filter0_d_379_3421" x="-37.5" y="-12.5" width="188.5" height="188.5" filterUnits="userSpaceOnUse" color-interpolation-filters="sRGB">
<feFlood flood-opacity="0" result="BackgroundImageFix"/>
<feColorMatrix in="SourceAlpha" type="matrix" values="0 0 0 0 0 0 0 0 0 0 0 0 0 0 0 0 0 0 127 0" result="hardAlpha"/>
<feMorphology radius="12" operator="erode" in="SourceAlpha" result="effect1_dropShadow_379_3421"/>
<feOffset dy="25"/>
<feGaussianBlur stdDeviation="25"/>
<feComposite in2="hardAlpha" operator="out"/>
<feColorMatrix type="matrix" values="0 0 0 0 0.654902 0 0 0 0 0.803922 0 0 0 0 0.227451 0 0 0 1 0"/>
<feBlend mode="normal" in2="BackgroundImageFix" result="effect1_dropShadow_379_3421"/>
<feBlend mode="normal" in="SourceGraphic" in2="effect1_dropShadow_379_3421" result="shape"/>
</filter>
<filter id="filter1_f_379_3421" x="-1" y="3.5" width="115.5" height="115.5" filterUnits="userSpaceOnUse" color-interpolation-filters="sRGB">
<feFlood flood-opacity="0" result="BackgroundImageFix"/>
<feBlend mode="normal" in="SourceGraphic" in2="BackgroundImageFix" result="shape"/>
<feGaussianBlur stdDeviation="3" result="effect1_foregroundBlur_379_3421"/>
</filter>
<filter id="filter2_d_379_3421" x="7.5" y="27" width="97" height="97" filterUnits="userSpaceOnUse" color-interpolation-filters="sRGB">
<feFlood flood-opacity="0" result="BackgroundImageFix"/>
<feColorMatrix in="SourceAlpha" type="matrix" values="0 0 0 0 0 0 0 0 0 0 0 0 0 0 0 0 0 0 127 0" result="hardAlpha"/>
<feMorphology radius="9" operator="erode" in="SourceAlpha" result="effect1_dropShadow_379_3421"/>
<feOffset dy="15"/>
<feGaussianBlur stdDeviation="15"/>
<feComposite in2="hardAlpha" operator="out"/>
<feColorMatrix type="matrix" values="0 0 0 0 0.654902 0 0 0 0 0.803922 0 0 0 0 0.227451 0 0 0 1 0"/>
<feBlend mode="normal" in2="BackgroundImageFix" result="effect1_dropShadow_379_3421"/>
<feBlend mode="normal" in="SourceGraphic" in2="effect1_dropShadow_379_3421" result="shape"/>
</filter>
<linearGradient id="paint0_linear_379_3421" x1="18.5" y1="0.499999" x2="95.75" y2="103.25" gradientUnits="userSpaceOnUse">
<stop stop-color="white" stop-opacity="0.2"/>
<stop offset="1" stop-color="white" stop-opacity="0.8"/>
</linearGradient>
<linearGradient id="paint1_linear_379_3421" x1="0.5" y1="0.5" x2="113" y2="119" gradientUnits="userSpaceOnUse">
<stop stop-color="white"/>
<stop offset="1" stop-color="white" stop-opacity="0.2"/>
</linearGradient>
<radialGradient id="paint2_radial_379_3421" cx="0" cy="0" r="1" gradientUnits="userSpaceOnUse" gradientTransform="translate(56.75 61.25) rotate(90) scale(51.75)">
<stop stop-color="white" stop-opacity="0.125"/>
<stop offset="0.333333" stop-color="white" stop-opacity="0"/>
<stop offset="1" stop-color="white"/>
</radialGradient>
<clipPath id="clip0_379_3421">
<rect width="113" height="113" fill="white" transform="translate(0.5)"/>
</clipPath>
</defs>
</svg>
