<svg width="1440" height="841" viewBox="0 0 1440 841" fill="none" xmlns="http://www.w3.org/2000/svg">
<g clip-path="url(#clip0_508_7642)">
<circle cx="1061.24" cy="437.754" r="108.754" fill="#005CBA"/>
<circle cx="918.275" cy="545.997" r="108.754" fill="#005CBA"/>
<circle cx="969.334" cy="490.855" r="108.754" fill="#005CBA"/>
<circle cx="737.529" cy="578.675" r="108.754" fill="#005CBA"/>
<circle cx="842.709" cy="617.48" r="108.754" fill="#005CBA"/>
<circle cx="842.709" cy="545.997" r="108.754" fill="#005CBA"/>
<circle cx="595.586" cy="509.237" r="108.754" fill="#005CBA"/>
<circle cx="428.116" cy="643.009" r="108.754" fill="#005CBA"/>
<circle cx="520.02" cy="618.501" r="108.754" fill="#005CBA"/>
<circle cx="254.517" cy="578.675" r="108.754" fill="#005CBA"/>
<circle cx="98.2782" cy="600.12" r="108.754" fill="#005CBA"/>
<circle cx="1207.27" cy="469.411" r="108.754" fill="#005CBA"/>
<circle cx="1410.48" cy="462.262" r="108.754" fill="#005CBA"/>
<circle cx="1310.4" cy="462.262" r="108.754" fill="#005CBA"/>
<circle cx="1165.4" cy="564.378" r="108.754" fill="#005CBA"/>
<circle cx="1286.41" cy="673.133" r="291.033" fill="#005CBA"/>
<circle cx="971.887" cy="808.949" r="291.033" fill="#005CBA"/>
<circle cx="617.541" cy="870.218" r="291.033" fill="#005CBA"/>
<circle cx="207.033" cy="855.922" r="291.033" fill="#005CBA"/>
<circle cx="1409.97" cy="887.578" r="291.033" fill="#005CBA"/>
</g>
<g clip-path="url(#clip1_508_7642)">
<path d="M1160.05 135.317L1149.19 124.453C1146.2 121.465 1145.15 117.141 1146.48 113.133C1147.54 110.004 1148.95 105.926 1150.63 101.25H1113.44C1110.41 101.25 1107.6 99.633 1106.09 96.9963C1104.58 94.3596 1104.61 91.1252 1106.16 88.5236L1124.62 57.4104C1129.19 49.7111 1137.45 45.0002 1146.38 45.0002H1175.31C1176.16 43.594 1177 42.2932 1177.84 41.0275C1206.64 -1.44121 1249.53 -2.84745 1275.12 1.86348C1279.2 2.60176 1282.36 5.80098 1283.14 9.87911C1287.85 35.508 1286.41 78.3635 1243.97 107.156C1242.74 108 1241.41 108.844 1240 109.688V138.621C1240 147.551 1235.29 155.848 1227.59 160.383L1196.48 178.84C1193.87 180.387 1190.64 180.422 1188 178.91C1185.37 177.399 1183.75 174.621 1183.75 171.563V133.875C1178.79 135.598 1174.47 137.004 1171.2 138.059C1167.26 139.324 1162.97 138.235 1160.02 135.317H1160.05ZM1240 59.0627C1243.73 59.0627 1247.31 57.5811 1249.94 54.9439C1252.58 52.3067 1254.06 48.7298 1254.06 45.0002C1254.06 41.2706 1252.58 37.6937 1249.94 35.0565C1247.31 32.4193 1243.73 30.9377 1240 30.9377C1236.27 30.9377 1232.69 32.4193 1230.06 35.0565C1227.42 37.6937 1225.94 41.2706 1225.94 45.0002C1225.94 48.7298 1227.42 52.3067 1230.06 54.9439C1232.69 57.5811 1236.27 59.0627 1240 59.0627Z" fill="#005CBA"/>
<circle cx="1140" cy="156" r="9" fill="#005CBA"/>
</g>
<circle cx="1114" cy="201" r="9" fill="#005CBA"/>
<circle cx="1070" cy="298" r="9" fill="#005CBA"/>
<circle cx="1070" cy="219" r="9" fill="#005CBA"/>
<circle cx="1027" cy="258" r="9" fill="#005CBA"/>
<defs>
<clipPath id="clip0_508_7642">
<rect width="1440" height="512" fill="white" transform="translate(0 329)"/>
</clipPath>
<clipPath id="clip1_508_7642">
<rect width="180" height="180" fill="white" transform="translate(1105)"/>
</clipPath>
</defs>
</svg>
