<svg width="1164" height="811" viewBox="0 0 1164 811" fill="none" xmlns="http://www.w3.org/2000/svg">
<path d="M473.061 23.288C471.765 23.288 470.557 23.08 469.437 22.664C468.333 22.232 467.373 21.624 466.557 20.84C465.741 20.056 465.101 19.136 464.637 18.08C464.189 17.024 463.965 15.864 463.965 14.6C463.965 13.336 464.189 12.176 464.637 11.12C465.101 10.064 465.741 9.144 466.557 8.36C467.389 7.576 468.357 6.976 469.461 6.56C470.565 6.128 471.773 5.912 473.085 5.912C474.541 5.912 475.853 6.168 477.021 6.68C478.205 7.176 479.197 7.912 479.997 8.888L477.501 11.192C476.925 10.536 476.285 10.048 475.581 9.728C474.877 9.392 474.109 9.224 473.277 9.224C472.493 9.224 471.773 9.352 471.117 9.608C470.461 9.864 469.893 10.232 469.413 10.712C468.933 11.192 468.557 11.76 468.285 12.416C468.029 13.072 467.901 13.8 467.901 14.6C467.901 15.4 468.029 16.128 468.285 16.784C468.557 17.44 468.933 18.008 469.413 18.488C469.893 18.968 470.461 19.336 471.117 19.592C471.773 19.848 472.493 19.976 473.277 19.976C474.109 19.976 474.877 19.816 475.581 19.496C476.285 19.16 476.925 18.656 477.501 17.984L479.997 20.288C479.197 21.264 478.205 22.008 477.021 22.52C475.853 23.032 474.533 23.288 473.061 23.288ZM481.878 23V10.088H485.454V13.736L484.95 12.68C485.334 11.768 485.95 11.08 486.798 10.616C487.646 10.136 488.678 9.896 489.894 9.896V13.352C489.734 13.336 489.59 13.328 489.462 13.328C489.334 13.312 489.198 13.304 489.054 13.304C488.03 13.304 487.198 13.6 486.558 14.192C485.934 14.768 485.622 15.672 485.622 16.904V23H481.878ZM497.955 23.192C496.483 23.192 495.187 22.904 494.067 22.328C492.963 21.752 492.107 20.968 491.499 19.976C490.891 18.968 490.587 17.824 490.587 16.544C490.587 15.248 490.883 14.104 491.475 13.112C492.083 12.104 492.907 11.32 493.947 10.76C494.987 10.184 496.163 9.896 497.475 9.896C498.739 9.896 499.875 10.168 500.883 10.712C501.907 11.24 502.715 12.008 503.307 13.016C503.899 14.008 504.195 15.2 504.195 16.592C504.195 16.736 504.187 16.904 504.171 17.096C504.155 17.272 504.139 17.44 504.123 17.6H493.635V15.416H502.155L500.715 16.064C500.715 15.392 500.579 14.808 500.307 14.312C500.035 13.816 499.659 13.432 499.179 13.16C498.699 12.872 498.139 12.728 497.499 12.728C496.859 12.728 496.291 12.872 495.795 13.16C495.315 13.432 494.939 13.824 494.667 14.336C494.395 14.832 494.259 15.424 494.259 16.112V16.688C494.259 17.392 494.411 18.016 494.715 18.56C495.035 19.088 495.475 19.496 496.035 19.784C496.611 20.056 497.283 20.192 498.051 20.192C498.739 20.192 499.339 20.088 499.851 19.88C500.379 19.672 500.859 19.36 501.291 18.944L503.283 21.104C502.691 21.776 501.947 22.296 501.051 22.664C500.155 23.016 499.123 23.192 497.955 23.192ZM513.776 23V20.48L513.536 19.928V15.416C513.536 14.616 513.288 13.992 512.792 13.544C512.312 13.096 511.568 12.872 510.56 12.872C509.872 12.872 509.192 12.984 508.52 13.208C507.864 13.416 507.304 13.704 506.84 14.072L505.496 11.456C506.2 10.96 507.048 10.576 508.04 10.304C509.032 10.032 510.04 9.896 511.064 9.896C513.032 9.896 514.56 10.36 515.648 11.288C516.736 12.216 517.28 13.664 517.28 15.632V23H513.776ZM509.84 23.192C508.832 23.192 507.968 23.024 507.248 22.688C506.528 22.336 505.976 21.864 505.592 21.272C505.208 20.68 505.016 20.016 505.016 19.28C505.016 18.512 505.2 17.84 505.568 17.264C505.952 16.688 506.552 16.24 507.368 15.92C508.184 15.584 509.248 15.416 510.56 15.416H513.992V17.6H510.968C510.088 17.6 509.48 17.744 509.144 18.032C508.824 18.32 508.664 18.68 508.664 19.112C508.664 19.592 508.848 19.976 509.216 20.264C509.6 20.536 510.12 20.672 510.776 20.672C511.4 20.672 511.96 20.528 512.456 20.24C512.952 19.936 513.312 19.496 513.536 18.92L514.112 20.648C513.84 21.48 513.344 22.112 512.624 22.544C511.904 22.976 510.976 23.192 509.84 23.192ZM525.468 23.192C523.948 23.192 522.764 22.808 521.916 22.04C521.068 21.256 520.644 20.096 520.644 18.56V7.232H524.388V18.512C524.388 19.056 524.532 19.48 524.82 19.784C525.108 20.072 525.5 20.216 525.996 20.216C526.588 20.216 527.092 20.056 527.508 19.736L528.516 22.376C528.132 22.648 527.668 22.856 527.124 23C526.596 23.128 526.044 23.192 525.468 23.192ZM518.652 13.256V10.376H527.604V13.256H518.652ZM530.138 23V10.088H533.882V23H530.138ZM532.01 8.288C531.322 8.288 530.762 8.088 530.33 7.688C529.898 7.288 529.682 6.792 529.682 6.2C529.682 5.608 529.898 5.112 530.33 4.712C530.762 4.312 531.322 4.112 532.01 4.112C532.698 4.112 533.258 4.304 533.69 4.688C534.122 5.056 534.338 5.536 534.338 6.128C534.338 6.752 534.122 7.272 533.69 7.688C533.274 8.088 532.714 8.288 532.01 8.288ZM544.725 9.896C545.749 9.896 546.661 10.104 547.461 10.52C548.277 10.92 548.917 11.544 549.381 12.392C549.845 13.224 550.077 14.296 550.077 15.608V23H546.333V16.184C546.333 15.144 546.101 14.376 545.637 13.88C545.189 13.384 544.549 13.136 543.717 13.136C543.125 13.136 542.589 13.264 542.109 13.52C541.645 13.76 541.277 14.136 541.005 14.648C540.749 15.16 540.621 15.816 540.621 16.616V23H536.877V10.088H540.453V13.664L539.781 12.584C540.245 11.72 540.909 11.056 541.773 10.592C542.637 10.128 543.621 9.896 544.725 9.896ZM559.156 27.848C557.94 27.848 556.764 27.696 555.628 27.392C554.508 27.104 553.572 26.664 552.82 26.072L554.308 23.384C554.852 23.832 555.54 24.184 556.372 24.44C557.22 24.712 558.052 24.848 558.868 24.848C560.196 24.848 561.156 24.552 561.748 23.96C562.356 23.368 562.66 22.488 562.66 21.32V19.376L562.9 16.136L562.852 12.872V10.088H566.404V20.84C566.404 23.24 565.78 25.008 564.532 26.144C563.284 27.28 561.492 27.848 559.156 27.848ZM558.58 22.376C557.38 22.376 556.292 22.12 555.316 21.608C554.356 21.08 553.58 20.352 552.988 19.424C552.412 18.48 552.124 17.384 552.124 16.136C552.124 14.872 552.412 13.776 552.988 12.848C553.58 11.904 554.356 11.176 555.316 10.664C556.292 10.152 557.38 9.896 558.58 9.896C559.668 9.896 560.628 10.12 561.46 10.568C562.292 11 562.94 11.68 563.404 12.608C563.868 13.52 564.1 14.696 564.1 16.136C564.1 17.56 563.868 18.736 563.404 19.664C562.94 20.576 562.292 21.256 561.46 21.704C560.628 22.152 559.668 22.376 558.58 22.376ZM559.324 19.304C559.98 19.304 560.564 19.176 561.076 18.92C561.588 18.648 561.988 18.272 562.276 17.792C562.564 17.312 562.708 16.76 562.708 16.136C562.708 15.496 562.564 14.944 562.276 14.48C561.988 14 561.588 13.632 561.076 13.376C560.564 13.104 559.98 12.968 559.324 12.968C558.668 12.968 558.084 13.104 557.572 13.376C557.06 13.632 556.652 14 556.348 14.48C556.06 14.944 555.916 15.496 555.916 16.136C555.916 16.76 556.06 17.312 556.348 17.792C556.652 18.272 557.06 18.648 557.572 18.92C558.084 19.176 558.668 19.304 559.324 19.304ZM580.07 23.192C578.966 23.192 577.902 23.064 576.878 22.808C575.87 22.536 575.07 22.2 574.478 21.8L575.726 19.112C576.318 19.48 577.014 19.784 577.814 20.024C578.63 20.248 579.43 20.36 580.214 20.36C581.078 20.36 581.686 20.256 582.038 20.048C582.406 19.84 582.59 19.552 582.59 19.184C582.59 18.88 582.446 18.656 582.158 18.512C581.886 18.352 581.518 18.232 581.054 18.152C580.59 18.072 580.078 17.992 579.518 17.912C578.974 17.832 578.422 17.728 577.862 17.6C577.302 17.456 576.79 17.248 576.326 16.976C575.862 16.704 575.486 16.336 575.198 15.872C574.926 15.408 574.79 14.808 574.79 14.072C574.79 13.256 575.022 12.536 575.486 11.912C575.966 11.288 576.654 10.8 577.55 10.448C578.446 10.08 579.518 9.896 580.766 9.896C581.646 9.896 582.542 9.992 583.454 10.184C584.366 10.376 585.126 10.656 585.734 11.024L584.486 13.688C583.862 13.32 583.23 13.072 582.59 12.944C581.966 12.8 581.358 12.728 580.766 12.728C579.934 12.728 579.326 12.84 578.942 13.064C578.558 13.288 578.366 13.576 578.366 13.928C578.366 14.248 578.502 14.488 578.774 14.648C579.062 14.808 579.438 14.936 579.902 15.032C580.366 15.128 580.87 15.216 581.414 15.296C581.974 15.36 582.534 15.464 583.094 15.608C583.654 15.752 584.158 15.96 584.606 16.232C585.07 16.488 585.446 16.848 585.734 17.312C586.022 17.76 586.166 18.352 586.166 19.088C586.166 19.888 585.926 20.6 585.446 21.224C584.966 21.832 584.27 22.312 583.358 22.664C582.462 23.016 581.366 23.192 580.07 23.192ZM593.444 23.192C592.372 23.192 591.412 22.984 590.564 22.568C589.732 22.152 589.084 21.52 588.62 20.672C588.156 19.808 587.924 18.712 587.924 17.384V10.088H591.668V16.832C591.668 17.904 591.892 18.696 592.34 19.208C592.804 19.704 593.452 19.952 594.284 19.952C594.86 19.952 595.372 19.832 595.82 19.592C596.268 19.336 596.62 18.952 596.876 18.44C597.132 17.912 597.26 17.256 597.26 16.472V10.088H601.004V23H597.452V19.448L598.1 20.48C597.668 21.376 597.028 22.056 596.18 22.52C595.348 22.968 594.436 23.192 593.444 23.192ZM608.336 23.192C607.232 23.192 606.168 23.064 605.144 22.808C604.136 22.536 603.336 22.2 602.744 21.8L603.992 19.112C604.584 19.48 605.28 19.784 606.08 20.024C606.896 20.248 607.696 20.36 608.48 20.36C609.344 20.36 609.952 20.256 610.304 20.048C610.672 19.84 610.856 19.552 610.856 19.184C610.856 18.88 610.712 18.656 610.424 18.512C610.152 18.352 609.784 18.232 609.32 18.152C608.856 18.072 608.344 17.992 607.784 17.912C607.24 17.832 606.688 17.728 606.128 17.6C605.568 17.456 605.056 17.248 604.592 16.976C604.128 16.704 603.752 16.336 603.464 15.872C603.192 15.408 603.056 14.808 603.056 14.072C603.056 13.256 603.288 12.536 603.752 11.912C604.232 11.288 604.92 10.8 605.816 10.448C606.712 10.08 607.784 9.896 609.032 9.896C609.912 9.896 610.808 9.992 611.72 10.184C612.632 10.376 613.392 10.656 614 11.024L612.752 13.688C612.128 13.32 611.496 13.072 610.856 12.944C610.232 12.8 609.624 12.728 609.032 12.728C608.2 12.728 607.592 12.84 607.208 13.064C606.824 13.288 606.632 13.576 606.632 13.928C606.632 14.248 606.768 14.488 607.04 14.648C607.328 14.808 607.704 14.936 608.168 15.032C608.632 15.128 609.136 15.216 609.68 15.296C610.24 15.36 610.8 15.464 611.36 15.608C611.92 15.752 612.424 15.96 612.872 16.232C613.336 16.488 613.712 16.848 614 17.312C614.288 17.76 614.432 18.352 614.432 19.088C614.432 19.888 614.192 20.6 613.712 21.224C613.232 21.832 612.536 22.312 611.624 22.664C610.728 23.016 609.632 23.192 608.336 23.192ZM621.542 23.192C620.022 23.192 618.838 22.808 617.99 22.04C617.142 21.256 616.718 20.096 616.718 18.56V7.232H620.462V18.512C620.462 19.056 620.606 19.48 620.894 19.784C621.182 20.072 621.574 20.216 622.07 20.216C622.662 20.216 623.166 20.056 623.582 19.736L624.59 22.376C624.206 22.648 623.742 22.856 623.198 23C622.67 23.128 622.118 23.192 621.542 23.192ZM614.726 13.256V10.376H623.678V13.256H614.726ZM634.132 23V20.48L633.892 19.928V15.416C633.892 14.616 633.644 13.992 633.148 13.544C632.668 13.096 631.924 12.872 630.916 12.872C630.228 12.872 629.548 12.984 628.876 13.208C628.22 13.416 627.66 13.704 627.196 14.072L625.852 11.456C626.556 10.96 627.404 10.576 628.396 10.304C629.388 10.032 630.396 9.896 631.42 9.896C633.388 9.896 634.916 10.36 636.004 11.288C637.092 12.216 637.636 13.664 637.636 15.632V23H634.132ZM630.196 23.192C629.188 23.192 628.324 23.024 627.604 22.688C626.884 22.336 626.332 21.864 625.948 21.272C625.564 20.68 625.372 20.016 625.372 19.28C625.372 18.512 625.556 17.84 625.924 17.264C626.308 16.688 626.908 16.24 627.724 15.92C628.54 15.584 629.604 15.416 630.916 15.416H634.348V17.6H631.324C630.444 17.6 629.836 17.744 629.5 18.032C629.18 18.32 629.02 18.68 629.02 19.112C629.02 19.592 629.204 19.976 629.572 20.264C629.956 20.536 630.476 20.672 631.132 20.672C631.756 20.672 632.316 20.528 632.812 20.24C633.308 19.936 633.668 19.496 633.892 18.92L634.468 20.648C634.196 21.48 633.7 22.112 632.98 22.544C632.26 22.976 631.332 23.192 630.196 23.192ZM640.545 23V10.088H644.289V23H640.545ZM642.417 8.288C641.729 8.288 641.169 8.088 640.737 7.688C640.305 7.288 640.089 6.792 640.089 6.2C640.089 5.608 640.305 5.112 640.737 4.712C641.169 4.312 641.729 4.112 642.417 4.112C643.105 4.112 643.665 4.304 644.097 4.688C644.529 5.056 644.745 5.536 644.745 6.128C644.745 6.752 644.529 7.272 644.097 7.688C643.681 8.088 643.121 8.288 642.417 8.288ZM655.131 9.896C656.155 9.896 657.067 10.104 657.867 10.52C658.683 10.92 659.323 11.544 659.787 12.392C660.251 13.224 660.483 14.296 660.483 15.608V23H656.739V16.184C656.739 15.144 656.507 14.376 656.043 13.88C655.595 13.384 654.955 13.136 654.123 13.136C653.531 13.136 652.995 13.264 652.515 13.52C652.051 13.76 651.683 14.136 651.411 14.648C651.155 15.16 651.027 15.816 651.027 16.616V23H647.283V10.088H650.859V13.664L650.187 12.584C650.651 11.72 651.315 11.056 652.179 10.592C653.043 10.128 654.027 9.896 655.131 9.896ZM671.317 23V20.48L671.077 19.928V15.416C671.077 14.616 670.829 13.992 670.333 13.544C669.853 13.096 669.109 12.872 668.101 12.872C667.413 12.872 666.733 12.984 666.061 13.208C665.405 13.416 664.845 13.704 664.381 14.072L663.037 11.456C663.741 10.96 664.589 10.576 665.581 10.304C666.573 10.032 667.581 9.896 668.605 9.896C670.573 9.896 672.101 10.36 673.189 11.288C674.277 12.216 674.821 13.664 674.821 15.632V23H671.317ZM667.381 23.192C666.373 23.192 665.509 23.024 664.789 22.688C664.069 22.336 663.517 21.864 663.133 21.272C662.749 20.68 662.557 20.016 662.557 19.28C662.557 18.512 662.741 17.84 663.109 17.264C663.493 16.688 664.093 16.24 664.909 15.92C665.725 15.584 666.789 15.416 668.101 15.416H671.533V17.6H668.509C667.629 17.6 667.021 17.744 666.685 18.032C666.365 18.32 666.205 18.68 666.205 19.112C666.205 19.592 666.389 19.976 666.757 20.264C667.141 20.536 667.661 20.672 668.317 20.672C668.941 20.672 669.501 20.528 669.997 20.24C670.493 19.936 670.853 19.496 671.077 18.92L671.653 20.648C671.381 21.48 670.885 22.112 670.165 22.544C669.445 22.976 668.517 23.192 667.381 23.192ZM685.362 23.192C684.226 23.192 683.25 22.952 682.434 22.472C681.618 21.992 680.994 21.264 680.562 20.288C680.13 19.296 679.914 18.048 679.914 16.544C679.914 15.024 680.138 13.776 680.586 12.8C681.05 11.824 681.69 11.096 682.506 10.616C683.322 10.136 684.274 9.896 685.362 9.896C686.578 9.896 687.666 10.168 688.626 10.712C689.602 11.256 690.37 12.024 690.93 13.016C691.506 14.008 691.794 15.184 691.794 16.544C691.794 17.888 691.506 19.056 690.93 20.048C690.37 21.04 689.602 21.816 688.626 22.376C687.666 22.92 686.578 23.192 685.362 23.192ZM677.73 23V5.192H681.474V12.704L681.234 16.52L681.306 20.36V23H677.73ZM684.714 20.12C685.338 20.12 685.89 19.976 686.37 19.688C686.866 19.4 687.258 18.992 687.546 18.464C687.85 17.92 688.002 17.28 688.002 16.544C688.002 15.792 687.85 15.152 687.546 14.624C687.258 14.096 686.866 13.688 686.37 13.4C685.89 13.112 685.338 12.968 684.714 12.968C684.09 12.968 683.53 13.112 683.034 13.4C682.538 13.688 682.146 14.096 681.858 14.624C681.57 15.152 681.426 15.792 681.426 16.544C681.426 17.28 681.57 17.92 681.858 18.464C682.146 18.992 682.538 19.4 683.034 19.688C683.53 19.976 684.09 20.12 684.714 20.12ZM693.82 23V5.192H697.564V23H693.82ZM706.967 23.192C705.495 23.192 704.199 22.904 703.079 22.328C701.975 21.752 701.119 20.968 700.511 19.976C699.903 18.968 699.599 17.824 699.599 16.544C699.599 15.248 699.895 14.104 700.487 13.112C701.095 12.104 701.919 11.32 702.959 10.76C703.999 10.184 705.175 9.896 706.487 9.896C707.751 9.896 708.887 10.168 709.895 10.712C710.919 11.24 711.727 12.008 712.319 13.016C712.911 14.008 713.207 15.2 713.207 16.592C713.207 16.736 713.199 16.904 713.183 17.096C713.167 17.272 713.151 17.44 713.135 17.6H702.647V15.416H711.167L709.727 16.064C709.727 15.392 709.591 14.808 709.319 14.312C709.047 13.816 708.671 13.432 708.191 13.16C707.711 12.872 707.151 12.728 706.511 12.728C705.871 12.728 705.303 12.872 704.807 13.16C704.327 13.432 703.951 13.824 703.679 14.336C703.407 14.832 703.271 15.424 703.271 16.112V16.688C703.271 17.392 703.423 18.016 703.727 18.56C704.047 19.088 704.487 19.496 705.047 19.784C705.623 20.056 706.295 20.192 707.063 20.192C707.751 20.192 708.351 20.088 708.863 19.88C709.391 19.672 709.871 19.36 710.303 18.944L712.295 21.104C711.703 21.776 710.959 22.296 710.063 22.664C709.167 23.016 708.135 23.192 706.967 23.192ZM528.257 52V39.088H532.001V52H528.257ZM530.129 37.288C529.441 37.288 528.881 37.088 528.449 36.688C528.017 36.288 527.801 35.792 527.801 35.2C527.801 34.608 528.017 34.112 528.449 33.712C528.881 33.312 529.441 33.112 530.129 33.112C530.817 33.112 531.377 33.304 531.809 33.688C532.241 34.056 532.457 34.536 532.457 35.128C532.457 35.752 532.241 36.272 531.809 36.688C531.393 37.088 530.833 37.288 530.129 37.288ZM542.844 38.896C543.868 38.896 544.78 39.104 545.58 39.52C546.396 39.92 547.036 40.544 547.5 41.392C547.964 42.224 548.196 43.296 548.196 44.608V52H544.452V45.184C544.452 44.144 544.22 43.376 543.756 42.88C543.308 42.384 542.668 42.136 541.836 42.136C541.244 42.136 540.708 42.264 540.228 42.52C539.764 42.76 539.396 43.136 539.124 43.648C538.868 44.16 538.74 44.816 538.74 45.616V52H534.996V39.088H538.572V42.664L537.9 41.584C538.364 40.72 539.028 40.056 539.892 39.592C540.756 39.128 541.74 38.896 542.844 38.896ZM558.958 38.896C559.982 38.896 560.894 39.104 561.694 39.52C562.51 39.92 563.15 40.544 563.614 41.392C564.078 42.224 564.31 43.296 564.31 44.608V52H560.566V45.184C560.566 44.144 560.334 43.376 559.87 42.88C559.422 42.384 558.782 42.136 557.95 42.136C557.358 42.136 556.822 42.264 556.342 42.52C555.878 42.76 555.51 43.136 555.238 43.648C554.982 44.16 554.854 44.816 554.854 45.616V52H551.11V39.088H554.686V42.664L554.014 41.584C554.478 40.72 555.142 40.056 556.006 39.592C556.87 39.128 557.854 38.896 558.958 38.896ZM573.461 52.192C572.085 52.192 570.861 51.904 569.789 51.328C568.733 50.752 567.893 49.968 567.269 48.976C566.661 47.968 566.357 46.824 566.357 45.544C566.357 44.248 566.661 43.104 567.269 42.112C567.893 41.104 568.733 40.32 569.789 39.76C570.861 39.184 572.085 38.896 573.461 38.896C574.821 38.896 576.037 39.184 577.109 39.76C578.181 40.32 579.021 41.096 579.629 42.088C580.237 43.08 580.541 44.232 580.541 45.544C580.541 46.824 580.237 47.968 579.629 48.976C579.021 49.968 578.181 50.752 577.109 51.328C576.037 51.904 574.821 52.192 573.461 52.192ZM573.461 49.12C574.085 49.12 574.645 48.976 575.141 48.688C575.637 48.4 576.029 47.992 576.317 47.464C576.605 46.92 576.749 46.28 576.749 45.544C576.749 44.792 576.605 44.152 576.317 43.624C576.029 43.096 575.637 42.688 575.141 42.4C574.645 42.112 574.085 41.968 573.461 41.968C572.837 41.968 572.277 42.112 571.781 42.4C571.285 42.688 570.885 43.096 570.581 43.624C570.293 44.152 570.149 44.792 570.149 45.544C570.149 46.28 570.293 46.92 570.581 47.464C570.885 47.992 571.285 48.4 571.781 48.688C572.277 48.976 572.837 49.12 573.461 49.12ZM585.716 52L580.292 39.088H584.156L588.668 50.2H586.748L591.428 39.088H595.028L589.58 52H585.716ZM603.574 52V49.48L603.334 48.928V44.416C603.334 43.616 603.086 42.992 602.59 42.544C602.11 42.096 601.366 41.872 600.358 41.872C599.67 41.872 598.99 41.984 598.318 42.208C597.662 42.416 597.102 42.704 596.638 43.072L595.294 40.456C595.998 39.96 596.846 39.576 597.838 39.304C598.83 39.032 599.838 38.896 600.862 38.896C602.83 38.896 604.358 39.36 605.446 40.288C606.534 41.216 607.078 42.664 607.078 44.632V52H603.574ZM599.638 52.192C598.63 52.192 597.766 52.024 597.046 51.688C596.326 51.336 595.774 50.864 595.39 50.272C595.006 49.68 594.814 49.016 594.814 48.28C594.814 47.512 594.998 46.84 595.366 46.264C595.75 45.688 596.35 45.24 597.166 44.92C597.982 44.584 599.046 44.416 600.358 44.416H603.79V46.6H600.766C599.886 46.6 599.278 46.744 598.942 47.032C598.622 47.32 598.462 47.68 598.462 48.112C598.462 48.592 598.646 48.976 599.014 49.264C599.398 49.536 599.918 49.672 600.574 49.672C601.198 49.672 601.758 49.528 602.254 49.24C602.75 48.936 603.11 48.496 603.334 47.92L603.91 49.648C603.638 50.48 603.142 51.112 602.422 51.544C601.702 51.976 600.774 52.192 599.638 52.192ZM615.267 52.192C613.747 52.192 612.563 51.808 611.715 51.04C610.867 50.256 610.443 49.096 610.443 47.56V36.232H614.187V47.512C614.187 48.056 614.331 48.48 614.619 48.784C614.907 49.072 615.299 49.216 615.795 49.216C616.387 49.216 616.891 49.056 617.307 48.736L618.315 51.376C617.931 51.648 617.467 51.856 616.923 52C616.395 52.128 615.843 52.192 615.267 52.192ZM608.451 42.256V39.376H617.403V42.256H608.451ZM619.936 52V39.088H623.68V52H619.936ZM621.808 37.288C621.12 37.288 620.56 37.088 620.128 36.688C619.696 36.288 619.48 35.792 619.48 35.2C619.48 34.608 619.696 34.112 620.128 33.712C620.56 33.312 621.12 33.112 621.808 33.112C622.496 33.112 623.056 33.304 623.488 33.688C623.92 34.056 624.136 34.536 624.136 35.128C624.136 35.752 623.92 36.272 623.488 36.688C623.072 37.088 622.512 37.288 621.808 37.288ZM632.819 52.192C631.443 52.192 630.219 51.904 629.147 51.328C628.091 50.752 627.251 49.968 626.627 48.976C626.019 47.968 625.715 46.824 625.715 45.544C625.715 44.248 626.019 43.104 626.627 42.112C627.251 41.104 628.091 40.32 629.147 39.76C630.219 39.184 631.443 38.896 632.819 38.896C634.179 38.896 635.395 39.184 636.467 39.76C637.539 40.32 638.379 41.096 638.987 42.088C639.595 43.08 639.899 44.232 639.899 45.544C639.899 46.824 639.595 47.968 638.987 48.976C638.379 49.968 637.539 50.752 636.467 51.328C635.395 51.904 634.179 52.192 632.819 52.192ZM632.819 49.12C633.443 49.12 634.003 48.976 634.499 48.688C634.995 48.4 635.387 47.992 635.675 47.464C635.963 46.92 636.107 46.28 636.107 45.544C636.107 44.792 635.963 44.152 635.675 43.624C635.387 43.096 634.995 42.688 634.499 42.4C634.003 42.112 633.443 41.968 632.819 41.968C632.195 41.968 631.635 42.112 631.139 42.4C630.643 42.688 630.243 43.096 629.939 43.624C629.651 44.152 629.507 44.792 629.507 45.544C629.507 46.28 629.651 46.92 629.939 47.464C630.243 47.992 630.643 48.4 631.139 48.688C631.635 48.976 632.195 49.12 632.819 49.12ZM649.77 38.896C650.794 38.896 651.706 39.104 652.506 39.52C653.322 39.92 653.962 40.544 654.426 41.392C654.89 42.224 655.122 43.296 655.122 44.608V52H651.378V45.184C651.378 44.144 651.146 43.376 650.682 42.88C650.234 42.384 649.594 42.136 648.762 42.136C648.17 42.136 647.634 42.264 647.154 42.52C646.69 42.76 646.322 43.136 646.05 43.648C645.794 44.16 645.666 44.816 645.666 45.616V52H641.922V39.088H645.498V42.664L644.826 41.584C645.29 40.72 645.954 40.056 646.818 39.592C647.682 39.128 648.666 38.896 649.77 38.896Z" fill="#ED6010"/>
<path d="M508.7 766.76H516.764V769.88H508.7V766.76ZM508.988 776H505.1V759.2H517.796V762.32H508.988V776ZM524.828 776.192C523.756 776.192 522.796 775.984 521.948 775.568C521.116 775.152 520.468 774.52 520.004 773.672C519.54 772.808 519.308 771.712 519.308 770.384V763.088H523.052V769.832C523.052 770.904 523.276 771.696 523.724 772.208C524.188 772.704 524.836 772.952 525.668 772.952C526.244 772.952 526.756 772.832 527.204 772.592C527.652 772.336 528.004 771.952 528.26 771.44C528.516 770.912 528.644 770.256 528.644 769.472V763.088H532.388V776H528.836V772.448L529.484 773.48C529.052 774.376 528.412 775.056 527.564 775.52C526.732 775.968 525.82 776.192 524.828 776.192ZM540.656 776.192C539.136 776.192 537.952 775.808 537.104 775.04C536.256 774.256 535.832 773.096 535.832 771.56V760.232H539.576V771.512C539.576 772.056 539.72 772.48 540.008 772.784C540.296 773.072 540.688 773.216 541.184 773.216C541.776 773.216 542.28 773.056 542.696 772.736L543.704 775.376C543.32 775.648 542.856 775.856 542.312 776C541.784 776.128 541.232 776.192 540.656 776.192ZM533.84 766.256V763.376H542.792V766.256H533.84ZM550.774 776.192C549.702 776.192 548.742 775.984 547.894 775.568C547.062 775.152 546.414 774.52 545.95 773.672C545.486 772.808 545.254 771.712 545.254 770.384V763.088H548.998V769.832C548.998 770.904 549.222 771.696 549.67 772.208C550.134 772.704 550.782 772.952 551.614 772.952C552.19 772.952 552.702 772.832 553.15 772.592C553.598 772.336 553.95 771.952 554.206 771.44C554.462 770.912 554.59 770.256 554.59 769.472V763.088H558.334V776H554.782V772.448L555.43 773.48C554.998 774.376 554.358 775.056 553.51 775.52C552.678 775.968 551.766 776.192 550.774 776.192ZM561.323 776V763.088H564.899V766.736L564.395 765.68C564.779 764.768 565.395 764.08 566.243 763.616C567.091 763.136 568.123 762.896 569.339 762.896V766.352C569.179 766.336 569.035 766.328 568.907 766.328C568.779 766.312 568.643 766.304 568.499 766.304C567.475 766.304 566.643 766.6 566.003 767.192C565.379 767.768 565.067 768.672 565.067 769.904V776H561.323ZM577.399 776.192C575.927 776.192 574.631 775.904 573.511 775.328C572.407 774.752 571.551 773.968 570.943 772.976C570.335 771.968 570.031 770.824 570.031 769.544C570.031 768.248 570.327 767.104 570.919 766.112C571.527 765.104 572.351 764.32 573.391 763.76C574.431 763.184 575.607 762.896 576.919 762.896C578.183 762.896 579.319 763.168 580.327 763.712C581.351 764.24 582.159 765.008 582.751 766.016C583.343 767.008 583.639 768.2 583.639 769.592C583.639 769.736 583.631 769.904 583.615 770.096C583.599 770.272 583.583 770.44 583.567 770.6H573.079V768.416H581.599L580.159 769.064C580.159 768.392 580.023 767.808 579.751 767.312C579.479 766.816 579.103 766.432 578.623 766.16C578.143 765.872 577.583 765.728 576.943 765.728C576.303 765.728 575.735 765.872 575.239 766.16C574.759 766.432 574.383 766.824 574.111 767.336C573.839 767.832 573.703 768.424 573.703 769.112V769.688C573.703 770.392 573.855 771.016 574.159 771.56C574.479 772.088 574.919 772.496 575.479 772.784C576.055 773.056 576.727 773.192 577.495 773.192C578.183 773.192 578.783 773.088 579.295 772.88C579.823 772.672 580.303 772.36 580.735 771.944L582.727 774.104C582.135 774.776 581.391 775.296 580.495 775.664C579.599 776.016 578.567 776.192 577.399 776.192ZM585.406 770.744V767.744H592.198V770.744H585.406ZM594.928 776V759.2H602.56C604.384 759.2 605.992 759.552 607.384 760.256C608.776 760.944 609.864 761.912 610.648 763.16C611.432 764.408 611.824 765.888 611.824 767.6C611.824 769.296 611.432 770.776 610.648 772.04C609.864 773.288 608.776 774.264 607.384 774.968C605.992 775.656 604.384 776 602.56 776H594.928ZM598.816 772.808H602.368C603.488 772.808 604.456 772.6 605.272 772.184C606.104 771.752 606.744 771.144 607.192 770.36C607.656 769.576 607.888 768.656 607.888 767.6C607.888 766.528 607.656 765.608 607.192 764.84C606.744 764.056 606.104 763.456 605.272 763.04C604.456 762.608 603.488 762.392 602.368 762.392H598.816V772.808ZM614.012 776V763.088H617.588V766.736L617.084 765.68C617.468 764.768 618.084 764.08 618.932 763.616C619.78 763.136 620.812 762.896 622.028 762.896V766.352C621.868 766.336 621.724 766.328 621.596 766.328C621.468 766.312 621.332 766.304 621.188 766.304C620.164 766.304 619.332 766.6 618.692 767.192C618.068 767.768 617.756 768.672 617.756 769.904V776H614.012ZM623.798 776V763.088H627.542V776H623.798ZM625.67 761.288C624.982 761.288 624.422 761.088 623.99 760.688C623.558 760.288 623.342 759.792 623.342 759.2C623.342 758.608 623.558 758.112 623.99 757.712C624.422 757.312 624.982 757.112 625.67 757.112C626.358 757.112 626.918 757.304 627.35 757.688C627.782 758.056 627.998 758.536 627.998 759.128C627.998 759.752 627.782 760.272 627.35 760.688C626.934 761.088 626.374 761.288 625.67 761.288ZM634.04 776L628.616 763.088H632.48L636.992 774.2H635.072L639.752 763.088H643.352L637.904 776H634.04ZM650.456 776.192C648.984 776.192 647.688 775.904 646.568 775.328C645.464 774.752 644.608 773.968 644 772.976C643.392 771.968 643.088 770.824 643.088 769.544C643.088 768.248 643.384 767.104 643.976 766.112C644.584 765.104 645.408 764.32 646.448 763.76C647.488 763.184 648.664 762.896 649.976 762.896C651.24 762.896 652.376 763.168 653.384 763.712C654.408 764.24 655.216 765.008 655.808 766.016C656.4 767.008 656.696 768.2 656.696 769.592C656.696 769.736 656.688 769.904 656.672 770.096C656.656 770.272 656.64 770.44 656.624 770.6H646.136V768.416H654.656L653.216 769.064C653.216 768.392 653.08 767.808 652.808 767.312C652.536 766.816 652.16 766.432 651.68 766.16C651.2 765.872 650.64 765.728 650 765.728C649.36 765.728 648.792 765.872 648.296 766.16C647.816 766.432 647.44 766.824 647.168 767.336C646.896 767.832 646.76 768.424 646.76 769.112V769.688C646.76 770.392 646.912 771.016 647.216 771.56C647.536 772.088 647.976 772.496 648.536 772.784C649.112 773.056 649.784 773.192 650.552 773.192C651.24 773.192 651.84 773.088 652.352 772.88C652.88 772.672 653.36 772.36 653.792 771.944L655.784 774.104C655.192 774.776 654.448 775.296 653.552 775.664C652.656 776.016 651.624 776.192 650.456 776.192ZM666.557 762.896C667.581 762.896 668.493 763.104 669.293 763.52C670.109 763.92 670.749 764.544 671.213 765.392C671.677 766.224 671.909 767.296 671.909 768.608V776H668.165V769.184C668.165 768.144 667.933 767.376 667.469 766.88C667.021 766.384 666.381 766.136 665.549 766.136C664.957 766.136 664.421 766.264 663.941 766.52C663.477 766.76 663.109 767.136 662.837 767.648C662.581 768.16 662.453 768.816 662.453 769.616V776H658.709V763.088H662.285V766.664L661.613 765.584C662.077 764.72 662.741 764.056 663.605 763.592C664.469 763.128 665.453 762.896 666.557 762.896ZM492.016 805V788.2H499.648C501.472 788.2 503.08 788.552 504.472 789.256C505.864 789.944 506.952 790.912 507.736 792.16C508.52 793.408 508.912 794.888 508.912 796.6C508.912 798.296 508.52 799.776 507.736 801.04C506.952 802.288 505.864 803.264 504.472 803.968C503.08 804.656 501.472 805 499.648 805H492.016ZM495.904 801.808H499.456C500.576 801.808 501.544 801.6 502.36 801.184C503.192 800.752 503.832 800.144 504.28 799.36C504.744 798.576 504.976 797.656 504.976 796.6C504.976 795.528 504.744 794.608 504.28 793.84C503.832 793.056 503.192 792.456 502.36 792.04C501.544 791.608 500.576 791.392 499.456 791.392H495.904V801.808ZM517.508 805.192C516.036 805.192 514.74 804.904 513.62 804.328C512.516 803.752 511.66 802.968 511.052 801.976C510.444 800.968 510.14 799.824 510.14 798.544C510.14 797.248 510.436 796.104 511.028 795.112C511.636 794.104 512.46 793.32 513.5 792.76C514.54 792.184 515.716 791.896 517.028 791.896C518.292 791.896 519.428 792.168 520.436 792.712C521.46 793.24 522.268 794.008 522.86 795.016C523.452 796.008 523.748 797.2 523.748 798.592C523.748 798.736 523.74 798.904 523.724 799.096C523.708 799.272 523.692 799.44 523.676 799.6H513.188V797.416H521.708L520.268 798.064C520.268 797.392 520.132 796.808 519.86 796.312C519.588 795.816 519.212 795.432 518.732 795.16C518.252 794.872 517.692 794.728 517.052 794.728C516.412 794.728 515.844 794.872 515.348 795.16C514.868 795.432 514.492 795.824 514.22 796.336C513.948 796.832 513.812 797.424 513.812 798.112V798.688C513.812 799.392 513.964 800.016 514.268 800.56C514.588 801.088 515.028 801.496 515.588 801.784C516.164 802.056 516.836 802.192 517.604 802.192C518.292 802.192 518.892 802.088 519.404 801.88C519.932 801.672 520.412 801.36 520.844 800.944L522.836 803.104C522.244 803.776 521.5 804.296 520.604 804.664C519.708 805.016 518.676 805.192 517.508 805.192ZM532.001 805.192C530.609 805.192 529.369 804.912 528.281 804.352C527.193 803.776 526.337 802.984 525.713 801.976C525.105 800.968 524.801 799.824 524.801 798.544C524.801 797.248 525.105 796.104 525.713 795.112C526.337 794.104 527.193 793.32 528.281 792.76C529.369 792.184 530.609 791.896 532.001 791.896C533.361 791.896 534.545 792.184 535.553 792.76C536.561 793.32 537.305 794.128 537.785 795.184L534.881 796.744C534.545 796.136 534.121 795.688 533.609 795.4C533.113 795.112 532.569 794.968 531.977 794.968C531.337 794.968 530.761 795.112 530.249 795.4C529.737 795.688 529.329 796.096 529.025 796.624C528.737 797.152 528.593 797.792 528.593 798.544C528.593 799.296 528.737 799.936 529.025 800.464C529.329 800.992 529.737 801.4 530.249 801.688C530.761 801.976 531.337 802.12 531.977 802.12C532.569 802.12 533.113 801.984 533.609 801.712C534.121 801.424 534.545 800.968 534.881 800.344L537.785 801.928C537.305 802.968 536.561 803.776 535.553 804.352C534.545 804.912 533.361 805.192 532.001 805.192ZM539.39 805V792.088H543.134V805H539.39ZM541.262 790.288C540.574 790.288 540.014 790.088 539.582 789.688C539.15 789.288 538.934 788.792 538.934 788.2C538.934 787.608 539.15 787.112 539.582 786.712C540.014 786.312 540.574 786.112 541.262 786.112C541.95 786.112 542.51 786.304 542.942 786.688C543.374 787.056 543.59 787.536 543.59 788.128C543.59 788.752 543.374 789.272 542.942 789.688C542.526 790.088 541.966 790.288 541.262 790.288ZM550.473 805.192C549.369 805.192 548.305 805.064 547.281 804.808C546.273 804.536 545.473 804.2 544.881 803.8L546.129 801.112C546.721 801.48 547.417 801.784 548.217 802.024C549.033 802.248 549.833 802.36 550.617 802.36C551.481 802.36 552.089 802.256 552.441 802.048C552.809 801.84 552.993 801.552 552.993 801.184C552.993 800.88 552.849 800.656 552.561 800.512C552.289 800.352 551.921 800.232 551.457 800.152C550.993 800.072 550.481 799.992 549.921 799.912C549.377 799.832 548.825 799.728 548.265 799.6C547.705 799.456 547.193 799.248 546.729 798.976C546.265 798.704 545.889 798.336 545.601 797.872C545.329 797.408 545.193 796.808 545.193 796.072C545.193 795.256 545.425 794.536 545.889 793.912C546.369 793.288 547.057 792.8 547.953 792.448C548.849 792.08 549.921 791.896 551.169 791.896C552.049 791.896 552.945 791.992 553.857 792.184C554.769 792.376 555.529 792.656 556.137 793.024L554.889 795.688C554.265 795.32 553.633 795.072 552.993 794.944C552.369 794.8 551.761 794.728 551.169 794.728C550.337 794.728 549.729 794.84 549.345 795.064C548.961 795.288 548.769 795.576 548.769 795.928C548.769 796.248 548.905 796.488 549.177 796.648C549.465 796.808 549.841 796.936 550.305 797.032C550.769 797.128 551.273 797.216 551.817 797.296C552.377 797.36 552.937 797.464 553.497 797.608C554.057 797.752 554.561 797.96 555.009 798.232C555.473 798.488 555.849 798.848 556.137 799.312C556.425 799.76 556.569 800.352 556.569 801.088C556.569 801.888 556.329 802.6 555.849 803.224C555.369 803.832 554.673 804.312 553.761 804.664C552.865 805.016 551.769 805.192 550.473 805.192ZM558.399 805V792.088H562.143V805H558.399ZM560.271 790.288C559.583 790.288 559.023 790.088 558.591 789.688C558.159 789.288 557.943 788.792 557.943 788.2C557.943 787.608 558.159 787.112 558.591 786.712C559.023 786.312 559.583 786.112 560.271 786.112C560.959 786.112 561.519 786.304 561.951 786.688C562.383 787.056 562.599 787.536 562.599 788.128C562.599 788.752 562.383 789.272 561.951 789.688C561.535 790.088 560.975 790.288 560.271 790.288ZM571.282 805.192C569.906 805.192 568.682 804.904 567.61 804.328C566.554 803.752 565.714 802.968 565.09 801.976C564.482 800.968 564.178 799.824 564.178 798.544C564.178 797.248 564.482 796.104 565.09 795.112C565.714 794.104 566.554 793.32 567.61 792.76C568.682 792.184 569.906 791.896 571.282 791.896C572.642 791.896 573.858 792.184 574.93 792.76C576.002 793.32 576.842 794.096 577.45 795.088C578.058 796.08 578.362 797.232 578.362 798.544C578.362 799.824 578.058 800.968 577.45 801.976C576.842 802.968 576.002 803.752 574.93 804.328C573.858 804.904 572.642 805.192 571.282 805.192ZM571.282 802.12C571.906 802.12 572.466 801.976 572.962 801.688C573.458 801.4 573.85 800.992 574.138 800.464C574.426 799.92 574.57 799.28 574.57 798.544C574.57 797.792 574.426 797.152 574.138 796.624C573.85 796.096 573.458 795.688 572.962 795.4C572.466 795.112 571.906 794.968 571.282 794.968C570.658 794.968 570.098 795.112 569.602 795.4C569.106 795.688 568.706 796.096 568.402 796.624C568.114 797.152 567.97 797.792 567.97 798.544C567.97 799.28 568.114 799.92 568.402 800.464C568.706 800.992 569.106 801.4 569.602 801.688C570.098 801.976 570.658 802.12 571.282 802.12ZM588.232 791.896C589.256 791.896 590.168 792.104 590.968 792.52C591.784 792.92 592.424 793.544 592.888 794.392C593.352 795.224 593.584 796.296 593.584 797.608V805H589.84V798.184C589.84 797.144 589.608 796.376 589.144 795.88C588.696 795.384 588.056 795.136 587.224 795.136C586.632 795.136 586.096 795.264 585.616 795.52C585.152 795.76 584.784 796.136 584.512 796.648C584.256 797.16 584.128 797.816 584.128 798.616V805H580.384V792.088H583.96V795.664L583.288 794.584C583.752 793.72 584.416 793.056 585.28 792.592C586.144 792.128 587.128 791.896 588.232 791.896ZM603.079 805V788.2H606.295L613.447 800.056H611.743L618.775 788.2H621.967L622.015 805H618.367L618.343 793.792H619.015L613.399 803.224H611.647L605.911 793.792H606.727V805H603.079ZM633.177 805V802.48L632.937 801.928V797.416C632.937 796.616 632.689 795.992 632.193 795.544C631.713 795.096 630.969 794.872 629.961 794.872C629.273 794.872 628.593 794.984 627.921 795.208C627.265 795.416 626.705 795.704 626.241 796.072L624.897 793.456C625.601 792.96 626.449 792.576 627.441 792.304C628.433 792.032 629.441 791.896 630.465 791.896C632.433 791.896 633.961 792.36 635.049 793.288C636.137 794.216 636.681 795.664 636.681 797.632V805H633.177ZM629.241 805.192C628.233 805.192 627.369 805.024 626.649 804.688C625.929 804.336 625.377 803.864 624.993 803.272C624.609 802.68 624.417 802.016 624.417 801.28C624.417 800.512 624.601 799.84 624.969 799.264C625.353 798.688 625.953 798.24 626.769 797.92C627.585 797.584 628.649 797.416 629.961 797.416H633.393V799.6H630.369C629.489 799.6 628.881 799.744 628.545 800.032C628.225 800.32 628.065 800.68 628.065 801.112C628.065 801.592 628.249 801.976 628.617 802.264C629.001 802.536 629.521 802.672 630.177 802.672C630.801 802.672 631.361 802.528 631.857 802.24C632.353 801.936 632.713 801.496 632.937 800.92L633.513 802.648C633.241 803.48 632.745 804.112 632.025 804.544C631.305 804.976 630.377 805.192 629.241 805.192ZM642.685 802.36L642.781 797.8L648.805 792.088H653.269L647.485 797.968L645.541 799.552L642.685 802.36ZM639.589 805V787.192H643.333V805H639.589ZM649.213 805L644.845 799.576L647.197 796.672L653.749 805H649.213ZM654.953 805V792.088H658.697V805H654.953ZM656.825 790.288C656.137 790.288 655.577 790.088 655.145 789.688C654.713 789.288 654.497 788.792 654.497 788.2C654.497 787.608 654.713 787.112 655.145 786.712C655.577 786.312 656.137 786.112 656.825 786.112C657.513 786.112 658.073 786.304 658.505 786.688C658.937 787.056 659.153 787.536 659.153 788.128C659.153 788.752 658.937 789.272 658.505 789.688C658.089 790.088 657.529 790.288 656.825 790.288ZM669.54 791.896C670.564 791.896 671.476 792.104 672.276 792.52C673.092 792.92 673.732 793.544 674.196 794.392C674.66 795.224 674.892 796.296 674.892 797.608V805H671.148V798.184C671.148 797.144 670.916 796.376 670.452 795.88C670.004 795.384 669.364 795.136 668.532 795.136C667.94 795.136 667.404 795.264 666.924 795.52C666.46 795.76 666.092 796.136 665.82 796.648C665.564 797.16 665.436 797.816 665.436 798.616V805H661.692V792.088H665.268V795.664L664.596 794.584C665.06 793.72 665.724 793.056 666.588 792.592C667.452 792.128 668.436 791.896 669.54 791.896ZM683.971 809.848C682.755 809.848 681.579 809.696 680.443 809.392C679.323 809.104 678.387 808.664 677.635 808.072L679.123 805.384C679.667 805.832 680.355 806.184 681.187 806.44C682.035 806.712 682.867 806.848 683.683 806.848C685.011 806.848 685.971 806.552 686.563 805.96C687.171 805.368 687.475 804.488 687.475 803.32V801.376L687.715 798.136L687.667 794.872V792.088H691.219V802.84C691.219 805.24 690.595 807.008 689.347 808.144C688.099 809.28 686.307 809.848 683.971 809.848ZM683.395 804.376C682.195 804.376 681.107 804.12 680.131 803.608C679.171 803.08 678.395 802.352 677.803 801.424C677.227 800.48 676.939 799.384 676.939 798.136C676.939 796.872 677.227 795.776 677.803 794.848C678.395 793.904 679.171 793.176 680.131 792.664C681.107 792.152 682.195 791.896 683.395 791.896C684.483 791.896 685.443 792.12 686.275 792.568C687.107 793 687.755 793.68 688.219 794.608C688.683 795.52 688.915 796.696 688.915 798.136C688.915 799.56 688.683 800.736 688.219 801.664C687.755 802.576 687.107 803.256 686.275 803.704C685.443 804.152 684.483 804.376 683.395 804.376ZM684.139 801.304C684.795 801.304 685.379 801.176 685.891 800.92C686.403 800.648 686.803 800.272 687.091 799.792C687.379 799.312 687.523 798.76 687.523 798.136C687.523 797.496 687.379 796.944 687.091 796.48C686.803 796 686.403 795.632 685.891 795.376C685.379 795.104 684.795 794.968 684.139 794.968C683.483 794.968 682.899 795.104 682.387 795.376C681.875 795.632 681.467 796 681.163 796.48C680.875 796.944 680.731 797.496 680.731 798.136C680.731 798.76 680.875 799.312 681.163 799.792C681.467 800.272 681.875 800.648 682.387 800.92C682.899 801.176 683.483 801.304 684.139 801.304Z" fill="#ED6010"/>
<path d="M970.195 409V392.2H973.411L980.563 404.056H978.859L985.891 392.2H989.083L989.131 409H985.483L985.459 397.792H986.131L980.515 407.224H978.763L973.027 397.792H973.843V409H970.195ZM997.821 409.192C996.749 409.192 995.789 408.984 994.941 408.568C994.109 408.152 993.461 407.52 992.997 406.672C992.533 405.808 992.301 404.712 992.301 403.384V396.088H996.045V402.832C996.045 403.904 996.269 404.696 996.717 405.208C997.181 405.704 997.829 405.952 998.661 405.952C999.237 405.952 999.749 405.832 1000.2 405.592C1000.65 405.336 1001 404.952 1001.25 404.44C1001.51 403.912 1001.64 403.256 1001.64 402.472V396.088H1005.38V409H1001.83V405.448L1002.48 406.48C1002.05 407.376 1001.41 408.056 1000.56 408.52C999.725 408.968 998.813 409.192 997.821 409.192ZM1008.37 409V391.192H1012.11V409H1008.37ZM1021.35 409.192C1019.83 409.192 1018.65 408.808 1017.8 408.04C1016.95 407.256 1016.53 406.096 1016.53 404.56V393.232H1020.27V404.512C1020.27 405.056 1020.41 405.48 1020.7 405.784C1020.99 406.072 1021.38 406.216 1021.88 406.216C1022.47 406.216 1022.97 406.056 1023.39 405.736L1024.4 408.376C1024.01 408.648 1023.55 408.856 1023.01 409C1022.48 409.128 1021.93 409.192 1021.35 409.192ZM1014.53 399.256V396.376H1023.49V399.256H1014.53ZM1026.02 409V396.088H1029.76V409H1026.02ZM1027.89 394.288C1027.2 394.288 1026.64 394.088 1026.21 393.688C1025.78 393.288 1025.56 392.792 1025.56 392.2C1025.56 391.608 1025.78 391.112 1026.21 390.712C1026.64 390.312 1027.2 390.112 1027.89 390.112C1028.58 390.112 1029.14 390.304 1029.57 390.688C1030 391.056 1030.22 391.536 1030.22 392.128C1030.22 392.752 1030 393.272 1029.57 393.688C1029.16 394.088 1028.6 394.288 1027.89 394.288ZM1038.3 409.192C1037.09 409.192 1035.99 408.92 1035.01 408.376C1034.04 407.816 1033.26 407.04 1032.69 406.048C1032.13 405.056 1031.85 403.888 1031.85 402.544C1031.85 401.184 1032.13 400.008 1032.69 399.016C1033.26 398.024 1034.04 397.256 1035.01 396.712C1035.99 396.168 1037.09 395.896 1038.3 395.896C1039.39 395.896 1040.34 396.136 1041.16 396.616C1041.97 397.096 1042.61 397.824 1043.05 398.8C1043.5 399.776 1043.73 401.024 1043.73 402.544C1043.73 404.048 1043.51 405.296 1043.08 406.288C1042.65 407.264 1042.02 407.992 1041.21 408.472C1040.41 408.952 1039.44 409.192 1038.3 409.192ZM1038.95 406.12C1039.56 406.12 1040.11 405.976 1040.61 405.688C1041.1 405.4 1041.49 404.992 1041.78 404.464C1042.09 403.92 1042.24 403.28 1042.24 402.544C1042.24 401.792 1042.09 401.152 1041.78 400.624C1041.49 400.096 1041.1 399.688 1040.61 399.4C1040.11 399.112 1039.56 398.968 1038.95 398.968C1038.33 398.968 1037.77 399.112 1037.27 399.4C1036.77 399.688 1036.37 400.096 1036.07 400.624C1035.78 401.152 1035.64 401.792 1035.64 402.544C1035.64 403.28 1035.78 403.92 1036.07 404.464C1036.37 404.992 1036.77 405.4 1037.27 405.688C1037.77 405.976 1038.33 406.12 1038.95 406.12ZM1042.33 409V406.36L1042.41 402.52L1042.17 398.704V391.192H1045.91V409H1042.33ZM1048.9 409V396.088H1052.64V409H1048.9ZM1050.77 394.288C1050.08 394.288 1049.52 394.088 1049.09 393.688C1048.66 393.288 1048.44 392.792 1048.44 392.2C1048.44 391.608 1048.66 391.112 1049.09 390.712C1049.52 390.312 1050.08 390.112 1050.77 390.112C1051.46 390.112 1052.02 390.304 1052.45 390.688C1052.88 391.056 1053.1 391.536 1053.1 392.128C1053.1 392.752 1052.88 393.272 1052.45 393.688C1052.03 394.088 1051.47 394.288 1050.77 394.288ZM1059.98 409.192C1058.87 409.192 1057.81 409.064 1056.79 408.808C1055.78 408.536 1054.98 408.2 1054.39 407.8L1055.63 405.112C1056.23 405.48 1056.92 405.784 1057.72 406.024C1058.54 406.248 1059.34 406.36 1060.12 406.36C1060.99 406.36 1061.59 406.256 1061.95 406.048C1062.31 405.84 1062.5 405.552 1062.5 405.184C1062.5 404.88 1062.35 404.656 1062.07 404.512C1061.79 404.352 1061.43 404.232 1060.96 404.152C1060.5 404.072 1059.99 403.992 1059.43 403.912C1058.88 403.832 1058.33 403.728 1057.77 403.6C1057.21 403.456 1056.7 403.248 1056.23 402.976C1055.77 402.704 1055.39 402.336 1055.11 401.872C1054.83 401.408 1054.7 400.808 1054.7 400.072C1054.7 399.256 1054.93 398.536 1055.39 397.912C1055.87 397.288 1056.56 396.8 1057.46 396.448C1058.35 396.08 1059.43 395.896 1060.67 395.896C1061.55 395.896 1062.45 395.992 1063.36 396.184C1064.27 396.376 1065.03 396.656 1065.64 397.024L1064.39 399.688C1063.77 399.32 1063.14 399.072 1062.5 398.944C1061.87 398.8 1061.27 398.728 1060.67 398.728C1059.84 398.728 1059.23 398.84 1058.85 399.064C1058.47 399.288 1058.27 399.576 1058.27 399.928C1058.27 400.248 1058.41 400.488 1058.68 400.648C1058.97 400.808 1059.35 400.936 1059.81 401.032C1060.27 401.128 1060.78 401.216 1061.32 401.296C1061.88 401.36 1062.44 401.464 1063 401.608C1063.56 401.752 1064.07 401.96 1064.51 402.232C1064.98 402.488 1065.35 402.848 1065.64 403.312C1065.93 403.76 1066.07 404.352 1066.07 405.088C1066.07 405.888 1065.83 406.6 1065.35 407.224C1064.87 407.832 1064.18 408.312 1063.27 408.664C1062.37 409.016 1061.27 409.192 1059.98 409.192ZM1067.9 409V396.088H1071.65V409H1067.9ZM1069.78 394.288C1069.09 394.288 1068.53 394.088 1068.1 393.688C1067.66 393.288 1067.45 392.792 1067.45 392.2C1067.45 391.608 1067.66 391.112 1068.1 390.712C1068.53 390.312 1069.09 390.112 1069.78 390.112C1070.46 390.112 1071.02 390.304 1071.46 390.688C1071.89 391.056 1072.1 391.536 1072.1 392.128C1072.1 392.752 1071.89 393.272 1071.46 393.688C1071.04 394.088 1070.48 394.288 1069.78 394.288ZM1082.27 409.192C1081.19 409.192 1080.23 408.952 1079.42 408.472C1078.6 407.992 1077.96 407.264 1077.5 406.288C1077.05 405.296 1076.83 404.048 1076.83 402.544C1076.83 401.024 1077.04 399.776 1077.47 398.8C1077.91 397.824 1078.53 397.096 1079.35 396.616C1080.16 396.136 1081.14 395.896 1082.27 395.896C1083.49 395.896 1084.58 396.176 1085.54 396.736C1086.51 397.28 1087.28 398.048 1087.84 399.04C1088.42 400.032 1088.71 401.2 1088.71 402.544C1088.71 403.904 1088.42 405.08 1087.84 406.072C1087.28 407.064 1086.51 407.832 1085.54 408.376C1084.58 408.92 1083.49 409.192 1082.27 409.192ZM1074.64 413.656V396.088H1078.22V398.728L1078.15 402.568L1078.39 406.384V413.656H1074.64ZM1081.63 406.12C1082.25 406.12 1082.8 405.976 1083.28 405.688C1083.78 405.4 1084.17 404.992 1084.46 404.464C1084.76 403.92 1084.91 403.28 1084.91 402.544C1084.91 401.792 1084.76 401.152 1084.46 400.624C1084.17 400.096 1083.78 399.688 1083.28 399.4C1082.8 399.112 1082.25 398.968 1081.63 398.968C1081 398.968 1080.44 399.112 1079.95 399.4C1079.45 399.688 1079.06 400.096 1078.77 400.624C1078.48 401.152 1078.34 401.792 1078.34 402.544C1078.34 403.28 1078.48 403.92 1078.77 404.464C1079.06 404.992 1079.45 405.4 1079.95 405.688C1080.44 405.976 1081 406.12 1081.63 406.12ZM1090.73 409V391.192H1094.48V409H1090.73ZM1097.47 409V396.088H1101.22V409H1097.47ZM1099.34 394.288C1098.66 394.288 1098.1 394.088 1097.66 393.688C1097.23 393.288 1097.02 392.792 1097.02 392.2C1097.02 391.608 1097.23 391.112 1097.66 390.712C1098.1 390.312 1098.66 390.112 1099.34 390.112C1100.03 390.112 1100.59 390.304 1101.02 390.688C1101.46 391.056 1101.67 391.536 1101.67 392.128C1101.67 392.752 1101.46 393.272 1101.02 393.688C1100.61 394.088 1100.05 394.288 1099.34 394.288ZM1112.06 395.896C1113.08 395.896 1113.99 396.104 1114.79 396.52C1115.61 396.92 1116.25 397.544 1116.71 398.392C1117.18 399.224 1117.41 400.296 1117.41 401.608V409H1113.67V402.184C1113.67 401.144 1113.43 400.376 1112.97 399.88C1112.52 399.384 1111.88 399.136 1111.05 399.136C1110.46 399.136 1109.92 399.264 1109.44 399.52C1108.98 399.76 1108.61 400.136 1108.34 400.648C1108.08 401.16 1107.95 401.816 1107.95 402.616V409H1104.21V396.088H1107.79V399.664L1107.11 398.584C1107.58 397.72 1108.24 397.056 1109.11 396.592C1109.97 396.128 1110.95 395.896 1112.06 395.896ZM1128.24 409V406.48L1128 405.928V401.416C1128 400.616 1127.76 399.992 1127.26 399.544C1126.78 399.096 1126.04 398.872 1125.03 398.872C1124.34 398.872 1123.66 398.984 1122.99 399.208C1122.33 399.416 1121.77 399.704 1121.31 400.072L1119.96 397.456C1120.67 396.96 1121.52 396.576 1122.51 396.304C1123.5 396.032 1124.51 395.896 1125.53 395.896C1127.5 395.896 1129.03 396.36 1130.12 397.288C1131.2 398.216 1131.75 399.664 1131.75 401.632V409H1128.24ZM1124.31 409.192C1123.3 409.192 1122.44 409.024 1121.72 408.688C1121 408.336 1120.44 407.864 1120.06 407.272C1119.68 406.68 1119.48 406.016 1119.48 405.28C1119.48 404.512 1119.67 403.84 1120.04 403.264C1120.42 402.688 1121.02 402.24 1121.84 401.92C1122.65 401.584 1123.72 401.416 1125.03 401.416H1128.46V403.6H1125.44C1124.56 403.6 1123.95 403.744 1123.61 404.032C1123.29 404.32 1123.13 404.68 1123.13 405.112C1123.13 405.592 1123.32 405.976 1123.68 406.264C1124.07 406.536 1124.59 406.672 1125.24 406.672C1125.87 406.672 1126.43 406.528 1126.92 406.24C1127.42 405.936 1127.78 405.496 1128 404.92L1128.58 406.648C1128.31 407.48 1127.81 408.112 1127.09 408.544C1126.37 408.976 1125.44 409.192 1124.31 409.192ZM1134.66 409V396.088H1138.23V399.736L1137.73 398.68C1138.11 397.768 1138.73 397.08 1139.58 396.616C1140.42 396.136 1141.46 395.896 1142.67 395.896V399.352C1142.51 399.336 1142.37 399.328 1142.24 399.328C1142.11 399.312 1141.98 399.304 1141.83 399.304C1140.81 399.304 1139.98 399.6 1139.34 400.192C1138.71 400.768 1138.4 401.672 1138.4 402.904V409H1134.66ZM1146.5 413.848C1145.82 413.848 1145.16 413.744 1144.5 413.536C1143.85 413.328 1143.31 413.04 1142.9 412.672L1144.26 410.008C1144.55 410.264 1144.88 410.464 1145.25 410.608C1145.63 410.752 1146.01 410.824 1146.38 410.824C1146.9 410.824 1147.32 410.696 1147.62 410.44C1147.94 410.2 1148.23 409.792 1148.49 409.216L1149.16 407.632L1149.45 407.224L1154.08 396.088H1157.68L1151.85 409.792C1151.43 410.832 1150.95 411.648 1150.41 412.24C1149.88 412.832 1149.29 413.248 1148.63 413.488C1147.99 413.728 1147.28 413.848 1146.5 413.848ZM1148.7 409.504L1142.94 396.088H1146.81L1151.27 406.888L1148.7 409.504ZM994.607 438.288C993.311 438.288 992.103 438.08 990.983 437.664C989.879 437.232 988.919 436.624 988.103 435.84C987.287 435.056 986.647 434.136 986.183 433.08C985.735 432.024 985.511 430.864 985.511 429.6C985.511 428.336 985.735 427.176 986.183 426.12C986.647 425.064 987.287 424.144 988.103 423.36C988.935 422.576 989.903 421.976 991.007 421.56C992.111 421.128 993.319 420.912 994.631 420.912C996.087 420.912 997.399 421.168 998.567 421.68C999.751 422.176 1000.74 422.912 1001.54 423.888L999.047 426.192C998.471 425.536 997.831 425.048 997.127 424.728C996.423 424.392 995.655 424.224 994.823 424.224C994.039 424.224 993.319 424.352 992.663 424.608C992.007 424.864 991.439 425.232 990.959 425.712C990.479 426.192 990.103 426.76 989.831 427.416C989.575 428.072 989.447 428.8 989.447 429.6C989.447 430.4 989.575 431.128 989.831 431.784C990.103 432.44 990.479 433.008 990.959 433.488C991.439 433.968 992.007 434.336 992.663 434.592C993.319 434.848 994.039 434.976 994.823 434.976C995.655 434.976 996.423 434.816 997.127 434.496C997.831 434.16 998.471 433.656 999.047 432.984L1001.54 435.288C1000.74 436.264 999.751 437.008 998.567 437.52C997.399 438.032 996.079 438.288 994.607 438.288ZM1009.12 438.192C1007.75 438.192 1006.52 437.904 1005.45 437.328C1004.4 436.752 1003.56 435.968 1002.93 434.976C1002.32 433.968 1002.02 432.824 1002.02 431.544C1002.02 430.248 1002.32 429.104 1002.93 428.112C1003.56 427.104 1004.4 426.32 1005.45 425.76C1006.52 425.184 1007.75 424.896 1009.12 424.896C1010.48 424.896 1011.7 425.184 1012.77 425.76C1013.84 426.32 1014.68 427.096 1015.29 428.088C1015.9 429.08 1016.2 430.232 1016.2 431.544C1016.2 432.824 1015.9 433.968 1015.29 434.976C1014.68 435.968 1013.84 436.752 1012.77 437.328C1011.7 437.904 1010.48 438.192 1009.12 438.192ZM1009.12 435.12C1009.75 435.12 1010.31 434.976 1010.8 434.688C1011.3 434.4 1011.69 433.992 1011.98 433.464C1012.27 432.92 1012.41 432.28 1012.41 431.544C1012.41 430.792 1012.27 430.152 1011.98 429.624C1011.69 429.096 1011.3 428.688 1010.8 428.4C1010.31 428.112 1009.75 427.968 1009.12 427.968C1008.5 427.968 1007.94 428.112 1007.44 428.4C1006.95 428.688 1006.55 429.096 1006.24 429.624C1005.96 430.152 1005.81 430.792 1005.81 431.544C1005.81 432.28 1005.96 432.92 1006.24 433.464C1006.55 433.992 1006.95 434.4 1007.44 434.688C1007.94 434.976 1008.5 435.12 1009.12 435.12ZM1018.23 438V420.192H1021.97V438H1018.23ZM1024.96 438V420.192H1028.71V438H1024.96ZM1039.62 438V435.48L1039.38 434.928V430.416C1039.38 429.616 1039.14 428.992 1038.64 428.544C1038.16 428.096 1037.42 427.872 1036.41 427.872C1035.72 427.872 1035.04 427.984 1034.37 428.208C1033.71 428.416 1033.15 428.704 1032.69 429.072L1031.34 426.456C1032.05 425.96 1032.9 425.576 1033.89 425.304C1034.88 425.032 1035.89 424.896 1036.91 424.896C1038.88 424.896 1040.41 425.36 1041.5 426.288C1042.58 427.216 1043.13 428.664 1043.13 430.632V438H1039.62ZM1035.69 438.192C1034.68 438.192 1033.82 438.024 1033.1 437.688C1032.38 437.336 1031.82 436.864 1031.44 436.272C1031.06 435.68 1030.86 435.016 1030.86 434.28C1030.86 433.512 1031.05 432.84 1031.42 432.264C1031.8 431.688 1032.4 431.24 1033.22 430.92C1034.03 430.584 1035.1 430.416 1036.41 430.416H1039.84V432.6H1036.82C1035.94 432.6 1035.33 432.744 1034.99 433.032C1034.67 433.32 1034.51 433.68 1034.51 434.112C1034.51 434.592 1034.7 434.976 1035.06 435.264C1035.45 435.536 1035.97 435.672 1036.62 435.672C1037.25 435.672 1037.81 435.528 1038.3 435.24C1038.8 434.936 1039.16 434.496 1039.38 433.92L1039.96 435.648C1039.69 436.48 1039.19 437.112 1038.47 437.544C1037.75 437.976 1036.82 438.192 1035.69 438.192ZM1053.67 438.192C1052.53 438.192 1051.56 437.952 1050.74 437.472C1049.92 436.992 1049.3 436.264 1048.87 435.288C1048.44 434.296 1048.22 433.048 1048.22 431.544C1048.22 430.024 1048.44 428.776 1048.89 427.8C1049.36 426.824 1050 426.096 1050.81 425.616C1051.63 425.136 1052.58 424.896 1053.67 424.896C1054.88 424.896 1055.97 425.168 1056.93 425.712C1057.91 426.256 1058.68 427.024 1059.24 428.016C1059.81 429.008 1060.1 430.184 1060.1 431.544C1060.1 432.888 1059.81 434.056 1059.24 435.048C1058.68 436.04 1057.91 436.816 1056.93 437.376C1055.97 437.92 1054.88 438.192 1053.67 438.192ZM1046.04 438V420.192H1049.78V427.704L1049.54 431.52L1049.61 435.36V438H1046.04ZM1053.02 435.12C1053.64 435.12 1054.2 434.976 1054.68 434.688C1055.17 434.4 1055.56 433.992 1055.85 433.464C1056.16 432.92 1056.31 432.28 1056.31 431.544C1056.31 430.792 1056.16 430.152 1055.85 429.624C1055.56 429.096 1055.17 428.688 1054.68 428.4C1054.2 428.112 1053.64 427.968 1053.02 427.968C1052.4 427.968 1051.84 428.112 1051.34 428.4C1050.84 428.688 1050.45 429.096 1050.16 429.624C1049.88 430.152 1049.73 430.792 1049.73 431.544C1049.73 432.28 1049.88 432.92 1050.16 433.464C1050.45 433.992 1050.84 434.4 1051.34 434.688C1051.84 434.976 1052.4 435.12 1053.02 435.12ZM1068.27 438.192C1066.89 438.192 1065.67 437.904 1064.6 437.328C1063.54 436.752 1062.7 435.968 1062.08 434.976C1061.47 433.968 1061.17 432.824 1061.17 431.544C1061.17 430.248 1061.47 429.104 1062.08 428.112C1062.7 427.104 1063.54 426.32 1064.6 425.76C1065.67 425.184 1066.89 424.896 1068.27 424.896C1069.63 424.896 1070.85 425.184 1071.92 425.76C1072.99 426.32 1073.83 427.096 1074.44 428.088C1075.05 429.08 1075.35 430.232 1075.35 431.544C1075.35 432.824 1075.05 433.968 1074.44 434.976C1073.83 435.968 1072.99 436.752 1071.92 437.328C1070.85 437.904 1069.63 438.192 1068.27 438.192ZM1068.27 435.12C1068.89 435.12 1069.45 434.976 1069.95 434.688C1070.45 434.4 1070.84 433.992 1071.13 433.464C1071.41 432.92 1071.56 432.28 1071.56 431.544C1071.56 430.792 1071.41 430.152 1071.13 429.624C1070.84 429.096 1070.45 428.688 1069.95 428.4C1069.45 428.112 1068.89 427.968 1068.27 427.968C1067.65 427.968 1067.09 428.112 1066.59 428.4C1066.09 428.688 1065.69 429.096 1065.39 429.624C1065.1 430.152 1064.96 430.792 1064.96 431.544C1064.96 432.28 1065.1 432.92 1065.39 433.464C1065.69 433.992 1066.09 434.4 1066.59 434.688C1067.09 434.976 1067.65 435.12 1068.27 435.12ZM1077.37 438V425.088H1080.95V428.736L1080.44 427.68C1080.83 426.768 1081.44 426.08 1082.29 425.616C1083.14 425.136 1084.17 424.896 1085.39 424.896V428.352C1085.23 428.336 1085.08 428.328 1084.96 428.328C1084.83 428.312 1084.69 428.304 1084.55 428.304C1083.52 428.304 1082.69 428.6 1082.05 429.192C1081.43 429.768 1081.12 430.672 1081.12 431.904V438H1077.37ZM1094.21 438V435.48L1093.97 434.928V430.416C1093.97 429.616 1093.72 428.992 1093.23 428.544C1092.75 428.096 1092 427.872 1091 427.872C1090.31 427.872 1089.63 427.984 1088.96 428.208C1088.3 428.416 1087.74 428.704 1087.28 429.072L1085.93 426.456C1086.64 425.96 1087.48 425.576 1088.48 425.304C1089.47 425.032 1090.48 424.896 1091.5 424.896C1093.47 424.896 1095 425.36 1096.08 426.288C1097.17 427.216 1097.72 428.664 1097.72 430.632V438H1094.21ZM1090.28 438.192C1089.27 438.192 1088.4 438.024 1087.68 437.688C1086.96 437.336 1086.41 436.864 1086.03 436.272C1085.64 435.68 1085.45 435.016 1085.45 434.28C1085.45 433.512 1085.64 432.84 1086 432.264C1086.39 431.688 1086.99 431.24 1087.8 430.92C1088.62 430.584 1089.68 430.416 1091 430.416H1094.43V432.6H1091.4C1090.52 432.6 1089.92 432.744 1089.58 433.032C1089.26 433.32 1089.1 433.68 1089.1 434.112C1089.1 434.592 1089.28 434.976 1089.65 435.264C1090.04 435.536 1090.56 435.672 1091.21 435.672C1091.84 435.672 1092.4 435.528 1092.89 435.24C1093.39 434.936 1093.75 434.496 1093.97 433.92L1094.55 435.648C1094.28 436.48 1093.78 437.112 1093.06 437.544C1092.34 437.976 1091.41 438.192 1090.28 438.192ZM1105.9 438.192C1104.38 438.192 1103.2 437.808 1102.35 437.04C1101.5 436.256 1101.08 435.096 1101.08 433.56V422.232H1104.82V433.512C1104.82 434.056 1104.97 434.48 1105.26 434.784C1105.54 435.072 1105.94 435.216 1106.43 435.216C1107.02 435.216 1107.53 435.056 1107.94 434.736L1108.95 437.376C1108.57 437.648 1108.1 437.856 1107.56 438C1107.03 438.128 1106.48 438.192 1105.9 438.192ZM1099.09 428.256V425.376H1108.04V428.256H1099.09ZM1110.57 438V425.088H1114.32V438H1110.57ZM1112.45 423.288C1111.76 423.288 1111.2 423.088 1110.77 422.688C1110.33 422.288 1110.12 421.792 1110.12 421.2C1110.12 420.608 1110.33 420.112 1110.77 419.712C1111.2 419.312 1111.76 419.112 1112.45 419.112C1113.13 419.112 1113.69 419.304 1114.13 419.688C1114.56 420.056 1114.77 420.536 1114.77 421.128C1114.77 421.752 1114.56 422.272 1114.13 422.688C1113.71 423.088 1113.15 423.288 1112.45 423.288ZM1123.46 438.192C1122.08 438.192 1120.86 437.904 1119.78 437.328C1118.73 436.752 1117.89 435.968 1117.26 434.976C1116.66 433.968 1116.35 432.824 1116.35 431.544C1116.35 430.248 1116.66 429.104 1117.26 428.112C1117.89 427.104 1118.73 426.32 1119.78 425.76C1120.86 425.184 1122.08 424.896 1123.46 424.896C1124.82 424.896 1126.03 425.184 1127.1 425.76C1128.18 426.32 1129.02 427.096 1129.62 428.088C1130.23 429.08 1130.54 430.232 1130.54 431.544C1130.54 432.824 1130.23 433.968 1129.62 434.976C1129.02 435.968 1128.18 436.752 1127.1 437.328C1126.03 437.904 1124.82 438.192 1123.46 438.192ZM1123.46 435.12C1124.08 435.12 1124.64 434.976 1125.14 434.688C1125.63 434.4 1126.02 433.992 1126.31 433.464C1126.6 432.92 1126.74 432.28 1126.74 431.544C1126.74 430.792 1126.6 430.152 1126.31 429.624C1126.02 429.096 1125.63 428.688 1125.14 428.4C1124.64 428.112 1124.08 427.968 1123.46 427.968C1122.83 427.968 1122.27 428.112 1121.78 428.4C1121.28 428.688 1120.88 429.096 1120.58 429.624C1120.29 430.152 1120.14 430.792 1120.14 431.544C1120.14 432.28 1120.29 432.92 1120.58 433.464C1120.88 433.992 1121.28 434.4 1121.78 434.688C1122.27 434.976 1122.83 435.12 1123.46 435.12ZM1140.41 424.896C1141.43 424.896 1142.34 425.104 1143.14 425.52C1143.96 425.92 1144.6 426.544 1145.06 427.392C1145.53 428.224 1145.76 429.296 1145.76 430.608V438H1142.01V431.184C1142.01 430.144 1141.78 429.376 1141.32 428.88C1140.87 428.384 1140.23 428.136 1139.4 428.136C1138.81 428.136 1138.27 428.264 1137.79 428.52C1137.33 428.76 1136.96 429.136 1136.69 429.648C1136.43 430.16 1136.3 430.816 1136.3 431.616V438H1132.56V425.088H1136.13V428.664L1135.46 427.584C1135.93 426.72 1136.59 426.056 1137.45 425.592C1138.32 425.128 1139.3 424.896 1140.41 424.896Z" fill="#ED6010"/>
<path d="M7.63497 403.288C6.29097 403.288 5.00297 403.112 3.77097 402.76C2.53897 402.392 1.54697 401.92 0.794971 401.344L2.11497 398.416C2.83497 398.928 3.68297 399.352 4.65897 399.688C5.65097 400.008 6.65097 400.168 7.65897 400.168C8.42697 400.168 9.04297 400.096 9.50697 399.952C9.98697 399.792 10.339 399.576 10.563 399.304C10.787 399.032 10.899 398.72 10.899 398.368C10.899 397.92 10.723 397.568 10.371 397.312C10.019 397.04 9.55497 396.824 8.97897 396.664C8.40297 396.488 7.76297 396.328 7.05897 396.184C6.37097 396.024 5.67497 395.832 4.97097 395.608C4.28297 395.384 3.65097 395.096 3.07497 394.744C2.49897 394.392 2.02697 393.928 1.65897 393.352C1.30697 392.776 1.13097 392.04 1.13097 391.144C1.13097 390.184 1.38697 389.312 1.89897 388.528C2.42697 387.728 3.21097 387.096 4.25097 386.632C5.30697 386.152 6.62697 385.912 8.21097 385.912C9.26697 385.912 10.307 386.04 11.331 386.296C12.355 386.536 13.259 386.904 14.043 387.4L12.843 390.352C12.059 389.904 11.275 389.576 10.491 389.368C9.70697 389.144 8.93897 389.032 8.18697 389.032C7.43497 389.032 6.81897 389.12 6.33897 389.296C5.85897 389.472 5.51497 389.704 5.30697 389.992C5.09897 390.264 4.99497 390.584 4.99497 390.952C4.99497 391.384 5.17097 391.736 5.52297 392.008C5.87497 392.264 6.33897 392.472 6.91497 392.632C7.49097 392.792 8.12297 392.952 8.81097 393.112C9.51497 393.272 10.211 393.456 10.899 393.664C11.603 393.872 12.243 394.152 12.819 394.504C13.395 394.856 13.859 395.32 14.211 395.896C14.579 396.472 14.763 397.2 14.763 398.08C14.763 399.024 14.499 399.888 13.971 400.672C13.443 401.456 12.651 402.088 11.595 402.568C10.555 403.048 9.23497 403.288 7.63497 403.288ZM22.8197 403.192C21.4437 403.192 20.2197 402.904 19.1477 402.328C18.0917 401.752 17.2517 400.968 16.6277 399.976C16.0197 398.968 15.7157 397.824 15.7157 396.544C15.7157 395.248 16.0197 394.104 16.6277 393.112C17.2517 392.104 18.0917 391.32 19.1477 390.76C20.2197 390.184 21.4437 389.896 22.8197 389.896C24.1797 389.896 25.3957 390.184 26.4677 390.76C27.5397 391.32 28.3797 392.096 28.9877 393.088C29.5957 394.08 29.8997 395.232 29.8997 396.544C29.8997 397.824 29.5957 398.968 28.9877 399.976C28.3797 400.968 27.5397 401.752 26.4677 402.328C25.3957 402.904 24.1797 403.192 22.8197 403.192ZM22.8197 400.12C23.4437 400.12 24.0037 399.976 24.4997 399.688C24.9957 399.4 25.3877 398.992 25.6757 398.464C25.9637 397.92 26.1077 397.28 26.1077 396.544C26.1077 395.792 25.9637 395.152 25.6757 394.624C25.3877 394.096 24.9957 393.688 24.4997 393.4C24.0037 393.112 23.4437 392.968 22.8197 392.968C22.1957 392.968 21.6357 393.112 21.1397 393.4C20.6437 393.688 20.2437 394.096 19.9397 394.624C19.6517 395.152 19.5077 395.792 19.5077 396.544C19.5077 397.28 19.6517 397.92 19.9397 398.464C20.2437 398.992 20.6437 399.4 21.1397 399.688C21.6357 399.976 22.1957 400.12 22.8197 400.12ZM36.2662 403.192C35.1622 403.192 34.0982 403.064 33.0742 402.808C32.0662 402.536 31.2662 402.2 30.6742 401.8L31.9222 399.112C32.5142 399.48 33.2102 399.784 34.0102 400.024C34.8262 400.248 35.6262 400.36 36.4102 400.36C37.2742 400.36 37.8822 400.256 38.2342 400.048C38.6022 399.84 38.7862 399.552 38.7862 399.184C38.7862 398.88 38.6422 398.656 38.3542 398.512C38.0822 398.352 37.7142 398.232 37.2502 398.152C36.7862 398.072 36.2742 397.992 35.7142 397.912C35.1702 397.832 34.6182 397.728 34.0582 397.6C33.4982 397.456 32.9862 397.248 32.5222 396.976C32.0582 396.704 31.6822 396.336 31.3942 395.872C31.1222 395.408 30.9862 394.808 30.9862 394.072C30.9862 393.256 31.2182 392.536 31.6822 391.912C32.1622 391.288 32.8502 390.8 33.7462 390.448C34.6422 390.08 35.7142 389.896 36.9622 389.896C37.8422 389.896 38.7382 389.992 39.6502 390.184C40.5622 390.376 41.3222 390.656 41.9302 391.024L40.6822 393.688C40.0582 393.32 39.4262 393.072 38.7862 392.944C38.1622 392.8 37.5542 392.728 36.9622 392.728C36.1302 392.728 35.5222 392.84 35.1382 393.064C34.7542 393.288 34.5622 393.576 34.5622 393.928C34.5622 394.248 34.6982 394.488 34.9702 394.648C35.2582 394.808 35.6342 394.936 36.0982 395.032C36.5622 395.128 37.0662 395.216 37.6102 395.296C38.1702 395.36 38.7302 395.464 39.2902 395.608C39.8502 395.752 40.3542 395.96 40.8022 396.232C41.2662 396.488 41.6422 396.848 41.9302 397.312C42.2182 397.76 42.3622 398.352 42.3622 399.088C42.3622 399.888 42.1222 400.6 41.6422 401.224C41.1622 401.832 40.4662 402.312 39.5542 402.664C38.6582 403.016 37.5622 403.192 36.2662 403.192ZM44.1922 403V390.088H47.9362V403H44.1922ZM46.0642 388.288C45.3762 388.288 44.8162 388.088 44.3842 387.688C43.9522 387.288 43.7362 386.792 43.7362 386.2C43.7362 385.608 43.9522 385.112 44.3842 384.712C44.8162 384.312 45.3762 384.112 46.0642 384.112C46.7522 384.112 47.3122 384.304 47.7442 384.688C48.1762 385.056 48.3922 385.536 48.3922 386.128C48.3922 386.752 48.1762 387.272 47.7442 387.688C47.3282 388.088 46.7682 388.288 46.0642 388.288ZM57.075 403.192C55.699 403.192 54.475 402.904 53.403 402.328C52.347 401.752 51.507 400.968 50.883 399.976C50.275 398.968 49.971 397.824 49.971 396.544C49.971 395.248 50.275 394.104 50.883 393.112C51.507 392.104 52.347 391.32 53.403 390.76C54.475 390.184 55.699 389.896 57.075 389.896C58.435 389.896 59.651 390.184 60.723 390.76C61.795 391.32 62.635 392.096 63.243 393.088C63.851 394.08 64.155 395.232 64.155 396.544C64.155 397.824 63.851 398.968 63.243 399.976C62.635 400.968 61.795 401.752 60.723 402.328C59.651 402.904 58.435 403.192 57.075 403.192ZM57.075 400.12C57.699 400.12 58.259 399.976 58.755 399.688C59.251 399.4 59.643 398.992 59.931 398.464C60.219 397.92 60.363 397.28 60.363 396.544C60.363 395.792 60.219 395.152 59.931 394.624C59.643 394.096 59.251 393.688 58.755 393.4C58.259 393.112 57.699 392.968 57.075 392.968C56.451 392.968 55.891 393.112 55.395 393.4C54.899 393.688 54.499 394.096 54.195 394.624C53.907 395.152 53.763 395.792 53.763 396.544C53.763 397.28 53.907 397.92 54.195 398.464C54.499 398.992 54.899 399.4 55.395 399.688C55.891 399.976 56.451 400.12 57.075 400.12ZM65.9319 397.744V394.744H72.7239V397.744H65.9319ZM78.0431 403V389.368H72.6671V386.2H87.3071V389.368H81.9311V403H78.0431ZM88.3738 403V390.088H91.9498V393.736L91.4458 392.68C91.8298 391.768 92.4458 391.08 93.2938 390.616C94.1418 390.136 95.1738 389.896 96.3898 389.896V393.352C96.2298 393.336 96.0858 393.328 95.9578 393.328C95.8298 393.312 95.6938 393.304 95.5498 393.304C94.5258 393.304 93.6938 393.6 93.0538 394.192C92.4298 394.768 92.1178 395.672 92.1178 396.904V403H88.3738ZM105.212 403V400.48L104.972 399.928V395.416C104.972 394.616 104.724 393.992 104.228 393.544C103.748 393.096 103.004 392.872 101.996 392.872C101.308 392.872 100.628 392.984 99.9562 393.208C99.3002 393.416 98.7402 393.704 98.2762 394.072L96.9322 391.456C97.6362 390.96 98.4842 390.576 99.4762 390.304C100.468 390.032 101.476 389.896 102.5 389.896C104.468 389.896 105.996 390.36 107.084 391.288C108.172 392.216 108.716 393.664 108.716 395.632V403H105.212ZM101.276 403.192C100.268 403.192 99.4042 403.024 98.6842 402.688C97.9642 402.336 97.4122 401.864 97.0282 401.272C96.6442 400.68 96.4522 400.016 96.4522 399.28C96.4522 398.512 96.6362 397.84 97.0042 397.264C97.3882 396.688 97.9882 396.24 98.8042 395.92C99.6202 395.584 100.684 395.416 101.996 395.416H105.428V397.6H102.404C101.524 397.6 100.916 397.744 100.58 398.032C100.26 398.32 100.1 398.68 100.1 399.112C100.1 399.592 100.284 399.976 100.652 400.264C101.036 400.536 101.556 400.672 102.212 400.672C102.836 400.672 103.396 400.528 103.892 400.24C104.388 399.936 104.748 399.496 104.972 398.92L105.548 400.648C105.276 401.48 104.78 402.112 104.06 402.544C103.34 402.976 102.412 403.192 101.276 403.192ZM119.473 389.896C120.497 389.896 121.409 390.104 122.209 390.52C123.025 390.92 123.665 391.544 124.129 392.392C124.593 393.224 124.825 394.296 124.825 395.608V403H121.081V396.184C121.081 395.144 120.849 394.376 120.385 393.88C119.937 393.384 119.297 393.136 118.465 393.136C117.873 393.136 117.337 393.264 116.857 393.52C116.393 393.76 116.025 394.136 115.753 394.648C115.497 395.16 115.369 395.816 115.369 396.616V403H111.625V390.088H115.201V393.664L114.529 392.584C114.993 391.72 115.657 391.056 116.521 390.592C117.385 390.128 118.369 389.896 119.473 389.896ZM132.082 403.192C130.978 403.192 129.914 403.064 128.89 402.808C127.882 402.536 127.082 402.2 126.49 401.8L127.738 399.112C128.33 399.48 129.026 399.784 129.826 400.024C130.642 400.248 131.442 400.36 132.226 400.36C133.09 400.36 133.698 400.256 134.05 400.048C134.418 399.84 134.602 399.552 134.602 399.184C134.602 398.88 134.458 398.656 134.17 398.512C133.898 398.352 133.53 398.232 133.066 398.152C132.602 398.072 132.09 397.992 131.53 397.912C130.986 397.832 130.434 397.728 129.874 397.6C129.314 397.456 128.802 397.248 128.338 396.976C127.874 396.704 127.498 396.336 127.21 395.872C126.938 395.408 126.802 394.808 126.802 394.072C126.802 393.256 127.034 392.536 127.498 391.912C127.978 391.288 128.666 390.8 129.562 390.448C130.458 390.08 131.53 389.896 132.778 389.896C133.658 389.896 134.554 389.992 135.466 390.184C136.378 390.376 137.138 390.656 137.746 391.024L136.498 393.688C135.874 393.32 135.242 393.072 134.602 392.944C133.978 392.8 133.37 392.728 132.778 392.728C131.946 392.728 131.338 392.84 130.954 393.064C130.57 393.288 130.378 393.576 130.378 393.928C130.378 394.248 130.514 394.488 130.786 394.648C131.074 394.808 131.45 394.936 131.914 395.032C132.378 395.128 132.882 395.216 133.426 395.296C133.986 395.36 134.546 395.464 135.106 395.608C135.666 395.752 136.17 395.96 136.618 396.232C137.082 396.488 137.458 396.848 137.746 397.312C138.034 397.76 138.178 398.352 138.178 399.088C138.178 399.888 137.938 400.6 137.458 401.224C136.978 401.832 136.282 402.312 135.37 402.664C134.474 403.016 133.378 403.192 132.082 403.192ZM140.464 403V389.8C140.464 388.344 140.896 387.184 141.76 386.32C142.624 385.44 143.856 385 145.456 385C146 385 146.52 385.056 147.016 385.168C147.528 385.28 147.96 385.456 148.312 385.696L147.328 388.408C147.12 388.264 146.888 388.152 146.632 388.072C146.376 387.992 146.104 387.952 145.816 387.952C145.272 387.952 144.848 388.112 144.544 388.432C144.256 388.736 144.112 389.2 144.112 389.824V391.024L144.208 392.632V403H140.464ZM138.472 393.256V390.376H147.424V393.256H138.472ZM154.79 403.192C153.414 403.192 152.19 402.904 151.118 402.328C150.062 401.752 149.222 400.968 148.598 399.976C147.99 398.968 147.686 397.824 147.686 396.544C147.686 395.248 147.99 394.104 148.598 393.112C149.222 392.104 150.062 391.32 151.118 390.76C152.19 390.184 153.414 389.896 154.79 389.896C156.15 389.896 157.366 390.184 158.438 390.76C159.51 391.32 160.35 392.096 160.958 393.088C161.566 394.08 161.87 395.232 161.87 396.544C161.87 397.824 161.566 398.968 160.958 399.976C160.35 400.968 159.51 401.752 158.438 402.328C157.366 402.904 156.15 403.192 154.79 403.192ZM154.79 400.12C155.414 400.12 155.974 399.976 156.47 399.688C156.966 399.4 157.358 398.992 157.646 398.464C157.934 397.92 158.078 397.28 158.078 396.544C158.078 395.792 157.934 395.152 157.646 394.624C157.358 394.096 156.966 393.688 156.47 393.4C155.974 393.112 155.414 392.968 154.79 392.968C154.166 392.968 153.606 393.112 153.11 393.4C152.614 393.688 152.214 394.096 151.91 394.624C151.622 395.152 151.478 395.792 151.478 396.544C151.478 397.28 151.622 397.92 151.91 398.464C152.214 398.992 152.614 399.4 153.11 399.688C153.606 399.976 154.166 400.12 154.79 400.12ZM163.892 403V390.088H167.468V393.736L166.964 392.68C167.348 391.768 167.964 391.08 168.812 390.616C169.66 390.136 170.692 389.896 171.908 389.896V393.352C171.748 393.336 171.604 393.328 171.476 393.328C171.348 393.312 171.212 393.304 171.068 393.304C170.044 393.304 169.212 393.6 168.572 394.192C167.948 394.768 167.636 395.672 167.636 396.904V403H163.892ZM190.214 389.896C191.238 389.896 192.142 390.104 192.926 390.52C193.726 390.92 194.35 391.544 194.798 392.392C195.262 393.224 195.494 394.296 195.494 395.608V403H191.75V396.184C191.75 395.144 191.534 394.376 191.102 393.88C190.67 393.384 190.062 393.136 189.278 393.136C188.734 393.136 188.246 393.264 187.814 393.52C187.382 393.76 187.046 394.128 186.806 394.624C186.566 395.12 186.446 395.752 186.446 396.52V403H182.702V396.184C182.702 395.144 182.486 394.376 182.054 393.88C181.638 393.384 181.038 393.136 180.254 393.136C179.71 393.136 179.222 393.264 178.79 393.52C178.358 393.76 178.022 394.128 177.782 394.624C177.542 395.12 177.422 395.752 177.422 396.52V403H173.678V390.088H177.254V393.616L176.582 392.584C177.03 391.704 177.662 391.04 178.478 390.592C179.31 390.128 180.254 389.896 181.31 389.896C182.494 389.896 183.526 390.2 184.406 390.808C185.302 391.4 185.894 392.312 186.182 393.544L184.862 393.184C185.294 392.176 185.982 391.376 186.926 390.784C187.886 390.192 188.982 389.896 190.214 389.896ZM198.37 403V390.088H202.114V403H198.37ZM200.242 388.288C199.554 388.288 198.994 388.088 198.562 387.688C198.13 387.288 197.914 386.792 197.914 386.2C197.914 385.608 198.13 385.112 198.562 384.712C198.994 384.312 199.554 384.112 200.242 384.112C200.93 384.112 201.49 384.304 201.922 384.688C202.354 385.056 202.57 385.536 202.57 386.128C202.57 386.752 202.354 387.272 201.922 387.688C201.506 388.088 200.946 388.288 200.242 388.288ZM211.348 403.192C209.956 403.192 208.716 402.912 207.628 402.352C206.54 401.776 205.684 400.984 205.06 399.976C204.452 398.968 204.148 397.824 204.148 396.544C204.148 395.248 204.452 394.104 205.06 393.112C205.684 392.104 206.54 391.32 207.628 390.76C208.716 390.184 209.956 389.896 211.348 389.896C212.708 389.896 213.892 390.184 214.9 390.76C215.908 391.32 216.652 392.128 217.132 393.184L214.228 394.744C213.892 394.136 213.468 393.688 212.956 393.4C212.46 393.112 211.916 392.968 211.324 392.968C210.684 392.968 210.108 393.112 209.596 393.4C209.084 393.688 208.676 394.096 208.372 394.624C208.084 395.152 207.94 395.792 207.94 396.544C207.94 397.296 208.084 397.936 208.372 398.464C208.676 398.992 209.084 399.4 209.596 399.688C210.108 399.976 210.684 400.12 211.324 400.12C211.916 400.12 212.46 399.984 212.956 399.712C213.468 399.424 213.892 398.968 214.228 398.344L217.132 399.928C216.652 400.968 215.908 401.776 214.9 402.352C213.892 402.912 212.708 403.192 211.348 403.192ZM48.4233 432V415.2H55.6953C57.1993 415.2 58.4953 415.448 59.5833 415.944C60.6713 416.424 61.5113 417.12 62.1033 418.032C62.6953 418.944 62.9913 420.032 62.9913 421.296C62.9913 422.544 62.6953 423.624 62.1033 424.536C61.5113 425.432 60.6713 426.12 59.5833 426.6C58.4953 427.08 57.1993 427.32 55.6953 427.32H50.5833L52.3113 425.616V432H48.4233ZM59.1033 432L54.9033 425.904H59.0553L63.3033 432H59.1033ZM52.3113 426.048L50.5833 424.224H55.4793C56.6793 424.224 57.5753 423.968 58.1673 423.456C58.7593 422.928 59.0553 422.208 59.0553 421.296C59.0553 420.368 58.7593 419.648 58.1673 419.136C57.5753 418.624 56.6793 418.368 55.4793 418.368H50.5833L52.3113 416.52V426.048ZM71.7357 432.192C70.2637 432.192 68.9677 431.904 67.8477 431.328C66.7437 430.752 65.8877 429.968 65.2797 428.976C64.6717 427.968 64.3677 426.824 64.3677 425.544C64.3677 424.248 64.6637 423.104 65.2557 422.112C65.8637 421.104 66.6877 420.32 67.7277 419.76C68.7677 419.184 69.9437 418.896 71.2557 418.896C72.5197 418.896 73.6557 419.168 74.6637 419.712C75.6877 420.24 76.4957 421.008 77.0877 422.016C77.6797 423.008 77.9757 424.2 77.9757 425.592C77.9757 425.736 77.9677 425.904 77.9517 426.096C77.9357 426.272 77.9197 426.44 77.9037 426.6H67.4157V424.416H75.9357L74.4957 425.064C74.4957 424.392 74.3597 423.808 74.0877 423.312C73.8157 422.816 73.4397 422.432 72.9597 422.16C72.4797 421.872 71.9197 421.728 71.2797 421.728C70.6397 421.728 70.0717 421.872 69.5757 422.16C69.0957 422.432 68.7197 422.824 68.4477 423.336C68.1757 423.832 68.0397 424.424 68.0397 425.112V425.688C68.0397 426.392 68.1917 427.016 68.4957 427.56C68.8157 428.088 69.2557 428.496 69.8157 428.784C70.3917 429.056 71.0637 429.192 71.8317 429.192C72.5197 429.192 73.1197 429.088 73.6317 428.88C74.1597 428.672 74.6397 428.36 75.0717 427.944L77.0637 430.104C76.4717 430.776 75.7277 431.296 74.8317 431.664C73.9357 432.016 72.9037 432.192 71.7357 432.192ZM83.2579 432L77.8339 419.088H81.6979L86.2099 430.2H84.2899L88.9699 419.088H92.5699L87.1219 432H83.2579ZM99.4101 432.192C98.0341 432.192 96.8101 431.904 95.7381 431.328C94.6821 430.752 93.8421 429.968 93.2181 428.976C92.6101 427.968 92.3061 426.824 92.3061 425.544C92.3061 424.248 92.6101 423.104 93.2181 422.112C93.8421 421.104 94.6821 420.32 95.7381 419.76C96.8101 419.184 98.0341 418.896 99.4101 418.896C100.77 418.896 101.986 419.184 103.058 419.76C104.13 420.32 104.97 421.096 105.578 422.088C106.186 423.08 106.49 424.232 106.49 425.544C106.49 426.824 106.186 427.968 105.578 428.976C104.97 429.968 104.13 430.752 103.058 431.328C101.986 431.904 100.77 432.192 99.4101 432.192ZM99.4101 429.12C100.034 429.12 100.594 428.976 101.09 428.688C101.586 428.4 101.978 427.992 102.266 427.464C102.554 426.92 102.698 426.28 102.698 425.544C102.698 424.792 102.554 424.152 102.266 423.624C101.978 423.096 101.586 422.688 101.09 422.4C100.594 422.112 100.034 421.968 99.4101 421.968C98.7861 421.968 98.2261 422.112 97.7301 422.4C97.2341 422.688 96.8341 423.096 96.5301 423.624C96.2421 424.152 96.0981 424.792 96.0981 425.544C96.0981 426.28 96.2421 426.92 96.5301 427.464C96.8341 427.992 97.2341 428.4 97.7301 428.688C98.2261 428.976 98.7861 429.12 99.4101 429.12ZM108.513 432V414.192H112.257V432H108.513ZM120.699 432.192C119.627 432.192 118.667 431.984 117.819 431.568C116.987 431.152 116.339 430.52 115.875 429.672C115.411 428.808 115.179 427.712 115.179 426.384V419.088H118.923V425.832C118.923 426.904 119.147 427.696 119.595 428.208C120.059 428.704 120.707 428.952 121.539 428.952C122.115 428.952 122.627 428.832 123.075 428.592C123.523 428.336 123.875 427.952 124.131 427.44C124.387 426.912 124.515 426.256 124.515 425.472V419.088H128.259V432H124.707V428.448L125.355 429.48C124.923 430.376 124.283 431.056 123.435 431.52C122.603 431.968 121.691 432.192 120.699 432.192ZM136.528 432.192C135.008 432.192 133.824 431.808 132.976 431.04C132.128 430.256 131.704 429.096 131.704 427.56V416.232H135.448V427.512C135.448 428.056 135.592 428.48 135.88 428.784C136.168 429.072 136.56 429.216 137.056 429.216C137.648 429.216 138.152 429.056 138.568 428.736L139.576 431.376C139.192 431.648 138.728 431.856 138.184 432C137.656 432.128 137.104 432.192 136.528 432.192ZM129.712 422.256V419.376H138.664V422.256H129.712ZM141.198 432V419.088H144.942V432H141.198ZM143.07 417.288C142.382 417.288 141.822 417.088 141.39 416.688C140.958 416.288 140.742 415.792 140.742 415.2C140.742 414.608 140.958 414.112 141.39 413.712C141.822 413.312 142.382 413.112 143.07 413.112C143.758 413.112 144.318 413.304 144.75 413.688C145.182 414.056 145.398 414.536 145.398 415.128C145.398 415.752 145.182 416.272 144.75 416.688C144.334 417.088 143.774 417.288 143.07 417.288ZM154.08 432.192C152.704 432.192 151.48 431.904 150.408 431.328C149.352 430.752 148.512 429.968 147.888 428.976C147.28 427.968 146.976 426.824 146.976 425.544C146.976 424.248 147.28 423.104 147.888 422.112C148.512 421.104 149.352 420.32 150.408 419.76C151.48 419.184 152.704 418.896 154.08 418.896C155.44 418.896 156.656 419.184 157.728 419.76C158.8 420.32 159.64 421.096 160.248 422.088C160.856 423.08 161.16 424.232 161.16 425.544C161.16 426.824 160.856 427.968 160.248 428.976C159.64 429.968 158.8 430.752 157.728 431.328C156.656 431.904 155.44 432.192 154.08 432.192ZM154.08 429.12C154.704 429.12 155.264 428.976 155.76 428.688C156.256 428.4 156.648 427.992 156.936 427.464C157.224 426.92 157.368 426.28 157.368 425.544C157.368 424.792 157.224 424.152 156.936 423.624C156.648 423.096 156.256 422.688 155.76 422.4C155.264 422.112 154.704 421.968 154.08 421.968C153.456 421.968 152.896 422.112 152.4 422.4C151.904 422.688 151.504 423.096 151.2 423.624C150.912 424.152 150.768 424.792 150.768 425.544C150.768 426.28 150.912 426.92 151.2 427.464C151.504 427.992 151.904 428.4 152.4 428.688C152.896 428.976 153.456 429.12 154.08 429.12ZM171.031 418.896C172.055 418.896 172.967 419.104 173.767 419.52C174.583 419.92 175.223 420.544 175.687 421.392C176.151 422.224 176.383 423.296 176.383 424.608V432H172.639V425.184C172.639 424.144 172.407 423.376 171.943 422.88C171.495 422.384 170.855 422.136 170.023 422.136C169.431 422.136 168.895 422.264 168.415 422.52C167.951 422.76 167.583 423.136 167.311 423.648C167.055 424.16 166.927 424.816 166.927 425.616V432H163.183V419.088H166.759V422.664L166.087 421.584C166.551 420.72 167.215 420.056 168.079 419.592C168.943 419.128 169.927 418.896 171.031 418.896Z" fill="#ED6010"/>
<line x1="696" y1="408.5" x2="896" y2="408.5" stroke="black"/>
<circle cx="896" cy="409" r="10" fill="#ED6010"/>
<line x1="589.5" y1="528" x2="589.5" y2="728" stroke="black"/>
<circle cx="589" cy="728" r="10" transform="rotate(90 589 728)" fill="#ED6010"/>
<line x1="588.5" y1="287" x2="588.5" y2="87" stroke="black"/>
<circle cx="589" cy="87" r="10" transform="rotate(-90 589 87)" fill="#ED6010"/>
<line x1="468" y1="409.5" x2="268" y2="409.5" stroke="black"/>
<circle cx="268" cy="409" r="10" transform="rotate(-180 268 409)" fill="#ED6010"/>
<circle cx="671.192" cy="325.808" r="136.486" stroke="#060B81"/>
<circle cx="672.904" cy="324.096" r="165.596" stroke="#060B81"/>
<circle cx="506.808" cy="493.616" r="136.486" stroke="#060B81"/>
<circle cx="508.521" cy="491.904" r="165.596" stroke="#060B81"/>
<circle cx="503.384" cy="325.808" r="136.486" stroke="#060B81"/>
<circle cx="505.096" cy="324.096" r="165.596" stroke="#060B81"/>
<circle cx="671.192" cy="493.616" r="136.486" stroke="#060B81"/>
<circle cx="672.904" cy="491.904" r="165.596" stroke="#060B81"/>
</svg>
