<svg width="31" height="31" viewBox="0 0 31 31" fill="none" xmlns="http://www.w3.org/2000/svg">
<path d="M15.3514 14.2804C15.3294 14.2523 15.3014 14.2297 15.2694 14.2141C15.2375 14.1985 15.2024 14.1904 15.1668 14.1904C15.1312 14.1904 15.0961 14.1985 15.0641 14.2141C15.0322 14.2297 15.0041 14.2523 14.9822 14.2804L11.701 18.4317C11.6739 18.4663 11.6571 18.5077 11.6525 18.5514C11.6479 18.595 11.6557 18.639 11.675 18.6785C11.6942 18.7179 11.7242 18.7511 11.7614 18.7743C11.7986 18.7975 11.8417 18.8097 11.8855 18.8097H14.0506V25.9112C14.0506 26.0401 14.156 26.1456 14.285 26.1456H16.0428C16.1717 26.1456 16.2771 26.0401 16.2771 25.9112V18.8126H18.448C18.6443 18.8126 18.7527 18.587 18.6326 18.4347L15.3514 14.2804Z" fill="#005CBA"/>
<path d="M23.9382 11.5762C22.5964 8.03711 19.1775 5.52051 15.1726 5.52051C11.1677 5.52051 7.74878 8.03418 6.40698 11.5732C3.89624 12.2324 2.04175 14.5205 2.04175 17.2393C2.04175 20.4766 4.66382 23.0986 7.89819 23.0986H9.073C9.2019 23.0986 9.30737 22.9932 9.30737 22.8643V21.1064C9.30737 20.9775 9.2019 20.8721 9.073 20.8721H7.89819C6.91089 20.8721 5.98218 20.4795 5.29077 19.7676C4.60229 19.0586 4.23608 18.1035 4.26831 17.1133C4.29468 16.3398 4.55835 15.6133 5.03589 15.001C5.52515 14.377 6.21069 13.9229 6.97241 13.7207L8.08276 13.4307L8.48999 12.3584C8.74194 11.6904 9.09351 11.0664 9.53589 10.501C9.97262 9.94055 10.49 9.4479 11.071 9.03906C12.2751 8.19238 13.6931 7.74414 15.1726 7.74414C16.6521 7.74414 18.0701 8.19238 19.2742 9.03906C19.8572 9.44922 20.3728 9.94141 20.8093 10.501C21.2517 11.0664 21.6033 11.6934 21.8552 12.3584L22.2595 13.4277L23.3669 13.7207C24.9548 14.1484 26.0652 15.5928 26.0652 17.2393C26.0652 18.209 25.6873 19.123 25.0017 19.8086C24.6655 20.1468 24.2656 20.4149 23.825 20.5974C23.3845 20.78 22.9122 20.8733 22.4353 20.8721H21.2605C21.1316 20.8721 21.0261 20.9775 21.0261 21.1064V22.8643C21.0261 22.9932 21.1316 23.0986 21.2605 23.0986H22.4353C25.6697 23.0986 28.2917 20.4766 28.2917 17.2393C28.2917 14.5234 26.4431 12.2383 23.9382 11.5762Z" fill="#005CBA"/>
</svg>
