<svg width="674" height="291" viewBox="0 0 674 291" fill="none" xmlns="http://www.w3.org/2000/svg">
<path d="M442.053 90.4706L468 80.205L604.772 116.945L620.782 157.413L484.67 122.339L482.704 101.367L534.597 232.531L503.175 244.963L442.053 90.4706ZM442.566 194.059L477.558 180.214L509.451 168.973L540.636 156.635L555.045 193.056L457.446 231.67L442.566 194.059Z" fill="#005CBA"/>
<path d="M225.97 196.112C218.078 183.736 214.034 170.729 213.838 157.09C213.786 143.359 217.798 129.971 225.875 116.927C233.953 103.882 246.265 92.083 262.814 81.5303C279.362 70.9776 295.253 64.7909 310.488 62.9702C325.722 61.1495 339.481 63.2047 351.765 69.1357C364.192 74.975 374.352 84.0823 382.244 96.4576C390.227 108.977 394.199 122.03 394.159 135.617C394.355 149.256 390.415 162.598 382.338 175.643C374.261 188.688 361.948 200.486 345.4 211.039C328.851 221.592 312.96 227.778 297.726 229.599C282.491 231.42 268.66 229.41 256.233 223.571C244.041 217.784 233.953 208.631 225.97 196.112ZM255.541 177.254C259.303 183.154 264.216 187.207 270.278 189.414C276.432 191.764 283.887 191.868 292.642 189.727C301.489 187.729 311.596 183.105 322.964 175.856C334.332 168.607 342.787 161.393 348.331 154.214C353.966 147.18 357.016 140.377 357.481 133.806C358.037 127.378 356.435 121.215 352.672 115.315C349.002 109.559 344.089 105.506 337.935 103.155C331.873 100.949 324.418 100.845 315.571 102.843C306.817 104.985 296.755 109.68 285.387 116.929C274.019 124.179 265.518 131.32 259.883 138.355C254.339 145.533 251.29 152.336 250.733 158.763C250.268 165.335 251.87 171.499 255.541 177.254Z" fill="#005CBA"/>
<path d="M24.7787 179.245L31.2433 152.1L139.758 61.1003L182.094 71.1827L75.3225 162.598L57.0128 152.185L194.231 184.863L186.403 217.736L24.7787 179.245ZM109.947 238.212L118.665 201.604L127.739 169.028L135.508 136.405L173.611 145.479L149.294 247.583L109.947 238.212Z" fill="#005CBA"/>
</svg>
