<svg width="143" height="143" viewBox="0 0 143 143" fill="none" xmlns="http://www.w3.org/2000/svg">
<g filter="url(#filter0_d_379_3420)">
<rect x="15" y="5" width="112.5" height="112.5" rx="15" fill="url(#paint0_linear_379_3420)" shape-rendering="crispEdges"/>
<rect x="15.75" y="5.75" width="111" height="111" rx="14.25" stroke="url(#paint1_linear_379_3420)" stroke-width="1.5" shape-rendering="crispEdges"/>
</g>
<g filter="url(#filter1_f_379_3420)">
<circle cx="71.25" cy="65.75" r="51.75" fill="url(#paint2_radial_379_3420)" fill-opacity="0.5"/>
</g>
<g filter="url(#filter2_d_379_3420)">
<path d="M56.7656 38.6562H72.2344C72.707 38.6562 73.0938 39.043 73.0938 39.5156V43.8125H55.9062V39.5156C55.9062 39.043 56.293 38.6562 56.7656 38.6562ZM50.75 39.5156V43.8125H43.875C40.083 43.8125 37 46.8955 37 50.6875V61H57.625H74.8125H75.6934C79.1631 56.7998 84.4053 54.125 90.2812 54.125C90.8613 54.125 91.4307 54.1465 92 54.2002V50.6875C92 46.8955 88.917 43.8125 85.125 43.8125H78.25V39.5156C78.25 36.1963 75.5537 33.5 72.2344 33.5H56.7656C53.4463 33.5 50.75 36.1963 50.75 39.5156ZM71.375 71.3125H61.0625C59.1611 71.3125 57.625 69.7764 57.625 67.875V64.4375H37V78.1875C37 81.9795 40.083 85.0625 43.875 85.0625H75.6934C72.9971 81.7969 71.375 77.5967 71.375 73.0312C71.375 72.4512 71.3965 71.8818 71.4502 71.3125H71.375ZM105.75 73.0312C105.75 68.9287 104.12 64.9941 101.219 62.0932C98.3184 59.1922 94.3838 57.5625 90.2812 57.5625C86.1787 57.5625 82.2441 59.1922 79.3432 62.0932C76.4422 64.9941 74.8125 68.9287 74.8125 73.0312C74.8125 77.1338 76.4422 81.0684 79.3432 83.9693C82.2441 86.8703 86.1787 88.5 90.2812 88.5C94.3838 88.5 98.3184 86.8703 101.219 83.9693C104.12 81.0684 105.75 77.1338 105.75 73.0312ZM90.2812 64.4375C91.2266 64.4375 92 65.2109 92 66.1562V71.3125H95.4375C96.3828 71.3125 97.1562 72.0859 97.1562 73.0312C97.1562 73.9766 96.3828 74.75 95.4375 74.75H90.2812C89.3359 74.75 88.5625 73.9766 88.5625 73.0312V66.1562C88.5625 65.2109 89.3359 64.4375 90.2812 64.4375Z" fill="#FFC500"/>
</g>
<defs>
<filter id="filter0_d_379_3420" x="0" y="0" width="142.5" height="142.5" filterUnits="userSpaceOnUse" color-interpolation-filters="sRGB">
<feFlood flood-opacity="0" result="BackgroundImageFix"/>
<feColorMatrix in="SourceAlpha" type="matrix" values="0 0 0 0 0 0 0 0 0 0 0 0 0 0 0 0 0 0 127 0" result="hardAlpha"/>
<feMorphology radius="5" operator="erode" in="SourceAlpha" result="effect1_dropShadow_379_3420"/>
<feOffset dy="10"/>
<feGaussianBlur stdDeviation="10"/>
<feComposite in2="hardAlpha" operator="out"/>
<feColorMatrix type="matrix" values="0 0 0 0 1 0 0 0 0 0.772549 0 0 0 0 0 0 0 0 0.5 0"/>
<feBlend mode="normal" in2="BackgroundImageFix" result="effect1_dropShadow_379_3420"/>
<feBlend mode="normal" in="SourceGraphic" in2="effect1_dropShadow_379_3420" result="shape"/>
</filter>
<filter id="filter1_f_379_3420" x="13.5" y="8" width="115.5" height="115.5" filterUnits="userSpaceOnUse" color-interpolation-filters="sRGB">
<feFlood flood-opacity="0" result="BackgroundImageFix"/>
<feBlend mode="normal" in="SourceGraphic" in2="BackgroundImageFix" result="shape"/>
<feGaussianBlur stdDeviation="3" result="effect1_foregroundBlur_379_3420"/>
</filter>
<filter id="filter2_d_379_3420" x="22" y="28.5" width="98.75" height="85" filterUnits="userSpaceOnUse" color-interpolation-filters="sRGB">
<feFlood flood-opacity="0" result="BackgroundImageFix"/>
<feColorMatrix in="SourceAlpha" type="matrix" values="0 0 0 0 0 0 0 0 0 0 0 0 0 0 0 0 0 0 127 0" result="hardAlpha"/>
<feMorphology radius="5" operator="erode" in="SourceAlpha" result="effect1_dropShadow_379_3420"/>
<feOffset dy="10"/>
<feGaussianBlur stdDeviation="10"/>
<feComposite in2="hardAlpha" operator="out"/>
<feColorMatrix type="matrix" values="0 0 0 0 1 0 0 0 0 0.772549 0 0 0 0 0 0 0 0 0.5 0"/>
<feBlend mode="normal" in2="BackgroundImageFix" result="effect1_dropShadow_379_3420"/>
<feBlend mode="normal" in="SourceGraphic" in2="effect1_dropShadow_379_3420" result="shape"/>
</filter>
<linearGradient id="paint0_linear_379_3420" x1="33" y1="5" x2="110.25" y2="107.75" gradientUnits="userSpaceOnUse">
<stop stop-color="white" stop-opacity="0.2"/>
<stop offset="1" stop-color="white" stop-opacity="0.8"/>
</linearGradient>
<linearGradient id="paint1_linear_379_3420" x1="15" y1="5" x2="127.5" y2="123.5" gradientUnits="userSpaceOnUse">
<stop stop-color="white"/>
<stop offset="1" stop-color="white" stop-opacity="0.2"/>
</linearGradient>
<radialGradient id="paint2_radial_379_3420" cx="0" cy="0" r="1" gradientUnits="userSpaceOnUse" gradientTransform="translate(71.25 65.75) rotate(90) scale(51.75)">
<stop stop-color="white" stop-opacity="0.125"/>
<stop offset="0.333333" stop-color="white" stop-opacity="0"/>
<stop offset="1" stop-color="white"/>
</radialGradient>
</defs>
</svg>
