<svg width="143" height="143" viewBox="0 0 143 143" fill="none" xmlns="http://www.w3.org/2000/svg">
<g filter="url(#filter0_d_236_454)">
<rect x="15" y="5" width="112.5" height="112.5" rx="15" fill="url(#paint0_linear_236_454)" shape-rendering="crispEdges"/>
<rect x="15.75" y="5.75" width="111" height="111" rx="14.25" stroke="url(#paint1_linear_236_454)" stroke-width="1.5" shape-rendering="crispEdges"/>
</g>
<g filter="url(#filter1_f_236_454)">
<circle cx="71.25" cy="65.75" r="51.75" fill="url(#paint2_radial_236_454)" fill-opacity="0.5"/>
</g>
<g filter="url(#filter2_d_236_454)">
<path d="M52.5 35.75C52.5 33.6758 50.8242 32 48.75 32C46.6758 32 45 33.6758 45 35.75V39.5V75.125V88.25C45 90.3242 46.6758 92 48.75 92C50.8242 92 52.5 90.3242 52.5 88.25V73.25L60.0352 71.3633C64.8516 70.1562 69.9492 70.7188 74.3906 72.9336C79.5703 75.5234 85.582 75.8398 90.9961 73.8008L95.0625 72.2773C96.5273 71.7266 97.5 70.332 97.5 68.7617V39.7461C97.5 37.0508 94.6641 35.293 92.25 36.5L91.125 37.0625C85.6992 39.7812 79.3125 39.7812 73.8867 37.0625C69.7734 35 65.0508 34.4844 60.5859 35.5977L52.5 37.625V35.75Z" fill="url(#paint3_linear_236_454)"/>
</g>
<defs>
<filter id="filter0_d_236_454" x="0" y="0" width="142.5" height="142.5" filterUnits="userSpaceOnUse" color-interpolation-filters="sRGB">
<feFlood flood-opacity="0" result="BackgroundImageFix"/>
<feColorMatrix in="SourceAlpha" type="matrix" values="0 0 0 0 0 0 0 0 0 0 0 0 0 0 0 0 0 0 127 0" result="hardAlpha"/>
<feMorphology radius="5" operator="erode" in="SourceAlpha" result="effect1_dropShadow_236_454"/>
<feOffset dy="10"/>
<feGaussianBlur stdDeviation="10"/>
<feComposite in2="hardAlpha" operator="out"/>
<feColorMatrix type="matrix" values="0 0 0 0 1 0 0 0 0 0.772549 0 0 0 0 0 0 0 0 0.5 0"/>
<feBlend mode="normal" in2="BackgroundImageFix" result="effect1_dropShadow_236_454"/>
<feBlend mode="normal" in="SourceGraphic" in2="effect1_dropShadow_236_454" result="shape"/>
</filter>
<filter id="filter1_f_236_454" x="13.5" y="8" width="115.5" height="115.5" filterUnits="userSpaceOnUse" color-interpolation-filters="sRGB">
<feFlood flood-opacity="0" result="BackgroundImageFix"/>
<feBlend mode="normal" in="SourceGraphic" in2="BackgroundImageFix" result="shape"/>
<feGaussianBlur stdDeviation="3" result="effect1_foregroundBlur_236_454"/>
</filter>
<filter id="filter2_d_236_454" x="30" y="27" width="82.5" height="90" filterUnits="userSpaceOnUse" color-interpolation-filters="sRGB">
<feFlood flood-opacity="0" result="BackgroundImageFix"/>
<feColorMatrix in="SourceAlpha" type="matrix" values="0 0 0 0 0 0 0 0 0 0 0 0 0 0 0 0 0 0 127 0" result="hardAlpha"/>
<feMorphology radius="5" operator="erode" in="SourceAlpha" result="effect1_dropShadow_236_454"/>
<feOffset dy="10"/>
<feGaussianBlur stdDeviation="10"/>
<feComposite in2="hardAlpha" operator="out"/>
<feColorMatrix type="matrix" values="0 0 0 0 1 0 0 0 0 0.772549 0 0 0 0 0 0 0 0 0.5 0"/>
<feBlend mode="normal" in2="BackgroundImageFix" result="effect1_dropShadow_236_454"/>
<feBlend mode="normal" in="SourceGraphic" in2="effect1_dropShadow_236_454" result="shape"/>
</filter>
<linearGradient id="paint0_linear_236_454" x1="33" y1="5" x2="110.25" y2="107.75" gradientUnits="userSpaceOnUse">
<stop stop-color="white" stop-opacity="0.2"/>
<stop offset="1" stop-color="white" stop-opacity="0.8"/>
</linearGradient>
<linearGradient id="paint1_linear_236_454" x1="15" y1="5" x2="127.5" y2="123.5" gradientUnits="userSpaceOnUse">
<stop stop-color="white"/>
<stop offset="1" stop-color="white" stop-opacity="0.2"/>
</linearGradient>
<radialGradient id="paint2_radial_236_454" cx="0" cy="0" r="1" gradientUnits="userSpaceOnUse" gradientTransform="translate(71.25 65.75) rotate(90) scale(51.75)">
<stop stop-color="white" stop-opacity="0.125"/>
<stop offset="0.333333" stop-color="white" stop-opacity="0"/>
<stop offset="1" stop-color="white"/>
</radialGradient>
<linearGradient id="paint3_linear_236_454" x1="71.25" y1="32" x2="71.25" y2="92" gradientUnits="userSpaceOnUse">
<stop stop-color="#F8DB25"/>
<stop offset="1" stop-color="#FFC500"/>
</linearGradient>
</defs>
</svg>
