<svg width="158" height="158" viewBox="0 0 158 158" fill="none" xmlns="http://www.w3.org/2000/svg">
<g filter="url(#filter0_d_379_3419)">
<rect x="22.75" y="8" width="112.5" height="112.5" rx="15" fill="url(#paint0_linear_379_3419)" shape-rendering="crispEdges"/>
<rect x="23.5" y="8.75" width="111" height="111" rx="14.25" stroke="url(#paint1_linear_379_3419)" stroke-width="1.5" shape-rendering="crispEdges"/>
</g>
<g filter="url(#filter1_f_379_3419)">
<circle cx="79" cy="68.75" r="51.75" fill="url(#paint2_radial_379_3419)" fill-opacity="0.5"/>
</g>
<g filter="url(#filter2_d_379_3419)">
<path d="M68.0938 34.0469C68.0938 32.3584 66.7354 31 65.0469 31C63.3584 31 62 32.3584 62 34.0469V39.125C57.5186 39.125 53.875 42.7686 53.875 47.25H48.7969C47.1084 47.25 45.75 48.6084 45.75 50.2969C45.75 51.9854 47.1084 53.3438 48.7969 53.3438H53.875V60.4531H48.7969C47.1084 60.4531 45.75 61.8115 45.75 63.5C45.75 65.1885 47.1084 66.5469 48.7969 66.5469H53.875V73.6562H48.7969C47.1084 73.6562 45.75 75.0146 45.75 76.7031C45.75 78.3916 47.1084 79.75 48.7969 79.75H53.875C53.875 84.2314 57.5186 87.875 62 87.875V92.9531C62 94.6416 63.3584 96 65.0469 96C66.7354 96 68.0938 94.6416 68.0938 92.9531V87.875H75.2031V92.9531C75.2031 94.6416 76.5615 96 78.25 96C79.9385 96 81.2969 94.6416 81.2969 92.9531V87.875H88.4062V92.9531C88.4062 94.6416 89.7646 96 91.4531 96C93.1416 96 94.5 94.6416 94.5 92.9531V87.875C98.9814 87.875 102.625 84.2314 102.625 79.75H107.703C109.392 79.75 110.75 78.3916 110.75 76.7031C110.75 75.0146 109.392 73.6562 107.703 73.6562H102.625V66.5469H107.703C109.392 66.5469 110.75 65.1885 110.75 63.5C110.75 61.8115 109.392 60.4531 107.703 60.4531H102.625V53.3438H107.703C109.392 53.3438 110.75 51.9854 110.75 50.2969C110.75 48.6084 109.392 47.25 107.703 47.25H102.625C102.625 42.7686 98.9814 39.125 94.5 39.125V34.0469C94.5 32.3584 93.1416 31 91.4531 31C89.7646 31 88.4062 32.3584 88.4062 34.0469V39.125H81.2969V34.0469C81.2969 32.3584 79.9385 31 78.25 31C76.5615 31 75.2031 32.3584 75.2031 34.0469V39.125H68.0938V34.0469ZM66.0625 47.25H90.4375C92.6846 47.25 94.5 49.0654 94.5 51.3125V75.6875C94.5 77.9346 92.6846 79.75 90.4375 79.75H66.0625C63.8154 79.75 62 77.9346 62 75.6875V51.3125C62 49.0654 63.8154 47.25 66.0625 47.25ZM90.4375 51.3125H66.0625V75.6875H90.4375V51.3125Z" fill="#005CBA"/>
</g>
<defs>
<filter id="filter0_d_379_3419" x="0.25" y="0.5" width="157.5" height="157.5" filterUnits="userSpaceOnUse" color-interpolation-filters="sRGB">
<feFlood flood-opacity="0" result="BackgroundImageFix"/>
<feColorMatrix in="SourceAlpha" type="matrix" values="0 0 0 0 0 0 0 0 0 0 0 0 0 0 0 0 0 0 127 0" result="hardAlpha"/>
<feMorphology radius="7.5" operator="erode" in="SourceAlpha" result="effect1_dropShadow_379_3419"/>
<feOffset dy="15"/>
<feGaussianBlur stdDeviation="15"/>
<feComposite in2="hardAlpha" operator="out"/>
<feColorMatrix type="matrix" values="0 0 0 0 0 0 0 0 0 0.360784 0 0 0 0 0.729412 0 0 0 0.5 0"/>
<feBlend mode="normal" in2="BackgroundImageFix" result="effect1_dropShadow_379_3419"/>
<feBlend mode="normal" in="SourceGraphic" in2="effect1_dropShadow_379_3419" result="shape"/>
</filter>
<filter id="filter1_f_379_3419" x="21.25" y="11" width="115.5" height="115.5" filterUnits="userSpaceOnUse" color-interpolation-filters="sRGB">
<feFlood flood-opacity="0" result="BackgroundImageFix"/>
<feBlend mode="normal" in="SourceGraphic" in2="BackgroundImageFix" result="shape"/>
<feGaussianBlur stdDeviation="3" result="effect1_foregroundBlur_379_3419"/>
</filter>
<filter id="filter2_d_379_3419" x="30.75" y="26" width="95" height="95" filterUnits="userSpaceOnUse" color-interpolation-filters="sRGB">
<feFlood flood-opacity="0" result="BackgroundImageFix"/>
<feColorMatrix in="SourceAlpha" type="matrix" values="0 0 0 0 0 0 0 0 0 0 0 0 0 0 0 0 0 0 127 0" result="hardAlpha"/>
<feMorphology radius="5" operator="erode" in="SourceAlpha" result="effect1_dropShadow_379_3419"/>
<feOffset dy="10"/>
<feGaussianBlur stdDeviation="10"/>
<feComposite in2="hardAlpha" operator="out"/>
<feColorMatrix type="matrix" values="0 0 0 0 0 0 0 0 0 0.360784 0 0 0 0 0.729412 0 0 0 0.5 0"/>
<feBlend mode="normal" in2="BackgroundImageFix" result="effect1_dropShadow_379_3419"/>
<feBlend mode="normal" in="SourceGraphic" in2="effect1_dropShadow_379_3419" result="shape"/>
</filter>
<linearGradient id="paint0_linear_379_3419" x1="40.75" y1="8" x2="118" y2="110.75" gradientUnits="userSpaceOnUse">
<stop stop-color="white" stop-opacity="0.2"/>
<stop offset="1" stop-color="white" stop-opacity="0.8"/>
</linearGradient>
<linearGradient id="paint1_linear_379_3419" x1="22.75" y1="8" x2="135.25" y2="126.5" gradientUnits="userSpaceOnUse">
<stop stop-color="white"/>
<stop offset="1" stop-color="white" stop-opacity="0.2"/>
</linearGradient>
<radialGradient id="paint2_radial_379_3419" cx="0" cy="0" r="1" gradientUnits="userSpaceOnUse" gradientTransform="translate(79 68.75) rotate(90) scale(51.75)">
<stop stop-color="white" stop-opacity="0.125"/>
<stop offset="0.333333" stop-color="white" stop-opacity="0"/>
<stop offset="1" stop-color="white"/>
</radialGradient>
</defs>
</svg>
