<svg width="25" height="20" viewBox="0 0 25 20" fill="none" xmlns="http://www.w3.org/2000/svg">
<path d="M7.1875 1.875H12.8125C12.9844 1.875 13.125 2.01562 13.125 2.1875V3.75H6.875V2.1875C6.875 2.01562 7.01562 1.875 7.1875 1.875ZM5 2.1875V3.75H2.5C1.12109 3.75 0 4.87109 0 6.25V10H7.5H13.75H14.0703C15.332 8.47266 17.2383 7.5 19.375 7.5C19.5859 7.5 19.793 7.50781 20 7.52734V6.25C20 4.87109 18.8789 3.75 17.5 3.75H15V2.1875C15 0.980469 14.0195 0 12.8125 0H7.1875C5.98047 0 5 0.980469 5 2.1875ZM12.5 13.75H8.75C8.05859 13.75 7.5 13.1914 7.5 12.5V11.25H0V16.25C0 17.6289 1.12109 18.75 2.5 18.75H14.0703C13.0898 17.5625 12.5 16.0352 12.5 14.375C12.5 14.1641 12.5078 13.957 12.5273 13.75H12.5ZM25 14.375C25 12.8832 24.4074 11.4524 23.3525 10.3975C22.2976 9.34263 20.8668 8.75 19.375 8.75C17.8832 8.75 16.4524 9.34263 15.3975 10.3975C14.3426 11.4524 13.75 12.8832 13.75 14.375C13.75 15.8668 14.3426 17.2976 15.3975 18.3525C16.4524 19.4074 17.8832 20 19.375 20C20.8668 20 22.2976 19.4074 23.3525 18.3525C24.4074 17.2976 25 15.8668 25 14.375ZM19.375 11.25C19.7188 11.25 20 11.5312 20 11.875V13.75H21.25C21.5938 13.75 21.875 14.0312 21.875 14.375C21.875 14.7188 21.5938 15 21.25 15H19.375C19.0312 15 18.75 14.7188 18.75 14.375V11.875C18.75 11.5312 19.0312 11.25 19.375 11.25Z" fill="#4F9BFD"/>
</svg>
