<svg width="24" height="28" viewBox="0 0 24 28" fill="none" xmlns="http://www.w3.org/2000/svg">
<path d="M22.7977 5.62439L17.5946 0.421267C17.3963 0.227999 17.13 0.120526 16.8531 0.122087H6.44687C5.89489 0.122087 5.36552 0.341361 4.97521 0.731671C4.5849 1.12198 4.36562 1.65136 4.36562 2.20334V4.28459H2.28437C1.73239 4.28459 1.20302 4.50386 0.812709 4.89417C0.422399 5.28448 0.203125 5.81386 0.203125 6.36584V25.0971C0.203125 25.6491 0.422399 26.1784 0.812709 26.5688C1.20302 26.9591 1.73239 27.1783 2.28437 27.1783H16.8531C17.4051 27.1783 17.9345 26.9591 18.3248 26.5688C18.7151 26.1784 18.9344 25.6491 18.9344 25.0971V23.0158H21.0156C21.5676 23.0158 22.097 22.7966 22.4873 22.4063C22.8776 22.0159 23.0969 21.4866 23.0969 20.9346V6.36584C23.0984 6.08898 22.991 5.82263 22.7977 5.62439ZM16.8531 25.0971H2.28437V6.36584H12.2614L16.8531 10.9576V25.0971ZM21.0156 20.9346H18.9344V10.5283C18.9359 10.2515 18.8285 9.98513 18.6352 9.78689L13.4321 4.58377C13.2338 4.3905 12.9675 4.28303 12.6906 4.28459H6.44687V2.20334H16.4239L21.0156 6.7951V20.9346ZM13.7312 16.7721C13.7312 17.0481 13.6216 17.3128 13.4265 17.5079C13.2313 17.7031 12.9666 17.8127 12.6906 17.8127H6.44687C6.17088 17.8127 5.9062 17.7031 5.71104 17.5079C5.51589 17.3128 5.40625 17.0481 5.40625 16.7721C5.40625 16.4961 5.51589 16.2314 5.71104 16.0363C5.9062 15.8411 6.17088 15.7315 6.44687 15.7315H12.6906C12.9666 15.7315 13.2313 15.8411 13.4265 16.0363C13.6216 16.2314 13.7312 16.4961 13.7312 16.7721ZM13.7312 20.9346C13.7312 21.2106 13.6216 21.4753 13.4265 21.6704C13.2313 21.8656 12.9666 21.9752 12.6906 21.9752H6.44687C6.17088 21.9752 5.9062 21.8656 5.71104 21.6704C5.51589 21.4753 5.40625 21.2106 5.40625 20.9346C5.40625 20.6586 5.51589 20.3939 5.71104 20.1988C5.9062 20.0036 6.17088 19.894 6.44687 19.894H12.6906C12.9666 19.894 13.2313 20.0036 13.4265 20.1988C13.6216 20.3939 13.7312 20.6586 13.7312 20.9346Z" fill="#1B8E27"/>
</svg>
