<svg width="462" height="462" viewBox="0 0 462 462" fill="none" xmlns="http://www.w3.org/2000/svg">
<g filter="url(#filter0_d_438_4239)">
<g filter="url(#filter1_d_438_4239)">
<circle cx="230.594" cy="230.594" r="178.594" fill="#FCFCFC"/>
</g>
<g clip-path="url(#clip0_438_4239)">
<path d="M204.508 130.223C204.508 125.839 200.981 122.312 196.598 122.312C192.214 122.312 188.688 125.839 188.688 130.223V143.406C177.053 143.406 167.594 152.865 167.594 164.5H154.41C150.027 164.5 146.5 168.027 146.5 172.41C146.5 176.794 150.027 180.32 154.41 180.32H167.594V198.777H154.41C150.027 198.777 146.5 202.304 146.5 206.688C146.5 211.071 150.027 214.598 154.41 214.598H167.594V233.055H154.41C150.027 233.055 146.5 236.581 146.5 240.965C146.5 245.348 150.027 248.875 154.41 248.875H167.594C167.594 260.51 177.053 269.969 188.688 269.969V283.152C188.688 287.536 192.214 291.062 196.598 291.062C200.981 291.062 204.508 287.536 204.508 283.152V269.969H222.965V283.152C222.965 287.536 226.491 291.062 230.875 291.062C235.259 291.062 238.785 287.536 238.785 283.152V269.969H257.242V283.152C257.242 287.536 260.769 291.062 265.152 291.062C269.536 291.062 273.062 287.536 273.062 283.152V269.969C284.697 269.969 294.156 260.51 294.156 248.875H307.34C311.723 248.875 315.25 245.348 315.25 240.965C315.25 236.581 311.723 233.055 307.34 233.055H294.156V214.598H307.34C311.723 214.598 315.25 211.071 315.25 206.688C315.25 202.304 311.723 198.777 307.34 198.777H294.156V180.32H307.34C311.723 180.32 315.25 176.794 315.25 172.41C315.25 168.027 311.723 164.5 307.34 164.5H294.156C294.156 152.865 284.697 143.406 273.062 143.406V130.223C273.062 125.839 269.536 122.312 265.152 122.312C260.769 122.312 257.242 125.839 257.242 130.223V143.406H238.785V130.223C238.785 125.839 235.259 122.312 230.875 122.312C226.491 122.312 222.965 125.839 222.965 130.223V143.406H204.508V130.223ZM199.234 164.5H262.516C268.349 164.5 273.062 169.213 273.062 175.047V238.328C273.062 244.162 268.349 248.875 262.516 248.875H199.234C193.401 248.875 188.688 244.162 188.688 238.328V175.047C188.688 169.213 193.401 164.5 199.234 164.5ZM262.516 175.047H199.234V238.328H262.516V175.047Z" fill="#BBD578"/>
</g>
<path d="M158.992 336.188V324.685H154.456V322.012H166.809V324.685H162.273V336.188H158.992ZM171.996 327.723H178.82V330.274H171.996V327.723ZM172.239 333.555H179.954V336.188H168.979V322.012H179.691V324.645H172.239V333.555ZM189.753 336.431C188.66 336.431 187.64 336.255 186.695 335.904C185.764 335.539 184.954 335.026 184.265 334.365C183.577 333.703 183.037 332.927 182.645 332.036C182.267 331.145 182.078 330.166 182.078 329.1C182.078 328.033 182.267 327.055 182.645 326.164C183.037 325.273 183.577 324.496 184.265 323.835C184.967 323.173 185.784 322.667 186.716 322.316C187.647 321.952 188.666 321.769 189.773 321.769C191.002 321.769 192.109 321.985 193.094 322.417C194.093 322.836 194.93 323.457 195.605 324.281L193.499 326.224C193.013 325.671 192.473 325.259 191.879 324.989C191.285 324.706 190.637 324.564 189.935 324.564C189.274 324.564 188.666 324.672 188.113 324.888C187.559 325.104 187.08 325.414 186.675 325.819C186.27 326.224 185.953 326.704 185.723 327.257C185.507 327.811 185.399 328.425 185.399 329.1C185.399 329.775 185.507 330.389 185.723 330.943C185.953 331.496 186.27 331.975 186.675 332.38C187.08 332.785 187.559 333.096 188.113 333.312C188.666 333.528 189.274 333.636 189.935 333.636C190.637 333.636 191.285 333.501 191.879 333.231C192.473 332.947 193.013 332.522 193.499 331.955L195.605 333.899C194.93 334.723 194.093 335.35 193.094 335.782C192.109 336.214 190.995 336.431 189.753 336.431ZM207.946 322.012H211.226V336.188H207.946V322.012ZM201.506 336.188H198.226V322.012H201.506V336.188ZM208.189 330.376H201.263V327.601H208.189V330.376ZM214.985 336.188V322.012H217.698L226.062 332.218H224.745V322.012H227.985V336.188H225.292L216.909 325.981H218.225V336.188H214.985ZM238.629 336.431C237.509 336.431 236.469 336.248 235.511 335.884C234.566 335.519 233.742 335.006 233.04 334.345C232.352 333.683 231.812 332.907 231.42 332.016C231.042 331.125 230.853 330.153 230.853 329.1C230.853 328.047 231.042 327.075 231.42 326.184C231.812 325.293 232.358 324.517 233.06 323.855C233.762 323.194 234.586 322.681 235.531 322.316C236.476 321.952 237.502 321.769 238.609 321.769C239.729 321.769 240.755 321.952 241.687 322.316C242.632 322.681 243.449 323.194 244.137 323.855C244.839 324.517 245.386 325.293 245.777 326.184C246.169 327.061 246.365 328.033 246.365 329.1C246.365 330.153 246.169 331.132 245.777 332.036C245.386 332.927 244.839 333.703 244.137 334.365C243.449 335.013 242.632 335.519 241.687 335.884C240.755 336.248 239.736 336.431 238.629 336.431ZM238.609 333.636C239.243 333.636 239.824 333.528 240.35 333.312C240.89 333.096 241.363 332.785 241.768 332.38C242.173 331.975 242.483 331.496 242.699 330.943C242.929 330.389 243.044 329.775 243.044 329.1C243.044 328.425 242.929 327.811 242.699 327.257C242.483 326.704 242.173 326.224 241.768 325.819C241.376 325.414 240.911 325.104 240.371 324.888C239.831 324.672 239.243 324.564 238.609 324.564C237.974 324.564 237.387 324.672 236.847 324.888C236.321 325.104 235.855 325.414 235.45 325.819C235.045 326.224 234.728 326.704 234.498 327.257C234.282 327.811 234.174 328.425 234.174 329.1C234.174 329.761 234.282 330.376 234.498 330.943C234.728 331.496 235.038 331.975 235.43 332.38C235.835 332.785 236.307 333.096 236.847 333.312C237.387 333.528 237.974 333.636 238.609 333.636ZM249.235 336.188V322.012H252.516V333.515H259.623V336.188H249.235ZM268.509 336.431C267.388 336.431 266.349 336.248 265.39 335.884C264.445 335.519 263.622 335.006 262.92 334.345C262.231 333.683 261.691 332.907 261.3 332.016C260.922 331.125 260.733 330.153 260.733 329.1C260.733 328.047 260.922 327.075 261.3 326.184C261.691 325.293 262.238 324.517 262.94 323.855C263.642 323.194 264.466 322.681 265.411 322.316C266.356 321.952 267.382 321.769 268.489 321.769C269.609 321.769 270.635 321.952 271.567 322.316C272.512 322.681 273.328 323.194 274.017 323.855C274.719 324.517 275.266 325.293 275.657 326.184C276.049 327.061 276.244 328.033 276.244 329.1C276.244 330.153 276.049 331.132 275.657 332.036C275.266 332.927 274.719 333.703 274.017 334.365C273.328 335.013 272.512 335.519 271.567 335.884C270.635 336.248 269.616 336.431 268.509 336.431ZM268.489 333.636C269.123 333.636 269.704 333.528 270.23 333.312C270.77 333.096 271.243 332.785 271.648 332.38C272.053 331.975 272.363 331.496 272.579 330.943C272.809 330.389 272.923 329.775 272.923 329.1C272.923 328.425 272.809 327.811 272.579 327.257C272.363 326.704 272.053 326.224 271.648 325.819C271.256 325.414 270.79 325.104 270.25 324.888C269.71 324.672 269.123 324.564 268.489 324.564C267.854 324.564 267.267 324.672 266.727 324.888C266.2 325.104 265.735 325.414 265.33 325.819C264.925 326.224 264.607 326.704 264.378 327.257C264.162 327.811 264.054 328.425 264.054 329.1C264.054 329.761 264.162 330.376 264.378 330.943C264.607 331.496 264.918 331.975 265.309 332.38C265.714 332.785 266.187 333.096 266.727 333.312C267.267 333.528 267.854 333.636 268.489 333.636ZM285.959 336.431C284.839 336.431 283.806 336.255 282.861 335.904C281.93 335.539 281.113 335.026 280.411 334.365C279.722 333.703 279.182 332.927 278.791 332.036C278.413 331.145 278.224 330.166 278.224 329.1C278.224 328.033 278.413 327.055 278.791 326.164C279.182 325.273 279.729 324.496 280.431 323.835C281.133 323.173 281.957 322.667 282.902 322.316C283.847 321.952 284.886 321.769 286.02 321.769C287.276 321.769 288.403 321.979 289.402 322.397C290.414 322.816 291.265 323.423 291.953 324.22L289.847 326.164C289.334 325.624 288.774 325.225 288.167 324.969C287.559 324.699 286.898 324.564 286.182 324.564C285.494 324.564 284.866 324.672 284.299 324.888C283.732 325.104 283.239 325.414 282.821 325.819C282.416 326.224 282.098 326.704 281.869 327.257C281.653 327.811 281.545 328.425 281.545 329.1C281.545 329.761 281.653 330.369 281.869 330.922C282.098 331.476 282.416 331.962 282.821 332.38C283.239 332.785 283.725 333.096 284.279 333.312C284.846 333.528 285.467 333.636 286.142 333.636C286.79 333.636 287.417 333.535 288.025 333.332C288.646 333.116 289.247 332.758 289.827 332.259L291.69 334.628C290.921 335.209 290.023 335.654 288.997 335.965C287.984 336.275 286.972 336.431 285.959 336.431ZM288.693 334.203V328.877H291.69V334.628L288.693 334.203ZM298.666 336.188V330.396L299.415 332.38L293.178 322.012H296.661L301.44 329.971H299.435L304.235 322.012H307.454L301.217 332.38L301.946 330.396V336.188H298.666Z" fill="#A7CD3A"/>
<g filter="url(#filter2_df_438_4239)">
<circle cx="231" cy="231" r="191" fill="white" fill-opacity="0.8" shape-rendering="crispEdges"/>
</g>
</g>
<defs>
<filter id="filter0_d_438_4239" x="36" y="40" width="390" height="390" filterUnits="userSpaceOnUse" color-interpolation-filters="sRGB">
<feFlood flood-opacity="0" result="BackgroundImageFix"/>
<feColorMatrix in="SourceAlpha" type="matrix" values="0 0 0 0 0 0 0 0 0 0 0 0 0 0 0 0 0 0 127 0" result="hardAlpha"/>
<feOffset dy="4"/>
<feGaussianBlur stdDeviation="2"/>
<feComposite in2="hardAlpha" operator="out"/>
<feColorMatrix type="matrix" values="0 0 0 0 0 0 0 0 0 0 0 0 0 0 0 0 0 0 0.25 0"/>
<feBlend mode="normal" in2="BackgroundImageFix" result="effect1_dropShadow_438_4239"/>
<feBlend mode="normal" in="SourceGraphic" in2="effect1_dropShadow_438_4239" result="shape"/>
</filter>
<filter id="filter1_d_438_4239" x="29.5" y="43.5625" width="402.188" height="402.188" filterUnits="userSpaceOnUse" color-interpolation-filters="sRGB">
<feFlood flood-opacity="0" result="BackgroundImageFix"/>
<feColorMatrix in="SourceAlpha" type="matrix" values="0 0 0 0 0 0 0 0 0 0 0 0 0 0 0 0 0 0 127 0" result="hardAlpha"/>
<feMorphology radius="5.625" operator="erode" in="SourceAlpha" result="effect1_dropShadow_438_4239"/>
<feOffset dy="14.0625"/>
<feGaussianBlur stdDeviation="14.0625"/>
<feComposite in2="hardAlpha" operator="out"/>
<feColorMatrix type="matrix" values="0 0 0 0 0.654902 0 0 0 0 0.803922 0 0 0 0 0.227451 0 0 0 1 0"/>
<feBlend mode="normal" in2="BackgroundImageFix" result="effect1_dropShadow_438_4239"/>
<feBlend mode="normal" in="SourceGraphic" in2="effect1_dropShadow_438_4239" result="shape"/>
</filter>
<filter id="filter2_df_438_4239" x="0" y="0" width="462" height="462" filterUnits="userSpaceOnUse" color-interpolation-filters="sRGB">
<feFlood flood-opacity="0" result="BackgroundImageFix"/>
<feColorMatrix in="SourceAlpha" type="matrix" values="0 0 0 0 0 0 0 0 0 0 0 0 0 0 0 0 0 0 127 0" result="hardAlpha"/>
<feMorphology radius="1" operator="erode" in="SourceAlpha" result="effect1_dropShadow_438_4239"/>
<feOffset dy="4"/>
<feGaussianBlur stdDeviation="3"/>
<feComposite in2="hardAlpha" operator="out"/>
<feColorMatrix type="matrix" values="0 0 0 0 0 0 0 0 0 0 0 0 0 0 0 0 0 0 0.25 0"/>
<feBlend mode="normal" in2="BackgroundImageFix" result="effect1_dropShadow_438_4239"/>
<feBlend mode="normal" in="SourceGraphic" in2="effect1_dropShadow_438_4239" result="shape"/>
<feGaussianBlur stdDeviation="20" result="effect2_foregroundBlur_438_4239"/>
</filter>
<clipPath id="clip0_438_4239">
<rect width="168.75" height="168.75" fill="white" transform="translate(146.5 122.312)"/>
</clipPath>
</defs>
</svg>
