<svg width="462" height="462" viewBox="0 0 462 462" fill="none" xmlns="http://www.w3.org/2000/svg">
<g filter="url(#filter0_d_438_4240)">
<circle cx="230.594" cy="230.594" r="178.594" fill="#FCFCFC"/>
</g>
<g clip-path="url(#clip0_438_4240)">
<path d="M193.1 149.559H232.65C233.859 149.559 234.848 150.547 234.848 151.756V162.742H190.902V151.756C190.902 150.547 191.891 149.559 193.1 149.559ZM177.719 151.756V162.742H160.141C150.445 162.742 142.562 170.625 142.562 180.32V206.688H195.297H239.242H241.494C250.366 195.948 263.769 189.109 278.793 189.109C280.276 189.109 281.732 189.164 283.188 189.302V180.32C283.188 170.625 275.305 162.742 265.609 162.742H248.031V151.756C248.031 143.269 241.137 136.375 232.65 136.375H193.1C184.613 136.375 177.719 143.269 177.719 151.756ZM230.453 233.055H204.086C199.224 233.055 195.297 229.127 195.297 224.266V215.477H142.562V250.633C142.562 260.328 150.445 268.211 160.141 268.211H241.494C234.6 259.861 230.453 249.122 230.453 237.449C230.453 235.966 230.508 234.51 230.645 233.055H230.453ZM318.344 237.449C318.344 226.96 314.177 216.9 306.76 209.483C299.342 202.065 289.282 197.898 278.793 197.898C268.303 197.898 258.244 202.065 250.826 209.483C243.409 216.9 239.242 226.96 239.242 237.449C239.242 247.939 243.409 257.999 250.826 265.416C258.244 272.833 268.303 277 278.793 277C289.282 277 299.342 272.833 306.76 265.416C314.177 257.999 318.344 247.939 318.344 237.449ZM278.793 215.477C281.21 215.477 283.188 217.454 283.188 219.871V233.055H291.977C294.394 233.055 296.371 235.032 296.371 237.449C296.371 239.866 294.394 241.844 291.977 241.844H278.793C276.376 241.844 274.398 239.866 274.398 237.449V219.871C274.398 217.454 276.376 215.477 278.793 215.477Z" fill="#FFC500"/>
</g>
<path d="M177.134 322.125V307.95H184.059C185.841 307.95 187.178 308.287 188.069 308.962C188.973 309.637 189.426 310.528 189.426 311.635C189.426 312.378 189.243 313.026 188.879 313.579C188.514 314.119 188.015 314.538 187.38 314.835C186.746 315.132 186.017 315.28 185.193 315.28L185.578 314.45C186.469 314.45 187.259 314.599 187.947 314.896C188.636 315.179 189.169 315.604 189.547 316.172C189.939 316.738 190.134 317.434 190.134 318.257C190.134 319.472 189.655 320.424 188.697 321.112C187.738 321.787 186.327 322.125 184.464 322.125H177.134ZM180.394 319.654H184.221C185.072 319.654 185.713 319.519 186.145 319.249C186.591 318.966 186.813 318.52 186.813 317.913C186.813 317.319 186.591 316.88 186.145 316.597C185.713 316.3 185.072 316.151 184.221 316.151H180.151V313.762H183.654C184.451 313.762 185.058 313.627 185.477 313.357C185.909 313.073 186.125 312.648 186.125 312.081C186.125 311.527 185.909 311.116 185.477 310.846C185.058 310.562 184.451 310.42 183.654 310.42H180.394V319.654ZM199.321 322.368C197.309 322.368 195.737 321.808 194.603 320.687C193.469 319.567 192.902 317.967 192.902 315.888V307.95H196.182V315.766C196.182 317.116 196.459 318.088 197.012 318.682C197.566 319.276 198.342 319.573 199.341 319.573C200.34 319.573 201.116 319.276 201.67 318.682C202.223 318.088 202.5 317.116 202.5 315.766V307.95H205.74V315.888C205.74 317.967 205.173 319.567 204.039 320.687C202.905 321.808 201.332 322.368 199.321 322.368ZM214.044 322.368C212.91 322.368 211.823 322.219 210.784 321.922C209.744 321.612 208.907 321.214 208.273 320.728L209.387 318.257C209.994 318.689 210.71 319.047 211.533 319.33C212.37 319.6 213.214 319.735 214.064 319.735C214.712 319.735 215.232 319.675 215.624 319.553C216.029 319.418 216.326 319.236 216.515 319.006C216.704 318.777 216.798 318.514 216.798 318.217C216.798 317.839 216.65 317.542 216.353 317.326C216.056 317.096 215.664 316.914 215.178 316.779C214.692 316.63 214.152 316.495 213.558 316.374C212.978 316.239 212.39 316.077 211.796 315.888C211.216 315.699 210.683 315.456 210.197 315.159C209.711 314.862 209.312 314.47 209.002 313.984C208.705 313.498 208.556 312.877 208.556 312.121C208.556 311.311 208.772 310.576 209.204 309.914C209.65 309.239 210.311 308.706 211.189 308.314C212.08 307.909 213.194 307.707 214.53 307.707C215.421 307.707 216.299 307.815 217.163 308.031C218.027 308.233 218.789 308.544 219.451 308.962L218.438 311.453C217.777 311.075 217.115 310.798 216.454 310.623C215.792 310.434 215.144 310.339 214.51 310.339C213.875 310.339 213.356 310.414 212.951 310.562C212.546 310.711 212.255 310.906 212.08 311.149C211.904 311.379 211.817 311.649 211.817 311.959C211.817 312.324 211.965 312.621 212.262 312.85C212.559 313.066 212.951 313.242 213.437 313.377C213.923 313.512 214.456 313.647 215.036 313.782C215.63 313.917 216.218 314.072 216.798 314.248C217.392 314.423 217.932 314.659 218.418 314.956C218.904 315.253 219.296 315.645 219.593 316.131C219.903 316.617 220.058 317.231 220.058 317.974C220.058 318.77 219.836 319.499 219.39 320.161C218.945 320.822 218.276 321.355 217.385 321.76C216.508 322.165 215.394 322.368 214.044 322.368ZM222.705 322.125V307.95H225.986V322.125H222.705ZM229.755 322.125V307.95H232.468L240.831 318.156H239.515V307.95H242.755V322.125H240.062L231.678 311.919H232.995V322.125H229.755ZM249.531 313.66H256.355V316.212H249.531V313.66ZM249.774 319.492H257.489V322.125H246.514V307.95H257.226V310.582H249.774V319.492ZM265.162 322.368C264.028 322.368 262.941 322.219 261.902 321.922C260.862 321.612 260.025 321.214 259.391 320.728L260.505 318.257C261.112 318.689 261.828 319.047 262.651 319.33C263.488 319.6 264.332 319.735 265.182 319.735C265.83 319.735 266.35 319.675 266.742 319.553C267.147 319.418 267.444 319.236 267.633 319.006C267.822 318.777 267.916 318.514 267.916 318.217C267.916 317.839 267.768 317.542 267.471 317.326C267.174 317.096 266.782 316.914 266.296 316.779C265.81 316.63 265.27 316.495 264.676 316.374C264.096 316.239 263.508 316.077 262.914 315.888C262.334 315.699 261.801 315.456 261.315 315.159C260.829 314.862 260.43 314.47 260.12 313.984C259.823 313.498 259.674 312.877 259.674 312.121C259.674 311.311 259.89 310.576 260.322 309.914C260.768 309.239 261.429 308.706 262.307 308.314C263.198 307.909 264.312 307.707 265.648 307.707C266.539 307.707 267.417 307.815 268.281 308.031C269.145 308.233 269.907 308.544 270.569 308.962L269.556 311.453C268.895 311.075 268.233 310.798 267.572 310.623C266.91 310.434 266.262 310.339 265.628 310.339C264.993 310.339 264.474 310.414 264.069 310.562C263.664 310.711 263.373 310.906 263.198 311.149C263.022 311.379 262.935 311.649 262.935 311.959C262.935 312.324 263.083 312.621 263.38 312.85C263.677 313.066 264.069 313.242 264.555 313.377C265.041 313.512 265.574 313.647 266.154 313.782C266.748 313.917 267.336 314.072 267.916 314.248C268.51 314.423 269.05 314.659 269.536 314.956C270.022 315.253 270.414 315.645 270.711 316.131C271.021 316.617 271.176 317.231 271.176 317.974C271.176 318.77 270.954 319.499 270.508 320.161C270.063 320.822 269.394 321.355 268.503 321.76C267.626 322.165 266.512 322.368 265.162 322.368ZM278.48 322.368C277.346 322.368 276.26 322.219 275.22 321.922C274.181 321.612 273.344 321.214 272.709 320.728L273.823 318.257C274.43 318.689 275.146 319.047 275.969 319.33C276.806 319.6 277.65 319.735 278.501 319.735C279.149 319.735 279.668 319.675 280.06 319.553C280.465 319.418 280.762 319.236 280.951 319.006C281.14 318.777 281.234 318.514 281.234 318.217C281.234 317.839 281.086 317.542 280.789 317.326C280.492 317.096 280.1 316.914 279.614 316.779C279.128 316.63 278.588 316.495 277.994 316.374C277.414 316.239 276.827 316.077 276.233 315.888C275.652 315.699 275.119 315.456 274.633 315.159C274.147 314.862 273.749 314.47 273.438 313.984C273.141 313.498 272.993 312.877 272.993 312.121C272.993 311.311 273.209 310.576 273.641 309.914C274.086 309.239 274.748 308.706 275.625 308.314C276.516 307.909 277.63 307.707 278.966 307.707C279.857 307.707 280.735 307.815 281.599 308.031C282.463 308.233 283.226 308.544 283.887 308.962L282.875 311.453C282.213 311.075 281.552 310.798 280.89 310.623C280.229 310.434 279.581 310.339 278.946 310.339C278.312 310.339 277.792 310.414 277.387 310.562C276.982 310.711 276.692 310.906 276.516 311.149C276.341 311.379 276.253 311.649 276.253 311.959C276.253 312.324 276.401 312.621 276.698 312.85C276.995 313.066 277.387 313.242 277.873 313.377C278.359 313.512 278.892 313.647 279.473 313.782C280.067 313.917 280.654 314.072 281.234 314.248C281.828 314.423 282.368 314.659 282.854 314.956C283.34 315.253 283.732 315.645 284.029 316.131C284.339 316.617 284.495 317.231 284.495 317.974C284.495 318.77 284.272 319.499 283.826 320.161C283.381 320.822 282.713 321.355 281.822 321.76C280.944 322.165 279.83 322.368 278.48 322.368Z" fill="#FFC500"/>
<g filter="url(#filter1_df_438_4240)">
<circle cx="231" cy="231" r="191" fill="white" fill-opacity="0.8" shape-rendering="crispEdges"/>
</g>
<defs>
<filter id="filter0_d_438_4240" x="30.625" y="44.6875" width="399.938" height="399.938" filterUnits="userSpaceOnUse" color-interpolation-filters="sRGB">
<feFlood flood-opacity="0" result="BackgroundImageFix"/>
<feColorMatrix in="SourceAlpha" type="matrix" values="0 0 0 0 0 0 0 0 0 0 0 0 0 0 0 0 0 0 127 0" result="hardAlpha"/>
<feMorphology radius="6.75" operator="erode" in="SourceAlpha" result="effect1_dropShadow_438_4240"/>
<feOffset dy="14.0625"/>
<feGaussianBlur stdDeviation="14.0625"/>
<feComposite in2="hardAlpha" operator="out"/>
<feColorMatrix type="matrix" values="0 0 0 0 1 0 0 0 0 0.772549 0 0 0 0 0 0 0 0 1 0"/>
<feBlend mode="normal" in2="BackgroundImageFix" result="effect1_dropShadow_438_4240"/>
<feBlend mode="normal" in="SourceGraphic" in2="effect1_dropShadow_438_4240" result="shape"/>
</filter>
<filter id="filter1_df_438_4240" x="0" y="0" width="462" height="462" filterUnits="userSpaceOnUse" color-interpolation-filters="sRGB">
<feFlood flood-opacity="0" result="BackgroundImageFix"/>
<feColorMatrix in="SourceAlpha" type="matrix" values="0 0 0 0 0 0 0 0 0 0 0 0 0 0 0 0 0 0 127 0" result="hardAlpha"/>
<feMorphology radius="1" operator="erode" in="SourceAlpha" result="effect1_dropShadow_438_4240"/>
<feOffset dy="4"/>
<feGaussianBlur stdDeviation="3"/>
<feComposite in2="hardAlpha" operator="out"/>
<feColorMatrix type="matrix" values="0 0 0 0 0 0 0 0 0 0 0 0 0 0 0 0 0 0 0.25 0"/>
<feBlend mode="normal" in2="BackgroundImageFix" result="effect1_dropShadow_438_4240"/>
<feBlend mode="normal" in="SourceGraphic" in2="effect1_dropShadow_438_4240" result="shape"/>
<feGaussianBlur stdDeviation="20" result="effect2_foregroundBlur_438_4240"/>
</filter>
<clipPath id="clip0_438_4240">
<rect width="175.781" height="140.625" fill="white" transform="translate(142.562 136.375)"/>
</clipPath>
</defs>
</svg>
