<svg width="401" height="401" viewBox="0 0 401 401" fill="none" xmlns="http://www.w3.org/2000/svg">
<g filter="url(#filter0_d_438_4208)">
<circle cx="200.594" cy="186.594" r="178.594" fill="#FCFCFC"/>
</g>
<g filter="url(#filter1_d_438_4208)">
<path d="M121.68 278.125V266.623H117.144V263.95H129.496V266.623H124.96V278.125H121.68ZM134.683 269.66H141.508V272.212H134.683V269.66ZM134.926 275.492H142.642V278.125H131.666V263.95H142.378V266.582H134.926V275.492ZM143.898 278.125L149.994 269.721V272.111L144.162 263.95H147.888L151.917 269.64L150.358 269.66L154.327 263.95H157.891L152.1 271.969V269.62L158.235 278.125H154.449L150.277 272.111H151.776L147.665 278.125H143.898ZM162.702 278.125V266.623H158.166V263.95H170.519V266.623H165.983V278.125H162.702ZM185.613 278.368C184.519 278.368 183.5 278.192 182.555 277.841C181.623 277.477 180.813 276.964 180.125 276.302C179.436 275.641 178.896 274.865 178.505 273.974C178.127 273.083 177.938 272.104 177.938 271.037C177.938 269.971 178.127 268.992 178.505 268.101C178.896 267.21 179.436 266.434 180.125 265.772C180.827 265.111 181.644 264.605 182.575 264.254C183.507 263.889 184.526 263.707 185.633 263.707C186.861 263.707 187.968 263.923 188.954 264.355C189.953 264.773 190.79 265.394 191.465 266.218L189.359 268.162C188.873 267.608 188.333 267.197 187.739 266.927C187.145 266.643 186.497 266.501 185.795 266.501C185.133 266.501 184.526 266.609 183.972 266.825C183.419 267.041 182.94 267.352 182.535 267.757C182.13 268.162 181.812 268.641 181.583 269.195C181.367 269.748 181.259 270.362 181.259 271.037C181.259 271.712 181.367 272.327 181.583 272.88C181.812 273.434 182.13 273.913 182.535 274.318C182.94 274.723 183.419 275.033 183.972 275.249C184.526 275.465 185.133 275.573 185.795 275.573C186.497 275.573 187.145 275.438 187.739 275.168C188.333 274.885 188.873 274.46 189.359 273.893L191.465 275.837C190.79 276.66 189.953 277.288 188.954 277.72C187.968 278.152 186.855 278.368 185.613 278.368ZM200.304 278.368C198.292 278.368 196.72 277.808 195.586 276.687C194.452 275.567 193.885 273.967 193.885 271.888V263.95H197.165V271.766C197.165 273.116 197.442 274.088 197.995 274.682C198.549 275.276 199.325 275.573 200.324 275.573C201.323 275.573 202.099 275.276 202.653 274.682C203.206 274.088 203.483 273.116 203.483 271.766V263.95H206.723V271.888C206.723 273.967 206.156 275.567 205.022 276.687C203.888 277.808 202.315 278.368 200.304 278.368ZM210.37 278.125V263.95H216.506C217.775 263.95 218.868 264.159 219.786 264.578C220.704 264.983 221.413 265.57 221.912 266.339C222.412 267.109 222.662 268.027 222.662 269.093C222.662 270.146 222.412 271.058 221.912 271.827C221.413 272.583 220.704 273.164 219.786 273.569C218.868 273.974 217.775 274.176 216.506 274.176H212.192L213.65 272.738V278.125H210.37ZM219.381 278.125L215.837 272.981H219.341L222.925 278.125H219.381ZM213.65 273.103L212.192 271.564H216.323C217.336 271.564 218.092 271.348 218.591 270.916C219.091 270.47 219.341 269.863 219.341 269.093C219.341 268.31 219.091 267.703 218.591 267.271C218.092 266.839 217.336 266.623 216.323 266.623H212.192L213.65 265.064V273.103ZM223.803 278.125L230.121 263.95H233.361L239.699 278.125H236.256L231.072 265.61H232.368L227.164 278.125H223.803ZM226.962 275.087L227.832 272.597H235.122L236.013 275.087H226.962ZM243.799 278.125V266.623H239.263V263.95H251.615V266.623H247.079V278.125H243.799ZM260.473 278.368C259.352 278.368 258.313 278.186 257.354 277.821C256.409 277.457 255.586 276.944 254.884 276.282C254.195 275.621 253.655 274.844 253.264 273.953C252.886 273.062 252.697 272.09 252.697 271.037C252.697 269.984 252.886 269.012 253.264 268.121C253.655 267.23 254.202 266.454 254.904 265.793C255.606 265.131 256.429 264.618 257.374 264.254C258.319 263.889 259.345 263.707 260.452 263.707C261.573 263.707 262.599 263.889 263.53 264.254C264.475 264.618 265.292 265.131 265.981 265.793C266.683 266.454 267.229 267.23 267.621 268.121C268.012 268.999 268.208 269.971 268.208 271.037C268.208 272.09 268.012 273.069 267.621 273.974C267.229 274.865 266.683 275.641 265.981 276.302C265.292 276.95 264.475 277.457 263.53 277.821C262.599 278.186 261.58 278.368 260.473 278.368ZM260.452 275.573C261.087 275.573 261.667 275.465 262.194 275.249C262.734 275.033 263.206 274.723 263.611 274.318C264.016 273.913 264.327 273.434 264.543 272.88C264.772 272.327 264.887 271.712 264.887 271.037C264.887 270.362 264.772 269.748 264.543 269.195C264.327 268.641 264.016 268.162 263.611 267.757C263.22 267.352 262.754 267.041 262.214 266.825C261.674 266.609 261.087 266.501 260.452 266.501C259.818 266.501 259.231 266.609 258.691 266.825C258.164 267.041 257.698 267.352 257.293 267.757C256.888 268.162 256.571 268.641 256.342 269.195C256.126 269.748 256.018 270.362 256.018 271.037C256.018 271.699 256.126 272.313 256.342 272.88C256.571 273.434 256.882 273.913 257.273 274.318C257.678 274.723 258.151 275.033 258.691 275.249C259.231 275.465 259.818 275.573 260.452 275.573ZM271.079 278.125V263.95H277.214C278.483 263.95 279.577 264.159 280.495 264.578C281.413 264.983 282.122 265.57 282.621 266.339C283.121 267.109 283.37 268.027 283.37 269.093C283.37 270.146 283.121 271.058 282.621 271.827C282.122 272.583 281.413 273.164 280.495 273.569C279.577 273.974 278.483 274.176 277.214 274.176H272.901L274.359 272.738V278.125H271.079ZM280.09 278.125L276.546 272.981H280.049L283.634 278.125H280.09ZM274.359 273.103L272.901 271.564H277.032C278.045 271.564 278.801 271.348 279.3 270.916C279.8 270.47 280.049 269.863 280.049 269.093C280.049 268.31 279.8 267.703 279.3 267.271C278.801 266.839 278.045 266.623 277.032 266.623H272.901L274.359 265.064V273.103Z" fill="#015CBA"/>
<g clip-path="url(#clip0_438_4208)">
<path d="M231.747 97.4009L216.449 112.727L250.836 147.114L266.134 131.816C272.149 125.801 272.149 116.078 266.134 110.063L253.5 97.4009C247.485 91.3859 237.762 91.3859 231.747 97.4009ZM209.664 118.357L207.138 119.126L167.559 130.992C162.094 132.64 157.754 136.814 155.941 142.253L131.607 214.817C130.563 217.921 131.332 221.382 133.612 223.716L175.799 181.556C174.975 179.826 174.508 177.903 174.508 175.871C174.508 168.592 180.413 162.687 187.692 162.687C194.97 162.687 200.875 168.592 200.875 175.871C200.875 183.149 194.97 189.054 187.692 189.054C185.659 189.054 183.737 188.587 182.006 187.763L139.819 229.951C142.181 232.231 145.614 233.027 148.718 231.956L221.31 207.621C226.721 205.808 230.923 201.469 232.571 196.003L244.436 156.425L245.205 153.898L209.664 118.357Z" fill="#005CBA"/>
</g>
</g>
<defs>
<filter id="filter0_d_438_4208" x="0.625" y="0.6875" width="399.938" height="399.938" filterUnits="userSpaceOnUse" color-interpolation-filters="sRGB">
<feFlood flood-opacity="0" result="BackgroundImageFix"/>
<feColorMatrix in="SourceAlpha" type="matrix" values="0 0 0 0 0 0 0 0 0 0 0 0 0 0 0 0 0 0 127 0" result="hardAlpha"/>
<feMorphology radius="6.75" operator="erode" in="SourceAlpha" result="effect1_dropShadow_438_4208"/>
<feOffset dy="14.0625"/>
<feGaussianBlur stdDeviation="14.0625"/>
<feComposite in2="hardAlpha" operator="out"/>
<feColorMatrix type="matrix" values="0 0 0 0 0 0 0 0 0 0.360784 0 0 0 0 0.729412 0 0 0 1 0"/>
<feBlend mode="normal" in2="BackgroundImageFix" result="effect1_dropShadow_438_4208"/>
<feBlend mode="normal" in="SourceGraphic" in2="effect1_dropShadow_438_4208" result="shape"/>
</filter>
<filter id="filter1_d_438_4208" x="100.269" y="77.75" width="200.24" height="219.743" filterUnits="userSpaceOnUse" color-interpolation-filters="sRGB">
<feFlood flood-opacity="0" result="BackgroundImageFix"/>
<feColorMatrix in="SourceAlpha" type="matrix" values="0 0 0 0 0 0 0 0 0 0 0 0 0 0 0 0 0 0 127 0" result="hardAlpha"/>
<feMorphology radius="11.25" operator="dilate" in="SourceAlpha" result="effect1_dropShadow_438_4208"/>
<feOffset dy="2.25"/>
<feGaussianBlur stdDeviation="2.8125"/>
<feComposite in2="hardAlpha" operator="out"/>
<feColorMatrix type="matrix" values="0 0 0 0 1 0 0 0 0 1 0 0 0 0 1 0 0 0 1 0"/>
<feBlend mode="normal" in2="BackgroundImageFix" result="effect1_dropShadow_438_4208"/>
<feBlend mode="normal" in="SourceGraphic" in2="effect1_dropShadow_438_4208" result="shape"/>
</filter>
<clipPath id="clip0_438_4208">
<rect width="140.625" height="140.625" fill="white" transform="translate(130.562 92.375)"/>
</clipPath>
</defs>
</svg>
