<svg width="257" height="257" viewBox="0 0 257 257" fill="none" xmlns="http://www.w3.org/2000/svg">
<g clip-path="url(#clip0_382_2814)">
<path d="M88.2935 224.875C70.7252 224.825 55.4156 213.531 50.1451 197.468C33.932 179.097 24.0938 154.953 24.0938 128.5C24.0938 70.8256 70.8256 24.0938 128.5 24.0938C186.174 24.0938 232.906 70.8256 232.906 128.5C232.906 186.174 186.174 232.906 128.5 232.906C114.245 232.906 100.642 230.045 88.2935 224.875ZM0 128.5C0 162.58 13.5384 195.265 37.6368 219.363C61.7352 243.462 94.4197 257 128.5 257C162.58 257 195.265 243.462 219.363 219.363C243.462 195.265 257 162.58 257 128.5C257 94.4197 243.462 61.7352 219.363 37.6368C195.265 13.5384 162.58 0 128.5 0C94.4197 0 61.7352 13.5384 37.6368 37.6368C13.5384 61.7352 0 94.4197 0 128.5ZM64.25 185.221C64.25 198.271 75.042 208.812 88.3438 208.812C101.646 208.812 112.438 198.271 112.438 185.221C112.438 175.182 98.182 154.903 91.5562 146.219C89.95 144.01 86.7375 144.01 85.1313 146.219C78.6059 154.903 64.25 175.182 64.25 185.221ZM128.5 152.594C121.824 152.594 116.453 157.965 116.453 164.641C116.453 171.317 121.824 176.688 128.5 176.688C143.91 176.688 157.965 182.46 168.656 192.047C173.626 196.464 181.205 196.063 185.672 191.094C190.14 186.124 189.688 178.545 184.719 174.077C169.811 160.725 150.084 152.594 128.5 152.594ZM152.393 104.406C152.393 108.666 154.085 112.752 157.098 115.764C160.11 118.776 164.195 120.469 168.455 120.469C172.716 120.469 176.801 118.776 179.813 115.764C182.826 112.752 184.518 108.666 184.518 104.406C184.518 100.146 182.826 96.0607 179.813 93.0483C176.801 90.036 172.716 88.3438 168.455 88.3438C164.195 88.3438 160.11 90.036 157.098 93.0483C154.085 96.0607 152.393 100.146 152.393 104.406ZM88.143 120.469C92.403 120.469 96.4886 118.776 99.5009 115.764C102.513 112.752 104.205 108.666 104.205 104.406C104.205 100.146 102.513 96.0607 99.5009 93.0483C96.4886 90.036 92.403 88.3438 88.143 88.3438C83.8829 88.3438 79.7974 90.036 76.7851 93.0483C73.7728 96.0607 72.0805 100.146 72.0805 104.406C72.0805 108.666 73.7728 112.752 76.7851 115.764C79.7974 118.776 83.8829 120.469 88.143 120.469Z" fill="#005CBA"/>
</g>
<defs>
<clipPath id="clip0_382_2814">
<rect width="257" height="257" fill="white"/>
</clipPath>
</defs>
</svg>
