<svg width="25" height="25" viewBox="0 0 25 25" fill="none" xmlns="http://www.w3.org/2000/svg">
<path d="M8.59375 1.17188C8.59375 0.522461 8.07129 0 7.42188 0C6.77246 0 6.25 0.522461 6.25 1.17188V3.125C4.52637 3.125 3.125 4.52637 3.125 6.25H1.17188C0.522461 6.25 0 6.77246 0 7.42188C0 8.07129 0.522461 8.59375 1.17188 8.59375H3.125V11.3281H1.17188C0.522461 11.3281 0 11.8506 0 12.5C0 13.1494 0.522461 13.6719 1.17188 13.6719H3.125V16.4062H1.17188C0.522461 16.4062 0 16.9287 0 17.5781C0 18.2275 0.522461 18.75 1.17188 18.75H3.125C3.125 20.4736 4.52637 21.875 6.25 21.875V23.8281C6.25 24.4775 6.77246 25 7.42188 25C8.07129 25 8.59375 24.4775 8.59375 23.8281V21.875H11.3281V23.8281C11.3281 24.4775 11.8506 25 12.5 25C13.1494 25 13.6719 24.4775 13.6719 23.8281V21.875H16.4062V23.8281C16.4062 24.4775 16.9287 25 17.5781 25C18.2275 25 18.75 24.4775 18.75 23.8281V21.875C20.4736 21.875 21.875 20.4736 21.875 18.75H23.8281C24.4775 18.75 25 18.2275 25 17.5781C25 16.9287 24.4775 16.4062 23.8281 16.4062H21.875V13.6719H23.8281C24.4775 13.6719 25 13.1494 25 12.5C25 11.8506 24.4775 11.3281 23.8281 11.3281H21.875V8.59375H23.8281C24.4775 8.59375 25 8.07129 25 7.42188C25 6.77246 24.4775 6.25 23.8281 6.25H21.875C21.875 4.52637 20.4736 3.125 18.75 3.125V1.17188C18.75 0.522461 18.2275 0 17.5781 0C16.9287 0 16.4062 0.522461 16.4062 1.17188V3.125H13.6719V1.17188C13.6719 0.522461 13.1494 0 12.5 0C11.8506 0 11.3281 0.522461 11.3281 1.17188V3.125H8.59375V1.17188ZM7.8125 6.25H17.1875C18.0518 6.25 18.75 6.94824 18.75 7.8125V17.1875C18.75 18.0518 18.0518 18.75 17.1875 18.75H7.8125C6.94824 18.75 6.25 18.0518 6.25 17.1875V7.8125C6.25 6.94824 6.94824 6.25 7.8125 6.25ZM17.1875 7.8125H7.8125V17.1875H17.1875V7.8125Z" fill="#4F9BFD"/>
</svg>
