<svg width="532" height="492" viewBox="0 0 532 492" fill="none" xmlns="http://www.w3.org/2000/svg">
<g clip-path="url(#clip0_78_420)">
<path d="M15.2419 209.294C7.80461 162.785 23.399 110.522 56.0273 92.6146C81.698 78.5158 120.984 73.8162 173.585 90.9941C312.735 136.37 300.739 84.5119 354.72 43.998C402.223 8.34585 460.282 -35.4091 561.046 47.2391C637.458 109.955 592.234 207.674 643.816 267.634C676.984 306.204 621.024 492.891 460.282 452.377C299.54 411.864 263.133 468.745 190.379 489.65C117.205 510.717 -33.8804 385.368 6.84495 327.595C30.8363 293.563 19.9202 238.464 15.2419 209.294Z" fill="#F8F8FF"/>
<path d="M56.9269 220.638C50.5692 180.692 63.9444 135.721 92.0143 120.326C114.086 108.172 147.854 104.202 193.078 118.949C312.675 157.923 302.359 113.358 348.782 78.5158C389.627 47.8874 439.529 10.2905 526.138 81.2708C591.815 135.154 552.949 219.18 597.273 270.713C625.762 303.854 577.66 464.37 439.529 429.528C301.399 394.686 270.09 443.545 207.533 461.534C144.555 479.684 14.6421 371.998 49.6695 322.328C70.3021 293.077 60.8855 245.757 56.9269 220.638Z" fill="#F5F5FC"/>
<path d="M103.59 223.15C98.1321 188.957 109.588 150.468 133.579 137.261C152.473 126.889 181.382 123.486 220.128 136.045C322.571 169.429 313.695 131.265 353.46 101.447C388.428 75.1937 431.132 43.0257 505.326 103.796C561.585 149.901 528.297 221.854 566.264 266.014C590.675 294.374 549.47 431.796 431.192 401.978C312.915 372.16 286.045 414.051 232.484 429.447C178.623 444.923 67.4231 352.713 97.4123 310.174C115.106 285.136 107.009 244.623 103.59 223.15Z" fill="#BAC6F2"/>
<path d="M122.603 249.808C125.253 249.808 127.402 246.906 127.402 243.326C127.402 239.746 125.253 236.844 122.603 236.844C119.953 236.844 117.805 239.746 117.805 243.326C117.805 246.906 119.953 249.808 122.603 249.808Z" fill="white"/>
<path d="M160.09 207.674C161.58 207.674 162.789 206.041 162.789 204.028C162.789 202.014 161.58 200.381 160.09 200.381C158.599 200.381 157.391 202.014 157.391 204.028C157.391 206.041 158.599 207.674 160.09 207.674Z" fill="white"/>
<path d="M169.386 306.528C171.043 306.528 172.385 304.714 172.385 302.476C172.385 300.239 171.043 298.425 169.386 298.425C167.73 298.425 166.388 300.239 166.388 302.476C166.388 304.714 167.73 306.528 169.386 306.528Z" fill="white"/>
<path d="M143.896 363.247C145.718 363.247 147.194 361.252 147.194 358.791C147.194 356.329 145.718 354.334 143.896 354.334C142.074 354.334 140.597 356.329 140.597 358.791C140.597 361.252 142.074 363.247 143.896 363.247Z" fill="white"/>
<path d="M220.068 381.883C221.89 381.883 223.367 379.888 223.367 377.427C223.367 374.966 221.89 372.97 220.068 372.97C218.246 372.97 216.769 374.966 216.769 377.427C216.769 379.888 218.246 381.883 220.068 381.883Z" fill="white"/>
<path d="M362.517 380.263C364.505 380.263 366.116 378.086 366.116 375.401C366.116 372.716 364.505 370.54 362.517 370.54C360.53 370.54 358.918 372.716 358.918 375.401C358.918 378.086 360.53 380.263 362.517 380.263Z" fill="white"/>
<path d="M421.596 275.737C423.418 275.737 424.895 273.742 424.895 271.281C424.895 268.819 423.418 266.824 421.596 266.824C419.774 266.824 418.297 268.819 418.297 271.281C418.297 273.742 419.774 275.737 421.596 275.737Z" fill="white"/>
<path d="M466.879 214.156C468.204 214.156 469.279 212.705 469.279 210.915C469.279 209.125 468.204 207.674 466.879 207.674C465.554 207.674 464.48 209.125 464.48 210.915C464.48 212.705 465.554 214.156 466.879 214.156Z" fill="white"/>
<path d="M503.766 228.741C505.588 228.741 507.065 226.746 507.065 224.285C507.065 221.823 505.588 219.828 503.766 219.828C501.944 219.828 500.467 221.823 500.467 224.285C500.467 226.746 501.944 228.741 503.766 228.741Z" fill="white"/>
<path d="M531.056 172.022C532.713 172.022 534.055 170.208 534.055 167.97C534.055 165.733 532.713 163.919 531.056 163.919C529.4 163.919 528.058 165.733 528.058 167.97C528.058 170.208 529.4 172.022 531.056 172.022Z" fill="white"/>
<path d="M525.658 336.508C527.315 336.508 528.657 334.694 528.657 332.457C528.657 330.219 527.315 328.405 525.658 328.405C524.002 328.405 522.659 330.219 522.659 332.457C522.659 334.694 524.002 336.508 525.658 336.508Z" fill="white"/>
<path d="M476.176 386.745C477.998 386.745 479.475 384.75 479.475 382.289C479.475 379.827 477.998 377.832 476.176 377.832C474.354 377.832 472.877 379.827 472.877 382.289C472.877 384.75 474.354 386.745 476.176 386.745Z" fill="white"/>
<path d="M296.541 329.215C299.522 329.215 301.939 325.95 301.939 321.923C301.939 317.895 299.522 314.63 296.541 314.63C293.559 314.63 291.143 317.895 291.143 321.923C291.143 325.95 293.559 329.215 296.541 329.215Z" fill="white"/>
<path d="M322.931 249.808C325.913 249.808 328.329 246.543 328.329 242.516C328.329 238.488 325.913 235.223 322.931 235.223C319.95 235.223 317.533 238.488 317.533 242.516C317.533 246.543 319.95 249.808 322.931 249.808Z" fill="white"/>
<path d="M391.906 214.966C394.888 214.966 397.305 211.701 397.305 207.674C397.305 203.646 394.888 200.381 391.906 200.381C388.925 200.381 386.508 203.646 386.508 207.674C386.508 211.701 388.925 214.966 391.906 214.966Z" fill="white"/>
<path d="M391.607 325.164C394.753 325.164 397.305 321.718 397.305 317.466C397.305 313.215 394.753 309.769 391.607 309.769C388.46 309.769 385.909 313.215 385.909 317.466C385.909 321.718 388.46 325.164 391.607 325.164Z" fill="white"/>
<path d="M450.385 314.63C453.532 314.63 456.083 311.184 456.083 306.933C456.083 302.682 453.532 299.235 450.385 299.235C447.239 299.235 444.688 302.682 444.688 306.933C444.688 311.184 447.239 314.63 450.385 314.63Z" fill="white"/>
<path d="M274.349 281.409C277.33 281.409 279.747 278.144 279.747 274.117C279.747 270.089 277.33 266.824 274.349 266.824C271.367 266.824 268.951 270.089 268.951 274.117C268.951 278.144 271.367 281.409 274.349 281.409Z" fill="white"/>
<path d="M309.136 346.231C312.117 346.231 314.534 342.966 314.534 338.939C314.534 334.911 312.117 331.646 309.136 331.646C306.155 331.646 303.738 334.911 303.738 338.939C303.738 342.966 306.155 346.231 309.136 346.231Z" fill="white"/>
<path d="M348.122 290.322C351.104 290.322 353.52 287.057 353.52 283.03C353.52 279.002 351.104 275.737 348.122 275.737C345.141 275.737 342.724 279.002 342.724 283.03C342.724 287.057 345.141 290.322 348.122 290.322Z" fill="white"/>
<path d="M208.672 309.769C211.488 309.769 213.77 306.685 213.77 302.881C213.77 299.078 211.488 295.994 208.672 295.994C205.857 295.994 203.574 299.078 203.574 302.881C203.574 306.685 205.857 309.769 208.672 309.769Z" fill="white"/>
<path d="M260.254 221.368C263.069 221.368 265.352 218.284 265.352 214.48C265.352 210.676 263.069 207.593 260.254 207.593C257.438 207.593 255.156 210.676 255.156 214.48C255.156 218.284 257.438 221.368 260.254 221.368Z" fill="white"/>
<path d="M103.05 356.279L122.603 243.326L206.573 303.287L273.749 274.117L296.541 321.923L309.136 341.37L348.122 282.219L391.307 318.682L449.486 306.528" stroke="white" stroke-width="0.767095" stroke-linecap="round" stroke-linejoin="round"/>
<path d="M276.088 274.117L322.212 241.625L391.906 207.674" stroke="white" stroke-width="0.767095" stroke-miterlimit="10"/>
<path d="M211.671 167.97C213.162 167.97 214.37 166.338 214.37 164.324C214.37 162.31 213.162 160.678 211.671 160.678C210.181 160.678 208.972 162.31 208.972 164.324C208.972 166.338 210.181 167.97 211.671 167.97Z" fill="white"/>
<path d="M407.501 103.959C408.826 103.959 409.9 102.507 409.9 100.717C409.9 98.9274 408.826 97.4763 407.501 97.4763C406.176 97.4763 405.102 98.9274 405.102 100.717C405.102 102.507 406.176 103.959 407.501 103.959Z" fill="white"/>
<path d="M264.452 184.176C265.943 184.176 267.151 182.543 267.151 180.53C267.151 178.516 265.943 176.883 264.452 176.883C262.962 176.883 261.753 178.516 261.753 180.53C261.753 182.543 262.962 184.176 264.452 184.176Z" fill="white"/>
<path d="M349.322 160.678C350.647 160.678 351.721 159.227 351.721 157.437C351.721 155.647 350.647 154.196 349.322 154.196C347.997 154.196 346.923 155.647 346.923 157.437C346.923 159.227 347.997 160.678 349.322 160.678Z" fill="white"/>
<path d="M207.473 243.326C208.632 243.326 209.572 242.056 209.572 240.49C209.572 238.924 208.632 237.654 207.473 237.654C206.313 237.654 205.374 238.924 205.374 240.49C205.374 242.056 206.313 243.326 207.473 243.326Z" fill="white"/>
<path d="M445.287 131.508C447.275 131.508 448.886 129.331 448.886 126.646C448.886 123.961 447.275 121.785 445.287 121.785C443.3 121.785 441.689 123.961 441.689 126.646C441.689 129.331 443.3 131.508 445.287 131.508Z" fill="white"/>
<path d="M376.912 174.453C378.237 174.453 379.311 173.001 379.311 171.211C379.311 169.421 378.237 167.97 376.912 167.97C375.587 167.97 374.513 169.421 374.513 171.211C374.513 173.001 375.587 174.453 376.912 174.453Z" fill="white"/>
<path d="M134.599 160.678C136.255 160.678 137.598 158.864 137.598 156.626C137.598 154.389 136.255 152.575 134.599 152.575C132.943 152.575 131.6 154.389 131.6 156.626C131.6 158.864 132.943 160.678 134.599 160.678Z" fill="white"/>
<path d="M492.07 278.168C493.727 278.168 495.069 276.354 495.069 274.117C495.069 271.879 493.727 270.065 492.07 270.065C490.414 270.065 489.072 271.879 489.072 274.117C489.072 276.354 490.414 278.168 492.07 278.168Z" fill="white"/>
<path d="M525.658 332.457L492.07 274.117L503.466 223.879L466.88 210.915" stroke="white" stroke-width="0.767095" stroke-miterlimit="10"/>
<path d="M463.341 168.051L497.049 113.844L537.114 159.381L503.466 213.508L463.341 168.051Z" fill="url(#paint0_linear_78_420)" stroke="url(#paint1_linear_78_420)" stroke-width="1.27849" stroke-miterlimit="10"/>
<path d="M453.444 176.802L460.822 164.891L504.186 213.508L496.809 225.5L453.444 176.802Z" fill="url(#paint2_linear_78_420)" stroke="url(#paint3_linear_78_420)" stroke-width="0.255698" stroke-miterlimit="10"/>
<path d="M512.223 166.836C509.404 166.836 475.277 179.8 475.277 179.8L501.727 210.024L506.405 194.304C506.405 194.385 513.063 166.836 512.223 166.836Z" fill="white"/>
<path d="M498.728 106.794H446.067V177.937H498.728V106.794Z" fill="url(#paint4_linear_78_420)" stroke="url(#paint5_linear_78_420)" stroke-width="0.255698" stroke-miterlimit="10"/>
<path d="M498.308 106.227H445.647V177.37H498.308V106.227Z" stroke="url(#paint6_linear_78_420)" stroke-width="1.27849" stroke-miterlimit="10"/>
<path d="M498.908 177.532H445.047V193.413H498.908V177.532Z" fill="url(#paint7_linear_78_420)"/>
<path d="M475.037 176.073L489.971 142.285L497.708 156.951V176.802H491.651L475.037 176.073Z" fill="white"/>
<path d="M460.822 176.559L478.515 144.553L492.61 176.802L460.822 176.559Z" fill="white"/>
<path d="M462.201 119.921C464.54 119.921 466.4 122.433 466.4 125.593C466.4 128.753 464.54 131.265 462.201 131.265C459.862 131.265 458.003 128.753 458.003 125.593C457.943 122.514 459.862 119.921 462.201 119.921Z" fill="white"/>
<path d="M134.059 267.391L224.027 262.368L237.402 177.613L145.995 178.666L132.38 267.31" fill="url(#paint8_linear_78_420)"/>
<path d="M134.059 267.391L224.027 262.368L237.402 177.613L145.995 178.666L132.38 267.31" stroke="url(#paint9_linear_78_420)" stroke-width="0.255698" stroke-miterlimit="10"/>
<path d="M186.001 232.874C189.015 232.874 191.459 229.391 191.459 225.095C191.459 220.799 189.015 217.316 186.001 217.316C182.986 217.316 180.542 220.799 180.542 225.095C180.542 229.391 182.986 232.874 186.001 232.874Z" fill="white"/>
<path d="M133.219 261.071L84.0971 260.99C83.7972 260.99 83.5573 261.233 83.4374 261.638L82.7776 265.609C82.7176 266.095 82.8976 266.5 83.2574 266.581C83.3174 266.581 83.3174 266.581 83.3774 266.581L132.38 267.229C132.68 267.229 132.92 266.986 133.04 266.581L133.879 262.043C133.939 261.557 133.759 261.071 133.399 261.071C133.339 261.071 133.279 261.071 133.219 261.071Z" fill="url(#paint10_linear_78_420)" stroke="url(#paint11_linear_78_420)" stroke-width="0.255698" stroke-miterlimit="10"/>
<path d="M144.495 176.316L235.903 175.425C236.023 175.425 236.142 175.506 236.262 175.668L237.462 177.613L146.355 178.666C146.175 178.666 145.995 178.828 145.935 179.152L134.059 266.905C134.059 267.148 133.819 267.391 133.639 267.391H132.86C132.62 267.391 132.44 267.148 132.44 266.824C132.44 266.824 132.44 266.824 132.44 266.743L143.776 177.289C143.776 176.721 144.136 176.316 144.495 176.316Z" fill="url(#paint12_linear_78_420)"/>
<path d="M359.458 380.344C359.458 380.344 353.7 352.065 330.129 350.283C306.557 348.5 305.717 349.229 301.459 350.04C299 350.445 297.56 353.929 301.459 356.441C305.418 359.034 304.398 360.978 309.916 359.601C315.434 358.223 319.093 365.84 322.271 366.245C325.45 366.65 327.79 365.759 336.786 365.273C345.003 364.787 354.78 372.16 356.219 376.13C357.659 380.101 364.736 377.022 364.736 377.022L359.458 380.344Z" fill="url(#paint13_linear_78_420)"/>
<path d="M357.479 377.184C357.479 377.184 353.7 350.202 332.768 347.933C311.835 345.664 306.197 349.553 302.419 350.04C300.259 350.364 306.437 350.121 309.916 352.551C313.395 354.982 312.555 354.496 317.413 354.82C323.051 355.225 326.05 357.251 328.869 356.198C333.008 354.739 333.787 360.735 341.764 360.492C348.962 360.249 353.22 369.486 354.54 373.132C355.859 376.779 362.097 374.267 362.097 374.267L357.479 377.184Z" fill="url(#paint14_linear_78_420)"/>
<path d="M372.653 363.004L373.673 359.439C374.153 357.737 374.933 356.279 375.952 355.063C380.99 349.229 396.345 329.783 397.245 306.366C397.245 306.204 397.125 305.96 396.945 305.96H396.885C396.825 305.96 396.825 305.96 396.765 305.96C394.186 307.338 381.17 315.441 371.034 346.555C370.854 347.042 370.674 347.69 370.614 348.257C370.494 349.31 370.254 351.174 370.194 352.146C370.134 353.524 371.694 354.739 371.034 357.089C370.374 359.439 369.235 365.111 369.235 365.111L372.114 365.84L372.653 363.004Z" fill="url(#paint15_linear_78_420)"/>
<path d="M362.277 367.785C362.277 367.785 345.843 304.745 325.63 294.779C307.037 285.623 312.495 301.585 313.515 304.259C313.575 304.502 313.755 304.664 313.875 304.826C319.453 310.336 323.531 318.115 325.39 327.109C327.19 336.589 335.947 329.459 339.785 337.48C343.624 345.502 351.481 356.522 353.34 362.761C355.14 369 357.239 374.915 357.239 374.915L362.277 371.836V367.785Z" fill="url(#paint16_linear_78_420)"/>
<path d="M362.277 368.028C362.277 367.866 362.217 367.704 362.217 367.542C361.138 363.409 345.183 304.421 325.63 294.779C307.157 285.623 312.495 301.342 313.575 304.097C313.695 304.421 313.934 304.664 314.174 304.826C315.734 306.042 322.571 311.227 325.87 307.905C334.987 298.992 331.988 320.951 340.505 326.136C347.283 330.188 354.3 354.739 356.159 361.059C357.179 364.625 357.959 368.271 358.498 371.998C358.678 372.97 359.398 373.457 360.058 373.213C360.118 373.213 360.118 373.213 360.178 373.132C360.298 373.051 360.358 373.051 360.418 373.051L361.317 372.484C361.857 372.16 362.217 371.512 362.217 370.702L362.277 368.028Z" fill="url(#paint17_linear_78_420)"/>
<path d="M368.395 368.352C368.395 368.352 363.357 351.255 366.896 336.427C367.915 332.376 369.774 328.81 372.234 326.136C374.153 324.111 376.792 319.492 377.092 309.769C377.092 309.769 378.951 295.022 383.51 287.891C388.068 280.761 382.19 284.164 382.19 284.164C382.19 284.164 367.195 299.154 361.318 319.087C360.958 320.302 360.538 321.599 359.998 322.733C358.139 327.028 354 341.532 364.256 369.162L368.395 368.352Z" fill="url(#paint18_linear_78_420)"/>
<path d="M382.25 357.656C382.25 357.656 381.77 355.468 379.851 356.846C378.171 358.061 348.962 376.779 348.962 376.779C348.962 376.779 347.582 377.67 348.182 378.966C348.782 380.263 364.856 410.162 365.576 410.567C365.876 410.891 366.296 410.972 366.716 410.891C367.315 410.729 387.708 397.279 387.708 397.279C388.188 396.874 388.308 396.144 388.128 395.415C388.068 395.496 382.43 358.061 382.25 357.656Z" fill="url(#paint19_linear_78_420)"/>
</g>
<defs>
<linearGradient id="paint0_linear_78_420" x1="506.461" y1="212.814" x2="484.238" y2="116.835" gradientUnits="userSpaceOnUse">
<stop stop-color="#E5A4ED"/>
<stop offset="1" stop-color="#7A5BF5"/>
</linearGradient>
<linearGradient id="paint1_linear_78_420" x1="506.882" y1="216.144" x2="483.388" y2="114.658" gradientUnits="userSpaceOnUse">
<stop stop-color="#E5A4ED"/>
<stop offset="1" stop-color="#7A5BF5"/>
</linearGradient>
<linearGradient id="paint2_linear_78_420" x1="453.515" y1="195.334" x2="504.115" y2="195.159" gradientUnits="userSpaceOnUse">
<stop stop-color="#E5A4ED"/>
<stop offset="1" stop-color="#7A5BF5"/>
</linearGradient>
<linearGradient id="paint3_linear_78_420" x1="453.092" y1="195.337" x2="504.538" y2="195.159" gradientUnits="userSpaceOnUse">
<stop stop-color="#E5A4ED"/>
<stop offset="1" stop-color="#7A5BF5"/>
</linearGradient>
<linearGradient id="paint4_linear_78_420" x1="446.071" y1="142.361" x2="498.736" y2="142.361" gradientUnits="userSpaceOnUse">
<stop stop-color="#E5A4ED"/>
<stop offset="1" stop-color="#7A5BF5"/>
</linearGradient>
<linearGradient id="paint5_linear_78_420" x1="445.771" y1="142.361" x2="499.035" y2="142.361" gradientUnits="userSpaceOnUse">
<stop stop-color="#E5A4ED"/>
<stop offset="1" stop-color="#7A5BF5"/>
</linearGradient>
<linearGradient id="paint6_linear_78_420" x1="444.155" y1="141.831" x2="499.818" y2="141.831" gradientUnits="userSpaceOnUse">
<stop stop-color="#E5A4ED"/>
<stop offset="1" stop-color="#7A5BF5"/>
</linearGradient>
<linearGradient id="paint7_linear_78_420" x1="445.042" y1="185.503" x2="498.932" y2="185.503" gradientUnits="userSpaceOnUse">
<stop stop-color="#E5A4ED"/>
<stop offset="1" stop-color="#7A5BF5"/>
</linearGradient>
<linearGradient id="paint8_linear_78_420" x1="132.366" y1="222.487" x2="237.42" y2="222.487" gradientUnits="userSpaceOnUse">
<stop stop-color="#E5A4ED"/>
<stop offset="1" stop-color="#7A5BF5"/>
</linearGradient>
<linearGradient id="paint9_linear_78_420" x1="132.072" y1="222.485" x2="237.791" y2="222.485" gradientUnits="userSpaceOnUse">
<stop stop-color="#E5A4ED"/>
<stop offset="1" stop-color="#7A5BF5"/>
</linearGradient>
<linearGradient id="paint10_linear_78_420" x1="82.7669" y1="264.19" x2="133.88" y2="264.19" gradientUnits="userSpaceOnUse">
<stop stop-color="#E5A4ED"/>
<stop offset="1" stop-color="#7A5BF5"/>
</linearGradient>
<linearGradient id="paint11_linear_78_420" x1="82.467" y1="264.19" x2="134.18" y2="264.19" gradientUnits="userSpaceOnUse">
<stop stop-color="#E5A4ED"/>
<stop offset="1" stop-color="#7A5BF5"/>
</linearGradient>
<linearGradient id="paint12_linear_78_420" x1="132.395" y1="221.383" x2="237.449" y2="221.383" gradientUnits="userSpaceOnUse">
<stop stop-color="#E5A4ED"/>
<stop offset="1" stop-color="#7A5BF5"/>
</linearGradient>
<linearGradient id="paint13_linear_78_420" x1="308.385" y1="379.664" x2="359.146" y2="361.527" gradientUnits="userSpaceOnUse">
<stop stop-color="#93FD93"/>
<stop offset="0.51" stop-color="#21C2C1"/>
<stop offset="1" stop-color="#84F599"/>
</linearGradient>
<linearGradient id="paint14_linear_78_420" x1="318.703" y1="348.514" x2="364.389" y2="364.307" gradientUnits="userSpaceOnUse">
<stop stop-color="#93FD93"/>
<stop offset="0.51" stop-color="#21C2C1"/>
<stop offset="1" stop-color="#84F599"/>
</linearGradient>
<linearGradient id="paint15_linear_78_420" x1="366.729" y1="378.112" x2="402.344" y2="325.244" gradientUnits="userSpaceOnUse">
<stop stop-color="#93FD93"/>
<stop offset="0.51" stop-color="#21C2C1"/>
<stop offset="1" stop-color="#84F599"/>
</linearGradient>
<linearGradient id="paint16_linear_78_420" x1="368.967" y1="352.915" x2="314.039" y2="333.148" gradientUnits="userSpaceOnUse">
<stop stop-color="#93FD93"/>
<stop offset="0.51" stop-color="#21C2C1"/>
<stop offset="1" stop-color="#84F599"/>
</linearGradient>
<linearGradient id="paint17_linear_78_420" x1="326.419" y1="339.958" x2="350.381" y2="331.396" gradientUnits="userSpaceOnUse">
<stop stop-color="#93FD93"/>
<stop offset="0.51" stop-color="#21C2C1"/>
<stop offset="1" stop-color="#84F599"/>
</linearGradient>
<linearGradient id="paint18_linear_78_420" x1="363.739" y1="375.264" x2="376.568" y2="314.599" gradientUnits="userSpaceOnUse">
<stop stop-color="#93FD93"/>
<stop offset="0.51" stop-color="#21C2C1"/>
<stop offset="1" stop-color="#84F599"/>
</linearGradient>
<linearGradient id="paint19_linear_78_420" x1="354.335" y1="396.174" x2="391.319" y2="382.961" gradientUnits="userSpaceOnUse">
<stop stop-color="#E5A4ED"/>
<stop offset="1" stop-color="#7A5BF5"/>
</linearGradient>
<clipPath id="clip0_78_420">
<rect width="653" height="492" fill="white"/>
</clipPath>
</defs>
</svg>
