<svg width="142" height="142" viewBox="0 0 142 142" fill="none" xmlns="http://www.w3.org/2000/svg">
<g filter="url(#filter0_d_615_10367)">
<rect x="29" y="10" width="84.375" height="84.375" rx="11.25" fill="url(#paint0_linear_615_10367)" shape-rendering="crispEdges"/>
<rect x="29.5625" y="10.5625" width="83.25" height="83.25" rx="10.6875" stroke="url(#paint1_linear_615_10367)" stroke-width="1.125" shape-rendering="crispEdges"/>
</g>
<g filter="url(#filter1_f_615_10367)">
<circle cx="71.5625" cy="52.5625" r="38.8125" fill="url(#paint2_radial_615_10367)" fill-opacity="0.5"/>
</g>
<g filter="url(#filter2_d_615_10367)">
<path d="M72.0781 38.9424C65.156 38.9424 59.5288 44.5696 59.5193 51.4917C59.5193 53.8625 60.1858 56.1763 61.4426 58.1663L61.7378 58.6423L60.4714 63.2698L65.2227 62.0225L65.6797 62.2986C67.603 63.4412 69.812 64.0505 72.0686 64.0505H72.0781C78.9907 64.0505 84.7703 58.4233 84.7703 51.5012C84.7703 48.1497 83.323 44.998 80.9521 42.6272C78.5718 40.2468 75.4297 38.9424 72.0781 38.9424ZM79.4573 56.8809C79.1431 57.7664 77.6387 58.5662 76.915 58.6709C75.7153 58.8518 74.7822 58.7566 72.3923 57.7283C68.6123 56.0906 66.1367 52.282 65.9463 52.0344C65.7559 51.7869 64.4038 49.9873 64.4038 48.1306C64.4038 46.2739 65.375 45.3599 65.7273 44.979C66.0701 44.5981 66.4795 44.5029 66.7366 44.5029C66.9841 44.5029 67.2412 44.5029 67.4602 44.5125C67.6887 44.522 68.0029 44.4268 68.3076 45.1599C68.6218 45.9121 69.374 47.7688 69.4692 47.9592C69.5645 48.1497 69.6311 48.3687 69.4978 48.6162C68.7742 50.0635 68.0029 50.0063 68.3933 50.6729C69.8501 53.177 71.3069 54.0435 73.5254 55.1575C73.9062 55.3479 74.1252 55.3193 74.3442 55.0623C74.5632 54.8147 75.2869 53.9578 75.5344 53.5864C75.782 53.2056 76.0391 53.2722 76.3818 53.396C76.7246 53.5198 78.5813 54.4338 78.9622 54.6243C79.343 54.8147 79.5906 54.9099 79.6858 55.0623C79.7715 55.2432 79.7715 56.0049 79.4573 56.8809ZM88.8359 30.2969H55.3203C52.7971 30.2969 50.75 32.344 50.75 34.8672V68.3828C50.75 70.906 52.7971 72.9531 55.3203 72.9531H88.8359C91.3591 72.9531 93.4062 70.906 93.4062 68.3828V34.8672C93.4062 32.344 91.3591 30.2969 88.8359 30.2969ZM72.0686 66.5928C69.5359 66.5928 67.0508 65.9548 64.8513 64.7551L56.8438 66.8594L58.9861 59.0327C57.6626 56.7476 56.9675 54.1482 56.9675 51.4822C56.9771 43.1604 63.7468 36.3906 72.0686 36.3906C76.1057 36.3906 79.8953 37.9617 82.7517 40.8181C85.5986 43.6746 87.3125 47.4641 87.3125 51.5012C87.3125 59.823 80.3904 66.5928 72.0686 66.5928Z" fill="#A7CD3A"/>
</g>
<defs>
<filter id="filter0_d_615_10367" x="0.5" y="0.25" width="141.375" height="141.375" filterUnits="userSpaceOnUse" color-interpolation-filters="sRGB">
<feFlood flood-opacity="0" result="BackgroundImageFix"/>
<feColorMatrix in="SourceAlpha" type="matrix" values="0 0 0 0 0 0 0 0 0 0 0 0 0 0 0 0 0 0 127 0" result="hardAlpha"/>
<feMorphology radius="9" operator="erode" in="SourceAlpha" result="effect1_dropShadow_615_10367"/>
<feOffset dy="18.75"/>
<feGaussianBlur stdDeviation="18.75"/>
<feComposite in2="hardAlpha" operator="out"/>
<feColorMatrix type="matrix" values="0 0 0 0 0.654902 0 0 0 0 0.803922 0 0 0 0 0.227451 0 0 0 1 0"/>
<feBlend mode="normal" in2="BackgroundImageFix" result="effect1_dropShadow_615_10367"/>
<feBlend mode="normal" in="SourceGraphic" in2="effect1_dropShadow_615_10367" result="shape"/>
</filter>
<filter id="filter1_f_615_10367" x="28.25" y="9.25" width="86.625" height="86.625" filterUnits="userSpaceOnUse" color-interpolation-filters="sRGB">
<feFlood flood-opacity="0" result="BackgroundImageFix"/>
<feBlend mode="normal" in="SourceGraphic" in2="BackgroundImageFix" result="shape"/>
<feGaussianBlur stdDeviation="2.25" result="effect1_foregroundBlur_615_10367"/>
</filter>
<filter id="filter2_d_615_10367" x="39.5" y="26.5469" width="65.1562" height="65.1562" filterUnits="userSpaceOnUse" color-interpolation-filters="sRGB">
<feFlood flood-opacity="0" result="BackgroundImageFix"/>
<feColorMatrix in="SourceAlpha" type="matrix" values="0 0 0 0 0 0 0 0 0 0 0 0 0 0 0 0 0 0 127 0" result="hardAlpha"/>
<feMorphology radius="3.75" operator="erode" in="SourceAlpha" result="effect1_dropShadow_615_10367"/>
<feOffset dy="7.5"/>
<feGaussianBlur stdDeviation="7.5"/>
<feComposite in2="hardAlpha" operator="out"/>
<feColorMatrix type="matrix" values="0 0 0 0 0.654902 0 0 0 0 0.803922 0 0 0 0 0.227451 0 0 0 0.5 0"/>
<feBlend mode="normal" in2="BackgroundImageFix" result="effect1_dropShadow_615_10367"/>
<feBlend mode="normal" in="SourceGraphic" in2="effect1_dropShadow_615_10367" result="shape"/>
</filter>
<linearGradient id="paint0_linear_615_10367" x1="42.5" y1="10" x2="100.438" y2="87.0625" gradientUnits="userSpaceOnUse">
<stop stop-color="white" stop-opacity="0.2"/>
<stop offset="1" stop-color="white" stop-opacity="0.8"/>
</linearGradient>
<linearGradient id="paint1_linear_615_10367" x1="29" y1="10" x2="113.375" y2="98.875" gradientUnits="userSpaceOnUse">
<stop stop-color="white"/>
<stop offset="1" stop-color="white" stop-opacity="0.2"/>
</linearGradient>
<radialGradient id="paint2_radial_615_10367" cx="0" cy="0" r="1" gradientUnits="userSpaceOnUse" gradientTransform="translate(71.5625 52.5625) rotate(90) scale(38.8125)">
<stop stop-color="white" stop-opacity="0.125"/>
<stop offset="0.333333" stop-color="white" stop-opacity="0"/>
<stop offset="1" stop-color="white"/>
</radialGradient>
</defs>
</svg>
