<svg width="22" height="25" viewBox="0 0 22 25" fill="none" xmlns="http://www.w3.org/2000/svg">
<path d="M21.0149 2.93047C21.6455 2.1716 21.545 1.04446 20.7862 0.413933C20.0273 -0.216595 18.9001 -0.116157 18.2696 0.642709L10.7144 9.71005L3.15924 0.642709C2.52872 -0.116157 1.40158 -0.216595 0.642709 0.413933C-0.116157 1.04446 -0.216595 2.1716 0.413933 2.93047L8.38761 12.5L0.413933 22.0695C-0.216595 22.8284 -0.116157 23.9555 0.642709 24.5861C1.40158 25.2166 2.52872 25.1162 3.15924 24.3573L10.7144 15.29L18.2696 24.3573C18.9001 25.1162 20.0273 25.2166 20.7862 24.5861C21.545 23.9555 21.6455 22.8284 21.0149 22.0695L13.0413 12.5L21.0149 2.93047Z" fill="#005CBA"/>
</svg>
